<?xml version="1.0" encoding="UTF-8"?>
<!DOCTYPE svg PUBLIC "-//W3C//DTD SVG 1.1//EN" "http://www.w3.org/Graphics/SVG/1.1/DTD/svg11.dtd">
<svg version="1.1" xmlns="http://www.w3.org/2000/svg" xmlns:xlink="http://www.w3.org/1999/xlink" x="0" y="0" width="89.918" height="17.984" viewBox="0, 0, 89.918, 17.984">
  <g id="Layer_1" transform="translate(-5, -41.044)">
    <path d="M93.291,48.409 L58.797,48.409 C58.028,44.226 54.362,41.044 49.959,41.044 C45.557,41.044 41.89,44.226 41.122,48.409 L6.627,48.409 C5.729,48.409 5,49.137 5,50.037 C5,50.935 5.729,51.663 6.627,51.663 L41.122,51.663 C41.891,55.846 45.557,59.028 49.959,59.028 C54.362,59.028 58.028,55.845 58.797,51.663 L93.291,51.663 C94.189,51.663 94.918,50.934 94.918,50.037 C94.918,49.137 94.189,48.409 93.291,48.409 z M49.959,55.774 C46.795,55.774 44.221,53.2 44.221,50.036 C44.221,46.872 46.795,44.297 49.959,44.297 C53.123,44.297 55.698,46.872 55.698,50.036 C55.698,53.2 53.123,55.774 49.959,55.774 z" fill="#000000"/>
  </g>
</svg>
