M48
;Layer_Color=9474304
;FILE_FORMAT=2:5
INCH,LZ
;TYPE=PLATED
T1F00S00C0.00800
T2F00S00C0.00900
T3F00S00C0.00984
T4F00S00C0.02800
T5F00S00C0.05512
%
T01
X48325Y2491
X47945Y2491043
X47565Y2491
X47185Y2491043
X46805Y2491
X46425Y2491043
X46045Y2491
X45665Y2491043
X45285Y2491
X44905Y2491043
X44525Y2491
X44145Y2491043
X43765Y2491
X43385Y2491043
X43005Y2491
X42625Y2491043
Y2530543
X43005Y25305
X43385Y2530543
Y2570043
X43005Y257
X42625Y2570043
Y2609543
X43005Y26095
X43385Y2609543
Y2649043
X43005Y2649
X42625Y2649043
X43765Y2649
X44145Y2649043
X44525Y2649
X44905Y2649043
X45285Y2649
Y26095
X44905Y2609543
X44525Y26095
X44145Y2609543
X43765Y26095
Y257
X44145Y2570043
X44525Y257
X44905Y2570043
X45285Y257
Y25305
X44905Y2530543
X44525Y25305
X44145Y2530543
X43765Y25305
X45665Y2530543
X46045Y25305
X46425Y2530543
X46805Y25305
Y257
X46425Y2570043
X46045Y257
X45665Y2570043
Y2609543
X46045Y26095
X46425Y2609543
X46805Y26095
Y2649
X46425Y2649043
X46045Y2649
X45665Y2649043
X47185
X47565Y2649
X47945Y2649043
X48325Y2649
Y26095
X47945Y2609543
X47565Y26095
X47185Y2609543
Y2570043
X47565Y257
X47945Y2570043
X48325Y257
Y25305
X47945Y2530543
X47565Y25305
X47185Y2530543
Y2688543
X47565Y26885
X47945Y2688543
X48325Y26885
Y2728
X47945Y2728043
X47565Y2728
X47185Y2728043
Y2767543
X47565Y27675
X47945Y2767543
X48325Y27675
Y2807
X47945Y2807043
X47565Y2807
X47185Y2807043
X46805Y2807
X46425Y2807043
X46045Y2807
X45665Y2807043
Y2767543
X46045Y27675
X46425Y2767543
X46805Y27675
Y2728
X46425Y2728043
X46045Y2728
X45665Y2728043
Y2688543
X46045Y26885
X46425Y2688543
X46805Y26885
X45285
X44905Y2688543
X44525Y26885
X44145Y2688543
X43765Y26885
Y2728
X44145Y2728043
X44525Y2728
X44905Y2728043
X45285Y2728
Y27675
X44905Y2767543
X44525Y27675
X44145Y2767543
X43765Y27675
Y2807
X44145Y2807043
X44525Y2807
X44905Y2807043
X45285Y2807
X43385Y2807043
X43005Y2807
X42625Y2807043
Y2767543
X43005Y27675
X43385Y2767543
Y2728043
X43005Y2728
X42625Y2728043
Y2688543
X43005Y26885
X43385Y2688543
Y2846543
X43005Y28465
X42625Y2846543
Y2886043
X43005Y2886
X43385Y2886043
Y2925543
X43005Y29255
X42625Y2925543
Y2965043
X43005Y2965
X43385Y2965043
X43765Y2965
X44145Y2965043
X44525Y2965
X44905Y2965043
X45285Y2965
Y29255
X44905Y2925543
X44525Y29255
X44145Y2925543
X43765Y29255
Y2886
X44145Y2886043
X44525Y2886
X44905Y2886043
X45285Y2886
Y28465
X44905Y2846543
X44525Y28465
X44145Y2846543
X43765Y28465
X45665Y2846543
X46045Y28465
X46425Y2846543
X46805Y28465
Y2886
X46425Y2886043
X46045Y2886
X45665Y2886043
Y2925543
X46045Y29255
X46425Y2925543
X46805Y29255
Y2965
X46425Y2965043
X46045Y2965
X45665Y2965043
X47185
X47565Y2965
X47945Y2965043
X48325Y2965
Y29255
X47945Y2925543
X47565Y29255
X47185Y2925543
Y2886043
X47565Y2886
X47945Y2886043
X48325Y2886
Y28465
X47945Y2846543
X47565Y28465
X47185Y2846543
Y3004543
X47565Y30045
X47945Y3004543
X48325Y30045
Y3044
X47945Y3044043
X47565Y3044
X47185Y3044043
Y3083543
X47565Y30835
X47945Y3083543
X48325Y30835
Y3123
X47945Y3123043
X47565Y3123
X47185Y3123043
X46805Y3123
X46425Y3123043
X46045Y3123
X45665Y3123043
Y3083543
X46045Y30835
X46425Y3083543
X46805Y30835
Y3044
X46425Y3044043
X46045Y3044
X45665Y3044043
Y3004543
X46045Y30045
X46425Y3004543
X46805Y30045
X45285
X44905Y3004543
X44525Y30045
X44145Y3004543
X43765Y30045
Y3044
X44145Y3044043
X44525Y3044
X44905Y3044043
X45285Y3044
Y30835
X44905Y3083543
X44525Y30835
X44145Y3083543
X43765Y30835
Y3123
X44145Y3123043
X44525Y3123
X44905Y3123043
X45285Y3123
X43385Y3123043
X43005Y3123
X42625Y3123043
Y3083543
X43005Y30835
X43385Y3083543
Y3044043
X43005Y3044
X42625Y3044043
Y3004543
X43005Y30045
X43385Y3004543
Y3162543
X43005Y31625
X42625Y3162543
Y3202043
X43005Y3202
X43385Y3202043
Y3241543
X43005Y32415
X42625Y3241543
Y3281043
X43005Y3281
X43385Y3281043
X43765Y3281
X44145Y3281043
X44525Y3281
X44905Y3281043
X45285Y3281
Y32415
X44905Y3241543
X44525Y32415
X44145Y3241543
X43765Y32415
Y3202
X44145Y3202043
X44525Y3202
X44905Y3202043
X45285Y3202
Y31625
X44905Y3162543
X44525Y31625
X44145Y3162543
X43765Y31625
X45665Y3162543
X46045Y31625
X46425Y3162543
X46805Y31625
Y3202
X46425Y3202043
X46045Y3202
X45665Y3202043
Y3241543
X46045Y32415
X46425Y3241543
X46805Y32415
Y3281
X46425Y3281043
X46045Y3281
X45665Y3281043
X47185
X47565Y3281
X47945Y3281043
X48325Y3281
Y32415
X47945Y3241543
X47565Y32415
X47185Y3241543
Y3202043
X47565Y3202
X47945Y3202043
X48325Y3202
Y31625
X47945Y3162543
X47565Y31625
X47185Y3162543
Y3320543
X47565Y33205
X47945Y3320543
X48325Y33205
Y336
X47945Y3360043
X47565Y336
X47185Y3360043
Y3399543
X47565Y33995
X47945Y3399543
X48325Y33995
X46805
X46425Y3399543
X46045Y33995
X45665Y3399543
Y3360043
X46045Y336
X46425Y3360043
X46805Y336
Y33205
X46425Y3320543
X46045Y33205
X45665Y3320543
X45285Y33205
X44905Y3320543
X44525Y33205
X44145Y3320543
X43765Y33205
Y336
X44145Y3360043
X44525Y336
X44905Y3360043
X45285Y336
Y33995
X44905Y3399543
X44525Y33995
X44145Y3399543
X43765Y33995
X43385Y3399543
X43005Y33995
X42625Y3399543
Y3360043
X43005Y336
X43385Y3360043
Y3320543
X43005Y33205
X42625Y3320543
Y3439043
X43005Y3439
X43385Y3439043
Y3478543
X43005Y34785
X42625Y3478543
Y3518043
X43005Y3518
X43385Y3518043
Y3557543
X43005Y35575
X42625Y3557543
X43765Y35575
X44145Y3557543
X44525Y35575
X44905Y3557543
X45285Y35575
Y3518
X44905Y3518043
X44525Y3518
X44145Y3518043
X43765Y3518
Y34785
X44145Y3478543
X44525Y34785
X44905Y3478543
X45285Y34785
Y3439
X44905Y3439043
X44525Y3439
X44145Y3439043
X43765Y3439
X45665Y3439043
X46045Y3439
X46425Y3439043
X46805Y3439
Y34785
X46425Y3478543
X46045Y34785
X45665Y3478543
Y3518043
X46045Y3518
X46425Y3518043
X46805Y3518
Y35575
X46425Y3557543
X46045Y35575
X45665Y3557543
X47185
X47565Y35575
X47945Y3557543
X48325Y35575
Y3518
X47945Y3518043
X47565Y3518
X47185Y3518043
Y3478543
X47565Y34785
X47945Y3478543
X48325Y34785
Y3439
X47945Y3439043
X47565Y3439
X47185Y3439043
Y3597043
X47565Y3597
X47945Y3597043
X48325Y3597
Y36365
X47945Y3636543
X47565Y36365
X47185Y3636543
Y3676043
X47565Y3676
X47945Y3676043
X48325Y3676
Y37155
X47945Y3715543
X47565Y37155
X47185Y3715543
X46805Y37155
X46425Y3715543
X46045Y37155
X45665Y3715543
Y3676043
X46045Y3676
X46425Y3676043
X46805Y3676
Y36365
X46425Y3636543
X46045Y36365
X45665Y3636543
Y3597043
X46045Y3597
X46425Y3597043
X46805Y3597
X45285
X44905Y3597043
X44525Y3597
X44145Y3597043
X43765Y3597
Y36365
X44145Y3636543
X44525Y36365
X44905Y3636543
X45285Y36365
Y3676
X44905Y3676043
X44525Y3676
X44145Y3676043
X43765Y3676
Y37155
X44145Y3715543
X44525Y37155
X44905Y3715543
X45285Y37155
X43385Y3715543
X43005Y37155
X42625Y3715543
Y3676043
X43005Y3676
X43385Y3676043
Y3636543
X43005Y36365
X42625Y3636543
Y3597043
X43005Y3597
X43385Y3597043
Y3755087
X43005Y3755
X42625Y3755087
Y3794587
X43005Y37945
X43385Y3794587
Y3834087
X43005Y3834
X42625Y3834087
Y3873587
X43005Y38735
X43385Y3873587
X43765Y38735
X44145Y3873587
X44525Y38735
X44905Y3873587
X45285Y38735
Y3834
X44905Y3834087
X44525Y3834
X44145Y3834087
X43765Y3834
Y37945
X44145Y3794587
X44525Y37945
X44905Y3794587
X45285Y37945
Y3755
X44905Y3755087
X44525Y3755
X44145Y3755087
X43765Y3755
X45665Y3755087
X46045Y3755
X46425Y3755087
X46805Y3755
Y37945
X46425Y3794587
X46045Y37945
X45665Y3794587
Y3834087
X46045Y3834
X46425Y3834087
X46805Y3834
Y38735
X46425Y3873587
X46045Y38735
X45665Y3873587
X47185
X47565Y38735
X47945Y3873587
X48325Y38735
Y3834
X47945Y3834087
X47565Y3834
X47185Y3834087
Y3794587
X47565Y37945
X47945Y3794587
X48325Y37945
Y3755
X47945Y3755087
X47565Y3755
X47185Y3755087
Y3913087
X47565Y3913
X47945Y3913087
X48325Y3913
Y39525
X47945Y3952587
X47565Y39525
X47185Y3952587
Y3992086
X47565Y3992
X47945Y3992086
X48325Y3992
Y40315
X47945Y4031586
X47565Y40315
X47185Y4031586
X46805Y40315
X46425Y4031586
X46045Y40315
X45665Y4031586
Y3992086
X46045Y3992
X46425Y3992086
X46805Y3992
Y39525
X46425Y3952587
X46045Y39525
X45665Y3952587
Y3913087
X46045Y3913
X46425Y3913087
X46805Y3913
X45285
X44905Y3913087
X44525Y3913
X44145Y3913087
X43765Y3913
Y39525
X44145Y3952587
X44525Y39525
X44905Y3952587
X45285Y39525
Y3992
X44905Y3992086
X44525Y3992
X44145Y3992086
X43765Y3992
Y40315
X44145Y4031586
X44525Y40315
X44905Y4031586
X45285Y40315
X43385Y4031586
X43005Y40315
X42625Y4031586
Y3992086
X43005Y3992
X43385Y3992086
Y3952587
X43005Y39525
X42625Y3952587
Y3913087
X43005Y3913
X43385Y3913087
T02
X43415Y2646043
X43035Y2646
X42655Y2646043
Y2606543
X43035Y26065
X43415Y2606543
Y2567043
X43035Y2567
X42655Y2567043
Y2527543
X43035Y25275
X43415Y2527543
X43795Y25275
X44175Y2527543
X44555Y25275
X44935Y2527543
Y2567043
X44555Y2567
X44175Y2567043
X43795Y2567
Y26065
X44175Y2606543
X44555Y26065
X44935Y2606543
Y2646043
X44555Y2646
X44175Y2646043
X43795Y2646
X45315
X45695Y2646043
X46075Y2646
X46455Y2646043
X46835Y2646
Y26065
X46455Y2606543
X46075Y26065
X45695Y2606543
X45315Y26065
Y2567
X45695Y2567043
X46075Y2567
X46455Y2567043
X46835Y2567
Y25275
X46455Y2527543
X46075Y25275
X45695Y2527543
X45315Y25275
X47215Y2527543
X47595Y25275
X47975Y2527543
X48355Y25275
Y2567
X47975Y2567043
X47595Y2567
X47215Y2567043
Y2606543
X47595Y26065
X47975Y2606543
X48355Y26065
Y2646
X47975Y2646043
X47595Y2646
X47215Y2646043
Y2685543
X47595Y26855
X47975Y2685543
X48355Y26855
Y2725
X47975Y2725043
X47595Y2725
X47215Y2725043
Y2764543
X47595Y27645
X47975Y2764543
X48355Y27645
Y2804
X47975Y2804043
X47595Y2804
X47215Y2804043
X46835Y2804
X46455Y2804043
X46075Y2804
X45695Y2804043
X45315Y2804
Y27645
X45695Y2764543
X46075Y27645
X46455Y2764543
X46835Y27645
Y2725
X46455Y2725043
X46075Y2725
X45695Y2725043
X45315Y2725
Y26855
X45695Y2685543
X46075Y26855
X46455Y2685543
X46835Y26855
X44935Y2685543
X44555Y26855
X44175Y2685543
X43795Y26855
Y2725
X44175Y2725043
X44555Y2725
X44935Y2725043
Y2764543
X44555Y27645
X44175Y2764543
X43795Y27645
Y2804
X44175Y2804043
X44555Y2804
X44935Y2804043
X43415
X43035Y2804
X42655Y2804043
Y2764543
X43035Y27645
X43415Y2764543
Y2725043
X43035Y2725
X42655Y2725043
Y2685543
X43035Y26855
X43415Y2685543
Y2843543
X43035Y28435
X42655Y2843543
Y2883043
X43035Y2883
X43415Y2883043
Y2922543
X43035Y29225
X42655Y2922543
Y2962043
X43035Y2962
X43415Y2962043
X43795Y2962
X44175Y2962043
X44555Y2962
X44935Y2962043
Y2922543
X44555Y29225
X44175Y2922543
X43795Y29225
Y2883
X44175Y2883043
X44555Y2883
X44935Y2883043
Y2843543
X44555Y28435
X44175Y2843543
X43795Y28435
X45315
X45695Y2843543
X46075Y28435
X46455Y2843543
X46835Y28435
Y2883
X46455Y2883043
X46075Y2883
X45695Y2883043
X45315Y2883
Y29225
X45695Y2922543
X46075Y29225
X46455Y2922543
X46835Y29225
Y2962
X46455Y2962043
X46075Y2962
X45695Y2962043
X45315Y2962
X47215Y2962043
X47595Y2962
X47975Y2962043
X48355Y2962
Y29225
X47975Y2922543
X47595Y29225
X47215Y2922543
Y2883043
X47595Y2883
X47975Y2883043
X48355Y2883
Y28435
X47975Y2843543
X47595Y28435
X47215Y2843543
Y3001543
X47595Y30015
X47975Y3001543
X48355Y30015
Y3041
X47975Y3041043
X47595Y3041
X47215Y3041043
Y3080543
X47595Y30805
X47975Y3080543
X48355Y30805
Y312
X47975Y3120043
X47595Y312
X47215Y3120043
X46835Y312
X46455Y3120043
X46075Y312
X45695Y3120043
X45315Y312
Y30805
X45695Y3080543
X46075Y30805
X46455Y3080543
X46835Y30805
Y3041
X46455Y3041043
X46075Y3041
X45695Y3041043
X45315Y3041
Y30015
X45695Y3001543
X46075Y30015
X46455Y3001543
X46835Y30015
X44935Y3001543
X44555Y30015
X44175Y3001543
X43795Y30015
Y3041
X44175Y3041043
X44555Y3041
X44935Y3041043
Y3080543
X44555Y30805
X44175Y3080543
X43795Y30805
Y312
X44175Y3120043
X44555Y312
X44935Y3120043
X43415
X43035Y312
X42655Y3120043
Y3080543
X43035Y30805
X43415Y3080543
Y3041043
X43035Y3041
X42655Y3041043
Y3001543
X43035Y30015
X43415Y3001543
Y3159543
X43035Y31595
X42655Y3159543
Y3199043
X43035Y3199
X43415Y3199043
Y3238543
X43035Y32385
X42655Y3238543
Y3278043
X43035Y3278
X43415Y3278043
X43795Y3278
X44175Y3278043
X44555Y3278
X44935Y3278043
Y3238543
X44555Y32385
X44175Y3238543
X43795Y32385
Y3199
X44175Y3199043
X44555Y3199
X44935Y3199043
Y3159543
X44555Y31595
X44175Y3159543
X43795Y31595
X45315
X45695Y3159543
X46075Y31595
X46455Y3159543
X46835Y31595
Y3199
X46455Y3199043
X46075Y3199
X45695Y3199043
X45315Y3199
Y32385
X45695Y3238543
X46075Y32385
X46455Y3238543
X46835Y32385
Y3278
X46455Y3278043
X46075Y3278
X45695Y3278043
X45315Y3278
X47215Y3278043
X47595Y3278
X47975Y3278043
X48355Y3278
Y32385
X47975Y3238543
X47595Y32385
X47215Y3238543
Y3199043
X47595Y3199
X47975Y3199043
X48355Y3199
Y31595
X47975Y3159543
X47595Y31595
X47215Y3159543
Y3317543
X47595Y33175
X47975Y3317543
X48355Y33175
Y3357
X47975Y3357043
X47595Y3357
X47215Y3357043
Y3396543
X47595Y33965
X47975Y3396543
X48355Y33965
Y3436
X47975Y3436043
X47595Y3436
X47215Y3436043
X46835Y3436
X46455Y3436043
X46075Y3436
X45695Y3436043
X45315Y3436
Y33965
X45695Y3396543
X46075Y33965
X46455Y3396543
X46835Y33965
Y3357
X46455Y3357043
X46075Y3357
X45695Y3357043
X45315Y3357
Y33175
X45695Y3317543
X46075Y33175
X46455Y3317543
X46835Y33175
X44935Y3317543
X44555Y33175
X44175Y3317543
X43795Y33175
Y3357
X44175Y3357043
X44555Y3357
X44935Y3357043
Y3396543
X44555Y33965
X44175Y3396543
X43795Y33965
Y3436
X44175Y3436043
X44555Y3436
X44935Y3436043
X43415
X43035Y3436
X42655Y3436043
Y3396543
X43035Y33965
X43415Y3396543
Y3357043
X43035Y3357
X42655Y3357043
Y3317543
X43035Y33175
X43415Y3317543
Y3475543
X43035Y34755
X42655Y3475543
Y3515043
X43035Y3515
X43415Y3515043
Y3554543
X43035Y35545
X42655Y3554543
X43795Y35545
X44175Y3554543
X44555Y35545
X44935Y3554543
Y3515043
X44555Y3515
X44175Y3515043
X43795Y3515
Y34755
X44175Y3475543
X44555Y34755
X44935Y3475543
X45315Y34755
X45695Y3475543
X46075Y34755
X46455Y3475543
X46835Y34755
Y3515
X46455Y3515043
X46075Y3515
X45695Y3515043
X45315Y3515
Y35545
X45695Y3554543
X46075Y35545
X46455Y3554543
X46835Y35545
X47215Y3554543
X47595Y35545
X47975Y3554543
X48355Y35545
Y3515
X47975Y3515043
X47595Y3515
X47215Y3515043
Y3475543
X47595Y34755
X47975Y3475543
X48355Y34755
Y3594
X47975Y3594043
X47595Y3594
X47215Y3594043
Y3633543
X47595Y36335
X47975Y3633543
X48355Y36335
Y3673
X47975Y3673043
X47595Y3673
X47215Y3673043
Y3712543
X47595Y37125
X47975Y3712543
X48355Y37125
X46835
X46455Y3712543
X46075Y37125
X45695Y3712543
X45315Y37125
Y3673
X45695Y3673043
X46075Y3673
X46455Y3673043
X46835Y3673
Y36335
X46455Y3633543
X46075Y36335
X45695Y3633543
X45315Y36335
Y3594
X45695Y3594043
X46075Y3594
X46455Y3594043
X46835Y3594
X44935Y3594043
X44555Y3594
X44175Y3594043
X43795Y3594
Y36335
X44175Y3633543
X44555Y36335
X44935Y3633543
Y3673043
X44555Y3673
X44175Y3673043
X43795Y3673
Y37125
X44175Y3712543
X44555Y37125
X44935Y3712543
X43415
X43035Y37125
X42655Y3712543
Y3673043
X43035Y3673
X43415Y3673043
Y3633543
X43035Y36335
X42655Y3633543
Y3594043
X43035Y3594
X43415Y3594043
Y3752043
X43035Y3752
X42655Y3752043
Y3791587
X43035Y37915
X43415Y3791587
Y3831087
X43035Y3831
X42655Y3831087
Y3870587
X43035Y38705
X43415Y3870587
X43795Y38705
X44175Y3870587
X44555Y38705
X44935Y3870587
Y3831087
X44555Y3831
X44175Y3831087
X43795Y3831
Y37915
X44175Y3791587
X44555Y37915
X44935Y3791587
Y3752043
X44555Y3752
X44175Y3752043
X43795Y3752
X45315
X45695Y3752043
X46075Y3752
X46455Y3752043
X46835Y3752
Y37915
X46455Y3791587
X46075Y37915
X45695Y3791587
X45315Y37915
Y3831
X45695Y3831087
X46075Y3831
X46455Y3831087
X46835Y3831
Y38705
X46455Y3870587
X46075Y38705
X45695Y3870587
X45315Y38705
X47215Y3870587
X47595Y38705
X47975Y3870587
X48355Y38705
Y3831
X47975Y3831087
X47595Y3831
X47215Y3831087
Y3791587
X47595Y37915
X47975Y3791587
X48355Y37915
Y3752
X47975Y3752043
X47595Y3752
X47215Y3752043
Y3910086
X47595Y391
X47975Y3910086
X48355Y391
Y39495
X47975Y3949586
X47595Y39495
X47215Y3949586
Y3989087
X47595Y3989
X47975Y3989087
X48355Y3989
Y40285
X47975Y4028587
X47595Y40285
X47215Y4028587
X46835Y40285
X46455Y4028587
X46075Y40285
X45695Y4028587
X45315Y40285
Y3989
X45695Y3989087
X46075Y3989
X46455Y3989087
X46835Y3989
Y39495
X46455Y3949586
X46075Y39495
X45695Y3949586
X45315Y39495
Y391
X45695Y3910086
X46075Y391
X46455Y3910086
X46835Y391
X44935Y3910086
X44555Y391
X44175Y3910086
X43795Y391
Y39495
X44175Y3949586
X44555Y39495
X44935Y3949586
Y3989087
X44555Y3989
X44175Y3989087
X43795Y3989
Y40285
X44175Y4028587
X44555Y40285
X44935Y4028587
X43415
X43035Y40285
X42655Y4028587
Y3989087
X43035Y3989
X43415Y3989087
Y3949586
X43035Y39495
X42655Y3949586
Y3910086
X43035Y391
X43415Y3910086
Y4068087
X43035Y4068
X42655Y4068087
X43795Y4068
X44175Y4068087
X44555Y4068
X44935Y4068087
X45315Y4068
X45695Y4068087
X46075Y4068
X46455Y4068087
X46835Y4068
X47215Y4068087
X47595Y4068
X47975Y4068087
X48355Y4068
T03
X43415Y2641043
X43035Y2641
X42655Y2641043
Y2601543
X43035Y26015
X43415Y2601543
Y2562043
X43035Y2562
X42655Y2562043
Y2522543
X43035Y25225
X43415Y2522543
X43795Y25225
X44175Y2522543
X44555Y25225
X44935Y2522543
Y2562043
X44555Y2562
X44175Y2562043
X43795Y2562
Y26015
X44175Y2601543
X44555Y26015
X44935Y2601543
Y2641043
X44555Y2641
X44175Y2641043
X43795Y2641
X45315
X45695Y2641043
X46075Y2641
X46455Y2641043
X46835Y2641
Y26015
X46455Y2601543
X46075Y26015
X45695Y2601543
X45315Y26015
Y2562
X45695Y2562043
X46075Y2562
X46455Y2562043
X46835Y2562
Y25225
X46455Y2522543
X46075Y25225
X45695Y2522543
X45315Y25225
X47215Y2522543
X47595Y25225
X47975Y2522543
X48355Y25225
Y2562
X47975Y2562043
X47595Y2562
X47215Y2562043
Y2601543
X47595Y26015
X47975Y2601543
X48355Y26015
Y2641
X47975Y2641043
X47595Y2641
X47215Y2641043
Y2680543
X47595Y26805
X47975Y2680543
X48355Y26805
Y272
X47975Y2720043
X47595Y272
X47215Y2720043
Y2759543
X47595Y27595
X47975Y2759543
X48355Y27595
Y2799
X47975Y2799043
X47595Y2799
X47215Y2799043
X46835Y2799
X46455Y2799043
X46075Y2799
X45695Y2799043
X45315Y2799
Y27595
X45695Y2759543
X46075Y27595
X46455Y2759543
X46835Y27595
Y272
X46455Y2720043
X46075Y272
X45695Y2720043
X45315Y272
Y26805
X45695Y2680543
X46075Y26805
X46455Y2680543
X46835Y26805
X44935Y2680543
X44555Y26805
X44175Y2680543
X43795Y26805
Y272
X44175Y2720043
X44555Y272
X44935Y2720043
Y2759543
X44555Y27595
X44175Y2759543
X43795Y27595
Y2799
X44175Y2799043
X44555Y2799
X44935Y2799043
X43415
X43035Y2799
X42655Y2799043
Y2759543
X43035Y27595
X43415Y2759543
Y2720043
X43035Y272
X42655Y2720043
Y2680543
X43035Y26805
X43415Y2680543
Y2838543
X43035Y28385
X42655Y2838543
Y2878043
X43035Y2878
X43415Y2878043
Y2917543
X43035Y29175
X42655Y2917543
Y2957043
X43035Y2957
X43415Y2957043
X43795Y2957
X44175Y2957043
X44555Y2957
X44935Y2957043
Y2917543
X44555Y29175
X44175Y2917543
X43795Y29175
Y2878
X44175Y2878043
X44555Y2878
X44935Y2878043
Y2838543
X44555Y28385
X44175Y2838543
X43795Y28385
X45315
X45695Y2838543
X46075Y28385
X46455Y2838543
X46835Y28385
Y2878
X46455Y2878043
X46075Y2878
X45695Y2878043
X45315Y2878
Y29175
X45695Y2917543
X46075Y29175
X46455Y2917543
X46835Y29175
Y2957
X46455Y2957043
X46075Y2957
X45695Y2957043
X45315Y2957
X47215Y2957043
X47595Y2957
X47975Y2957043
X48355Y2957
Y29175
X47975Y2917543
X47595Y29175
X47215Y2917543
Y2878043
X47595Y2878
X47975Y2878043
X48355Y2878
Y28385
X47975Y2838543
X47595Y28385
X47215Y2838543
Y2996543
X47595Y29965
X47975Y2996543
X48355Y29965
Y3036
X47975Y3036043
X47595Y3036
X47215Y3036043
Y3075543
X47595Y30755
X47975Y3075543
X48355Y30755
Y3115
X47975Y3115043
X47595Y3115
X47215Y3115043
X46835Y3115
X46455Y3115043
X46075Y3115
X45695Y3115043
X45315Y3115
Y30755
X45695Y3075543
X46075Y30755
X46455Y3075543
X46835Y30755
Y3036
X46455Y3036043
X46075Y3036
X45695Y3036043
X45315Y3036
Y29965
X45695Y2996543
X46075Y29965
X46455Y2996543
X46835Y29965
X44935Y2996543
X44555Y29965
X44175Y2996543
X43795Y29965
Y3036
X44175Y3036043
X44555Y3036
X44935Y3036043
Y3075543
X44555Y30755
X44175Y3075543
X43795Y30755
Y3115
X44175Y3115043
X44555Y3115
X44935Y3115043
X43415
X43035Y3115
X42655Y3115043
Y3075543
X43035Y30755
X43415Y3075543
Y3036043
X43035Y3036
X42655Y3036043
Y2996543
X43035Y29965
X43415Y2996543
Y3154543
X43035Y31545
X42655Y3154543
Y3194043
X43035Y3194
X43415Y3194043
Y3233543
X43035Y32335
X42655Y3233543
Y3273043
X43035Y3273
X43415Y3273043
X43795Y3273
X44175Y3273043
X44555Y3273
X44935Y3273043
Y3233543
X44555Y32335
X44175Y3233543
X43795Y32335
Y3194
X44175Y3194043
X44555Y3194
X44935Y3194043
Y3154543
X44555Y31545
X44175Y3154543
X43795Y31545
X45315
X45695Y3154543
X46075Y31545
X46455Y3154543
X46835Y31545
Y3194
X46455Y3194043
X46075Y3194
X45695Y3194043
X45315Y3194
Y32335
X45695Y3233543
X46075Y32335
X46455Y3233543
X46835Y32335
Y3273
X46455Y3273043
X46075Y3273
X45695Y3273043
X45315Y3273
X47215Y3273043
X47595Y3273
X47975Y3273043
X48355Y3273
Y32335
X47975Y3233543
X47595Y32335
X47215Y3233543
Y3194043
X47595Y3194
X47975Y3194043
X48355Y3194
Y31545
X47975Y3154543
X47595Y31545
X47215Y3154543
Y3312543
X47595Y33125
X47975Y3312543
X48355Y33125
Y3352
X47975Y3352043
X47595Y3352
X47215Y3352043
Y3391543
X47595Y33915
X47975Y3391543
X48355Y33915
Y3431
X47975Y3431043
X47595Y3431
X47215Y3431043
X46835Y3431
X46455Y3431043
X46075Y3431
X45695Y3431043
X45315Y3431
Y33915
X45695Y3391543
X46075Y33915
X46455Y3391543
X46835Y33915
Y3352
X46455Y3352043
X46075Y3352
X45695Y3352043
X45315Y3352
Y33125
X45695Y3312543
X46075Y33125
X46455Y3312543
X46835Y33125
X44935Y3312543
X44555Y33125
X44175Y3312543
X43795Y33125
Y3352
X44175Y3352043
X44555Y3352
X44935Y3352043
Y3391543
X44555Y33915
X44175Y3391543
X43795Y33915
Y3431
X44175Y3431043
X44555Y3431
X44935Y3431043
X43415
X43035Y3431
X42655Y3431043
Y3391543
X43035Y33915
X43415Y3391543
Y3352043
X43035Y3352
X42655Y3352043
Y3312543
X43035Y33125
X43415Y3312543
Y3470543
X43035Y34705
X42655Y3470543
Y3510043
X43035Y351
X43415Y3510043
Y3549543
X43035Y35495
X42655Y3549543
Y3589043
X43035Y3589
X43415Y3589043
X43795Y3589
X44175Y3589043
X44555Y3589
X44935Y3589043
Y3549543
X44555Y35495
X44175Y3549543
X43795Y35495
Y351
X44175Y3510043
X44555Y351
X44935Y3510043
Y3470543
X44555Y34705
X44175Y3470543
X43795Y34705
X45315
X45695Y3470543
X46075Y34705
X46455Y3470543
X46835Y34705
Y351
X46455Y3510043
X46075Y351
X45695Y3510043
X45315Y351
Y35495
X45695Y3549543
X46075Y35495
X46455Y3549543
X46835Y35495
Y3589
X46455Y3589043
X46075Y3589
X45695Y3589043
X45315Y3589
X47215Y3589043
X47595Y3589
X47975Y3589043
X48355Y3589
Y35495
X47975Y3549543
X47595Y35495
X47215Y3549543
Y3510043
X47595Y351
X47975Y3510043
X48355Y351
Y34705
X47975Y3470543
X47595Y34705
X47215Y3470543
Y3628543
X47595Y36285
X47975Y3628543
X48355Y36285
Y3668
X47975Y3668043
X47595Y3668
X47215Y3668043
Y3707543
X47595Y37075
X47975Y3707543
X48355Y37075
Y3747
X47975Y3747043
X47595Y3747
X47215Y3747043
X46835Y3747
X46455Y3747043
X46075Y3747
X45695Y3747043
X45315Y3747
Y37075
X45695Y3707543
X46075Y37075
X46455Y3707543
X46835Y37075
Y3668
X46455Y3668043
X46075Y3668
X45695Y3668043
X45315Y3668
Y36285
X45695Y3628543
X46075Y36285
X46455Y3628543
X46835Y36285
X44935Y3628543
X44555Y36285
X44175Y3628543
X43795Y36285
Y3668
X44175Y3668043
X44555Y3668
X44935Y3668043
Y3707543
X44555Y37075
X44175Y3707543
X43795Y37075
Y3747
X44175Y3747043
X44555Y3747
X44935Y3747043
X43415
X43035Y3747
X42655Y3747043
Y3707543
X43035Y37075
X43415Y3707543
Y3668043
X43035Y3668
X42655Y3668043
Y3628543
X43035Y36285
X43415Y3628543
Y3786587
X43035Y37865
X42655Y3786587
Y3826086
X43035Y3826
X43415Y3826086
Y3865586
X43035Y38655
X42655Y3865586
Y3905087
X43035Y3905
X43415Y3905087
X43795Y3905
X44175Y3905087
X44555Y3905
X44935Y3905087
Y3865586
X44555Y38655
X44175Y3865586
X43795Y38655
Y3826
X44175Y3826086
X44555Y3826
X44935Y3826086
Y3786587
X44555Y37865
X44175Y3786587
X43795Y37865
X45315
X45695Y3786587
X46075Y37865
X46455Y3786587
X46835Y37865
Y3826
X46455Y3826086
X46075Y3826
X45695Y3826086
X45315Y3826
Y38655
X45695Y3865586
X46075Y38655
X46455Y3865586
X46835Y38655
Y3905
X46455Y3905087
X46075Y3905
X45695Y3905087
X45315Y3905
X47215Y3905087
X47595Y3905
X47975Y3905087
X48355Y3905
Y38655
X47975Y3865586
X47595Y38655
X47215Y3865586
Y3826086
X47595Y3826
X47975Y3826086
X48355Y3826
Y37865
X47975Y3786587
X47595Y37865
X47215Y3786587
Y3944587
X47595Y39445
X47975Y3944587
X48355Y39445
Y3984
X47975Y3984087
X47595Y3984
X47215Y3984087
Y4023587
X47595Y40235
X47975Y4023587
X48355Y40235
X46835
X46455Y4023587
X46075Y40235
X45695Y4023587
X45315Y40235
Y3984
X45695Y3984087
X46075Y3984
X46455Y3984087
X46835Y3984
Y39445
X46455Y3944587
X46075Y39445
X45695Y3944587
X45315Y39445
X44935Y3944587
X44555Y39445
X44175Y3944587
X43795Y39445
Y3984
X44175Y3984087
X44555Y3984
X44935Y3984087
Y4023587
X44555Y40235
X44175Y4023587
X43795Y40235
X43415Y4023587
X43035Y40235
X42655Y4023587
Y3984087
X43035Y3984
X43415Y3984087
Y3944587
X43035Y39445
X42655Y3944587
Y4063087
X43035Y4063
X43415Y4063087
X43795Y4063
X44175Y4063087
X44555Y4063
X44935Y4063087
X45315Y4063
X45695Y4063087
X46075Y4063
X46455Y4063087
X46835Y4063
X47215Y4063087
X47595Y4063
X47975Y4063087
X48355Y4063
T04
X480774Y21423
X4743944Y2136844
X47112Y21229
X46566Y21185
X46147
Y2124
X46098Y21345
X45928Y2155
X45877Y2159
X46025Y21709
X45755Y2175
X45651Y2127484
X4546839Y21447
X44754Y21259
X4442Y2138
X4434207Y21365
X4406049Y2140301
X4385372Y21325
X43758Y21226
X43863Y2187
X44214
X4370798Y21786
X43625Y2173
X43541Y21709
X43528Y21801
X4345831Y2184531
X43527Y21537
X43645Y21577
X43487Y21365
X42978
X4293081Y21709
X42598Y22112
X42501Y22209
X43577Y22186
X43643Y2216529
X43705Y22329
X43597Y2234971
X43525Y22441
X43733Y22438
X43653Y2259
X43565Y2268
X43449Y22637
X43713Y22718
X43565Y2294
X4337084
X4304784Y229
X43592Y2198
X43683Y2196
X43755Y21973
X4393Y2215907
X44083Y21913
X4412Y22941
X44414Y2289034
X4541284Y23
X45546Y2288484
X45682Y22737
X45879Y22745
X45945Y2285
X45948Y22635
X45793Y2264
X4582Y22441
X45832Y2237
X45923Y2242
X46042Y22289
X45872Y2221
X45903Y2215029
X45935Y21963
X45851Y21939
X46033Y2198
X46093Y21978
X46147Y2191
X4558Y2204
X46395Y2294
X466375Y22983
X46961Y22941
X47244Y22915
X47527Y2294
X4781Y2289959
X48093Y2276
X47727Y22325
X47668Y22345
X47512Y2236471
X47458Y2224
X476Y22179
X476895Y221655
X4756Y22095
X47603Y21938
X47512Y21923
X47462Y2197529
X47244Y22073
X47201Y22195
X47757Y21906
X472Y23695
X47033Y23735
Y23785
X46942Y23701
X46975Y2396
X4693Y24031
X47033Y24027
X4711Y23919
X47058Y2419
X47007Y24245
X47138Y24267
X47263Y246834
X47643
X48023Y24724
X48261Y24151
X4618837Y2465863
X45363Y24681
X44983Y246834
X44578
X44223Y24724
X43932Y24433
X44023Y24268
X43983Y2419
X43958Y24029
X43855Y24031
X44023Y2396
X43958Y2376
X43867Y23769
X43985Y23682
X44035Y23585
X44702Y2402
X4314837Y2465863
T05
X48465Y21815
Y21665
X42385
Y21815
Y21965
Y22325
Y22475
X48465
Y22325
Y21965
Y23585
Y23735
Y23885
Y24205
Y24355
X42385
Y24205
Y23885
Y23735
Y23585
M30
