G04 Layer_Color=255*
%FSLAX25Y25*%
%MOIN*%
G70*
G01*
G75*
%ADD12C,0.08858*%
%ADD13C,0.01800*%
%ADD14C,0.02000*%
%ADD16R,0.03157X0.03827*%
%ADD17R,0.01400X0.05800*%
%ADD18R,0.03150X0.03543*%
%ADD19R,0.01968X0.03150*%
D12*
X4846500Y2388500D02*
D03*
Y2373500D02*
D03*
Y2358500D02*
D03*
X4238500Y2388500D02*
D03*
Y2373500D02*
D03*
Y2358500D02*
D03*
X4846500Y2232500D02*
D03*
Y2247500D02*
D03*
X4238500Y2232500D02*
D03*
Y2247500D02*
D03*
X4846500Y2196500D02*
D03*
Y2181500D02*
D03*
Y2166500D02*
D03*
X4238500Y2196500D02*
D03*
Y2181500D02*
D03*
Y2166500D02*
D03*
X4846500Y2420500D02*
D03*
Y2435500D02*
D03*
X4238500Y2420500D02*
D03*
Y2435500D02*
D03*
D13*
X4265500Y2522543D02*
D03*
Y2562043D02*
D03*
Y2601543D02*
D03*
Y2641043D02*
D03*
Y2680543D02*
D03*
Y2720043D02*
D03*
Y2759543D02*
D03*
Y2799043D02*
D03*
Y2838543D02*
D03*
Y3154543D02*
D03*
Y3470543D02*
D03*
Y3786587D02*
D03*
Y2878043D02*
D03*
Y3194043D02*
D03*
Y3510043D02*
D03*
Y3826086D02*
D03*
Y2917543D02*
D03*
Y3233543D02*
D03*
Y3549543D02*
D03*
Y3865586D02*
D03*
Y2957043D02*
D03*
Y3273043D02*
D03*
Y3589043D02*
D03*
Y3905087D02*
D03*
Y2996543D02*
D03*
Y3312543D02*
D03*
Y3628543D02*
D03*
Y3944587D02*
D03*
Y3036043D02*
D03*
Y3352043D02*
D03*
Y3668043D02*
D03*
Y3984087D02*
D03*
Y3075543D02*
D03*
Y3391543D02*
D03*
Y3707543D02*
D03*
Y4023587D02*
D03*
Y3115043D02*
D03*
Y3431043D02*
D03*
Y3747043D02*
D03*
Y4063087D02*
D03*
X4303500Y2522500D02*
D03*
Y2562000D02*
D03*
Y2601500D02*
D03*
Y2641000D02*
D03*
Y2680500D02*
D03*
Y2720000D02*
D03*
Y2759500D02*
D03*
Y2799000D02*
D03*
Y2838500D02*
D03*
Y3154500D02*
D03*
Y3470500D02*
D03*
Y3786500D02*
D03*
Y2878000D02*
D03*
Y3194000D02*
D03*
Y3510000D02*
D03*
Y3826000D02*
D03*
Y2917500D02*
D03*
Y3233500D02*
D03*
Y3549500D02*
D03*
Y3865500D02*
D03*
Y2957000D02*
D03*
Y3273000D02*
D03*
Y3589000D02*
D03*
Y3905000D02*
D03*
Y2996500D02*
D03*
Y3312500D02*
D03*
Y3628500D02*
D03*
Y3944500D02*
D03*
Y3036000D02*
D03*
Y3352000D02*
D03*
Y3668000D02*
D03*
Y3984000D02*
D03*
Y3075500D02*
D03*
Y3391500D02*
D03*
Y3707500D02*
D03*
Y4023500D02*
D03*
Y3115000D02*
D03*
Y3431000D02*
D03*
Y3747000D02*
D03*
Y4063000D02*
D03*
X4341500Y2522543D02*
D03*
Y2562043D02*
D03*
Y2601543D02*
D03*
Y2641043D02*
D03*
Y2680543D02*
D03*
Y2720043D02*
D03*
Y2759543D02*
D03*
Y2799043D02*
D03*
Y2838543D02*
D03*
Y3154543D02*
D03*
Y3470543D02*
D03*
Y3786587D02*
D03*
Y2878043D02*
D03*
Y3194043D02*
D03*
Y3510043D02*
D03*
Y3826086D02*
D03*
Y2917543D02*
D03*
Y3233543D02*
D03*
Y3549543D02*
D03*
Y3865586D02*
D03*
Y2957043D02*
D03*
Y3273043D02*
D03*
Y3589043D02*
D03*
Y3905087D02*
D03*
Y2996543D02*
D03*
Y3312543D02*
D03*
Y3628543D02*
D03*
Y3944587D02*
D03*
Y3036043D02*
D03*
Y3352043D02*
D03*
Y3668043D02*
D03*
Y3984087D02*
D03*
Y3075543D02*
D03*
Y3391543D02*
D03*
Y3707543D02*
D03*
Y4023587D02*
D03*
Y3115043D02*
D03*
Y3431043D02*
D03*
Y3747043D02*
D03*
Y4063087D02*
D03*
X4379500Y2522500D02*
D03*
Y2562000D02*
D03*
Y2601500D02*
D03*
Y2641000D02*
D03*
Y2680500D02*
D03*
Y2720000D02*
D03*
Y2759500D02*
D03*
Y2799000D02*
D03*
Y2838500D02*
D03*
Y3154500D02*
D03*
Y3470500D02*
D03*
Y3786500D02*
D03*
Y2878000D02*
D03*
Y3194000D02*
D03*
Y3510000D02*
D03*
Y3826000D02*
D03*
Y2917500D02*
D03*
Y3233500D02*
D03*
Y3549500D02*
D03*
Y3865500D02*
D03*
Y2957000D02*
D03*
Y3273000D02*
D03*
Y3589000D02*
D03*
Y3905000D02*
D03*
Y2996500D02*
D03*
Y3312500D02*
D03*
Y3628500D02*
D03*
Y3944500D02*
D03*
Y3036000D02*
D03*
Y3352000D02*
D03*
Y3668000D02*
D03*
Y3984000D02*
D03*
Y3075500D02*
D03*
Y3391500D02*
D03*
Y3707500D02*
D03*
Y4023500D02*
D03*
Y3115000D02*
D03*
Y3431000D02*
D03*
Y3747000D02*
D03*
Y4063000D02*
D03*
X4417500Y2522543D02*
D03*
Y2562043D02*
D03*
Y2601543D02*
D03*
Y2641043D02*
D03*
Y2680543D02*
D03*
Y2720043D02*
D03*
Y2759543D02*
D03*
Y2799043D02*
D03*
Y2838543D02*
D03*
Y3154543D02*
D03*
Y3470543D02*
D03*
Y3786587D02*
D03*
Y2878043D02*
D03*
Y3194043D02*
D03*
Y3510043D02*
D03*
Y3826086D02*
D03*
Y2917543D02*
D03*
Y3233543D02*
D03*
Y3549543D02*
D03*
Y3865586D02*
D03*
Y2957043D02*
D03*
Y3273043D02*
D03*
Y3589043D02*
D03*
Y3905087D02*
D03*
Y2996543D02*
D03*
Y3312543D02*
D03*
Y3628543D02*
D03*
Y3944587D02*
D03*
Y3036043D02*
D03*
Y3352043D02*
D03*
Y3668043D02*
D03*
Y3984087D02*
D03*
Y3075543D02*
D03*
Y3391543D02*
D03*
Y3707543D02*
D03*
Y4023587D02*
D03*
Y3115043D02*
D03*
Y3431043D02*
D03*
Y3747043D02*
D03*
Y4063087D02*
D03*
X4455500Y2522500D02*
D03*
Y2562000D02*
D03*
Y2601500D02*
D03*
Y2641000D02*
D03*
Y2680500D02*
D03*
Y2720000D02*
D03*
Y2759500D02*
D03*
Y2799000D02*
D03*
Y2838500D02*
D03*
Y3154500D02*
D03*
Y3470500D02*
D03*
Y3786500D02*
D03*
Y2878000D02*
D03*
Y3194000D02*
D03*
Y3510000D02*
D03*
Y3826000D02*
D03*
Y2917500D02*
D03*
Y3233500D02*
D03*
Y3549500D02*
D03*
Y3865500D02*
D03*
Y2957000D02*
D03*
Y3273000D02*
D03*
Y3589000D02*
D03*
Y3905000D02*
D03*
Y2996500D02*
D03*
Y3312500D02*
D03*
Y3628500D02*
D03*
Y3944500D02*
D03*
Y3036000D02*
D03*
Y3352000D02*
D03*
Y3668000D02*
D03*
Y3984000D02*
D03*
Y3075500D02*
D03*
Y3391500D02*
D03*
Y3707500D02*
D03*
Y4023500D02*
D03*
Y3115000D02*
D03*
Y3431000D02*
D03*
Y3747000D02*
D03*
Y4063000D02*
D03*
X4493500Y2522543D02*
D03*
Y2562043D02*
D03*
Y2601543D02*
D03*
Y2641043D02*
D03*
Y2680543D02*
D03*
Y2720043D02*
D03*
Y2759543D02*
D03*
Y2799043D02*
D03*
Y2838543D02*
D03*
Y3154543D02*
D03*
Y3470543D02*
D03*
Y3786587D02*
D03*
Y2878043D02*
D03*
Y3194043D02*
D03*
Y3510043D02*
D03*
Y3826086D02*
D03*
Y2917543D02*
D03*
Y3233543D02*
D03*
Y3549543D02*
D03*
Y3865586D02*
D03*
Y2957043D02*
D03*
Y3273043D02*
D03*
Y3589043D02*
D03*
Y3905087D02*
D03*
Y2996543D02*
D03*
Y3312543D02*
D03*
Y3628543D02*
D03*
Y3944587D02*
D03*
Y3036043D02*
D03*
Y3352043D02*
D03*
Y3668043D02*
D03*
Y3984087D02*
D03*
Y3075543D02*
D03*
Y3391543D02*
D03*
Y3707543D02*
D03*
Y4023587D02*
D03*
Y3115043D02*
D03*
Y3431043D02*
D03*
Y3747043D02*
D03*
Y4063087D02*
D03*
X4531500Y2522500D02*
D03*
Y2562000D02*
D03*
Y2601500D02*
D03*
Y2641000D02*
D03*
Y2680500D02*
D03*
Y2720000D02*
D03*
Y2759500D02*
D03*
Y2799000D02*
D03*
Y2838500D02*
D03*
Y3154500D02*
D03*
Y3470500D02*
D03*
Y3786500D02*
D03*
Y2878000D02*
D03*
Y3194000D02*
D03*
Y3510000D02*
D03*
Y3826000D02*
D03*
Y2917500D02*
D03*
Y3233500D02*
D03*
Y3549500D02*
D03*
Y3865500D02*
D03*
Y2957000D02*
D03*
Y3273000D02*
D03*
Y3589000D02*
D03*
Y3905000D02*
D03*
Y2996500D02*
D03*
Y3312500D02*
D03*
Y3628500D02*
D03*
Y3944500D02*
D03*
Y3036000D02*
D03*
Y3352000D02*
D03*
Y3668000D02*
D03*
Y3984000D02*
D03*
Y3075500D02*
D03*
Y3391500D02*
D03*
Y3707500D02*
D03*
Y4023500D02*
D03*
Y3115000D02*
D03*
Y3431000D02*
D03*
Y3747000D02*
D03*
Y4063000D02*
D03*
X4569500Y2522543D02*
D03*
Y2562043D02*
D03*
Y2601543D02*
D03*
Y2641043D02*
D03*
Y2680543D02*
D03*
Y2720043D02*
D03*
Y2759543D02*
D03*
Y2799043D02*
D03*
Y2838543D02*
D03*
Y3154543D02*
D03*
Y3470543D02*
D03*
Y3786587D02*
D03*
Y2878043D02*
D03*
Y3194043D02*
D03*
Y3510043D02*
D03*
Y3826086D02*
D03*
Y2917543D02*
D03*
Y3233543D02*
D03*
Y3549543D02*
D03*
Y3865586D02*
D03*
Y2957043D02*
D03*
Y3273043D02*
D03*
Y3589043D02*
D03*
Y3905087D02*
D03*
Y2996543D02*
D03*
Y3312543D02*
D03*
Y3628543D02*
D03*
Y3944587D02*
D03*
Y3036043D02*
D03*
Y3352043D02*
D03*
Y3668043D02*
D03*
Y3984087D02*
D03*
Y3075543D02*
D03*
Y3391543D02*
D03*
Y3707543D02*
D03*
Y4023587D02*
D03*
Y3115043D02*
D03*
Y3431043D02*
D03*
Y3747043D02*
D03*
Y4063087D02*
D03*
X4607500Y2522500D02*
D03*
Y2562000D02*
D03*
Y2601500D02*
D03*
Y2641000D02*
D03*
Y2680500D02*
D03*
Y2720000D02*
D03*
Y2759500D02*
D03*
Y2799000D02*
D03*
Y2838500D02*
D03*
Y3154500D02*
D03*
Y3470500D02*
D03*
Y3786500D02*
D03*
Y2878000D02*
D03*
Y3194000D02*
D03*
Y3510000D02*
D03*
Y3826000D02*
D03*
Y2917500D02*
D03*
Y3233500D02*
D03*
Y3549500D02*
D03*
Y3865500D02*
D03*
Y2957000D02*
D03*
Y3273000D02*
D03*
Y3589000D02*
D03*
Y3905000D02*
D03*
Y2996500D02*
D03*
Y3312500D02*
D03*
Y3628500D02*
D03*
Y3944500D02*
D03*
Y3036000D02*
D03*
Y3352000D02*
D03*
Y3668000D02*
D03*
Y3984000D02*
D03*
Y3075500D02*
D03*
Y3391500D02*
D03*
Y3707500D02*
D03*
Y4023500D02*
D03*
Y3115000D02*
D03*
Y3431000D02*
D03*
Y3747000D02*
D03*
Y4063000D02*
D03*
X4645500Y2522543D02*
D03*
Y2562043D02*
D03*
Y2601543D02*
D03*
Y2641043D02*
D03*
Y2680543D02*
D03*
Y2720043D02*
D03*
Y2759543D02*
D03*
Y2799043D02*
D03*
Y2838543D02*
D03*
Y3154543D02*
D03*
Y3470543D02*
D03*
Y3786587D02*
D03*
Y2878043D02*
D03*
Y3194043D02*
D03*
Y3510043D02*
D03*
Y3826086D02*
D03*
Y2917543D02*
D03*
Y3233543D02*
D03*
Y3549543D02*
D03*
Y3865586D02*
D03*
Y2957043D02*
D03*
Y3273043D02*
D03*
Y3589043D02*
D03*
Y3905087D02*
D03*
Y2996543D02*
D03*
Y3312543D02*
D03*
Y3628543D02*
D03*
Y3944587D02*
D03*
Y3036043D02*
D03*
Y3352043D02*
D03*
Y3668043D02*
D03*
Y3984087D02*
D03*
Y3075543D02*
D03*
Y3391543D02*
D03*
Y3707543D02*
D03*
Y4023587D02*
D03*
Y3115043D02*
D03*
Y3431043D02*
D03*
Y3747043D02*
D03*
Y4063087D02*
D03*
X4683500Y2522500D02*
D03*
Y2562000D02*
D03*
Y2601500D02*
D03*
Y2641000D02*
D03*
Y2680500D02*
D03*
Y2720000D02*
D03*
Y2759500D02*
D03*
Y2799000D02*
D03*
Y2838500D02*
D03*
Y3154500D02*
D03*
Y3470500D02*
D03*
Y3786500D02*
D03*
Y2878000D02*
D03*
Y3194000D02*
D03*
Y3510000D02*
D03*
Y3826000D02*
D03*
Y2917500D02*
D03*
Y3233500D02*
D03*
Y3549500D02*
D03*
Y3865500D02*
D03*
Y2957000D02*
D03*
Y3273000D02*
D03*
Y3589000D02*
D03*
Y3905000D02*
D03*
Y2996500D02*
D03*
Y3312500D02*
D03*
Y3628500D02*
D03*
Y3944500D02*
D03*
Y3036000D02*
D03*
Y3352000D02*
D03*
Y3668000D02*
D03*
Y3984000D02*
D03*
Y3075500D02*
D03*
Y3391500D02*
D03*
Y3707500D02*
D03*
Y4023500D02*
D03*
Y3115000D02*
D03*
Y3431000D02*
D03*
Y3747000D02*
D03*
Y4063000D02*
D03*
X4721500Y2522543D02*
D03*
Y2562043D02*
D03*
Y2601543D02*
D03*
Y2641043D02*
D03*
Y2680543D02*
D03*
Y2720043D02*
D03*
Y2759543D02*
D03*
Y2799043D02*
D03*
Y2838543D02*
D03*
Y3154543D02*
D03*
Y3470543D02*
D03*
Y3786587D02*
D03*
Y2878043D02*
D03*
Y3194043D02*
D03*
Y3510043D02*
D03*
Y3826086D02*
D03*
Y2917543D02*
D03*
Y3233543D02*
D03*
Y3549543D02*
D03*
Y3865586D02*
D03*
Y2957043D02*
D03*
Y3273043D02*
D03*
Y3589043D02*
D03*
Y3905087D02*
D03*
Y2996543D02*
D03*
Y3312543D02*
D03*
Y3628543D02*
D03*
Y3944587D02*
D03*
Y3036043D02*
D03*
Y3352043D02*
D03*
Y3668043D02*
D03*
Y3984087D02*
D03*
Y3075543D02*
D03*
Y3391543D02*
D03*
Y3707543D02*
D03*
Y4023587D02*
D03*
Y3115043D02*
D03*
Y3431043D02*
D03*
Y3747043D02*
D03*
Y4063087D02*
D03*
X4759500Y2522500D02*
D03*
Y2562000D02*
D03*
Y2601500D02*
D03*
Y2641000D02*
D03*
Y2680500D02*
D03*
Y2720000D02*
D03*
Y2759500D02*
D03*
Y2799000D02*
D03*
Y2838500D02*
D03*
Y3154500D02*
D03*
Y3470500D02*
D03*
Y3786500D02*
D03*
Y2878000D02*
D03*
Y3194000D02*
D03*
Y3510000D02*
D03*
Y3826000D02*
D03*
Y2917500D02*
D03*
Y3233500D02*
D03*
Y3549500D02*
D03*
Y3865500D02*
D03*
Y2957000D02*
D03*
Y3273000D02*
D03*
Y3589000D02*
D03*
Y3905000D02*
D03*
Y2996500D02*
D03*
Y3312500D02*
D03*
Y3628500D02*
D03*
Y3944500D02*
D03*
Y3036000D02*
D03*
Y3352000D02*
D03*
Y3668000D02*
D03*
Y3984000D02*
D03*
Y3075500D02*
D03*
Y3391500D02*
D03*
Y3707500D02*
D03*
Y4023500D02*
D03*
Y3115000D02*
D03*
Y3431000D02*
D03*
Y3747000D02*
D03*
Y4063000D02*
D03*
X4797500Y2522543D02*
D03*
Y2562043D02*
D03*
Y2601543D02*
D03*
Y2641043D02*
D03*
Y2680543D02*
D03*
Y2720043D02*
D03*
Y2759543D02*
D03*
Y2799043D02*
D03*
Y2838543D02*
D03*
Y3154543D02*
D03*
Y3470543D02*
D03*
Y3786587D02*
D03*
Y2878043D02*
D03*
Y3194043D02*
D03*
Y3510043D02*
D03*
Y3826086D02*
D03*
Y2917543D02*
D03*
Y3233543D02*
D03*
Y3549543D02*
D03*
Y3865586D02*
D03*
Y2957043D02*
D03*
Y3273043D02*
D03*
Y3589043D02*
D03*
Y3905087D02*
D03*
Y2996543D02*
D03*
Y3312543D02*
D03*
Y3628543D02*
D03*
Y3944587D02*
D03*
Y3036043D02*
D03*
Y3352043D02*
D03*
Y3668043D02*
D03*
Y3984087D02*
D03*
Y3075543D02*
D03*
Y3391543D02*
D03*
Y3707543D02*
D03*
Y4023587D02*
D03*
Y3115043D02*
D03*
Y3431043D02*
D03*
Y3747043D02*
D03*
Y4063087D02*
D03*
X4835500Y2522500D02*
D03*
Y2562000D02*
D03*
Y2601500D02*
D03*
Y2641000D02*
D03*
Y2680500D02*
D03*
Y2720000D02*
D03*
Y2759500D02*
D03*
Y2799000D02*
D03*
Y2838500D02*
D03*
Y3154500D02*
D03*
Y3470500D02*
D03*
Y3786500D02*
D03*
Y2878000D02*
D03*
Y3194000D02*
D03*
Y3510000D02*
D03*
Y3826000D02*
D03*
Y2917500D02*
D03*
Y3233500D02*
D03*
Y3549500D02*
D03*
Y3865500D02*
D03*
Y2957000D02*
D03*
Y3273000D02*
D03*
Y3589000D02*
D03*
Y3905000D02*
D03*
Y2996500D02*
D03*
Y3312500D02*
D03*
Y3628500D02*
D03*
Y3944500D02*
D03*
Y3036000D02*
D03*
Y3352000D02*
D03*
Y3668000D02*
D03*
Y3984000D02*
D03*
Y3075500D02*
D03*
Y3391500D02*
D03*
Y3707500D02*
D03*
Y4023500D02*
D03*
Y3115000D02*
D03*
Y3431000D02*
D03*
Y3747000D02*
D03*
Y4063000D02*
D03*
D14*
X4262500Y2491043D02*
D03*
X4265500Y2527543D02*
D03*
X4262500Y2530543D02*
D03*
X4265500Y2567043D02*
D03*
X4262500Y2570043D02*
D03*
X4265500Y2606543D02*
D03*
X4262500Y2609543D02*
D03*
X4265500Y2646043D02*
D03*
X4262500Y2649043D02*
D03*
X4265500Y2685543D02*
D03*
X4262500Y2688543D02*
D03*
X4265500Y2725043D02*
D03*
X4262500Y2728043D02*
D03*
X4265500Y2764543D02*
D03*
X4262500Y2767543D02*
D03*
X4265500Y2804043D02*
D03*
X4262500Y2807043D02*
D03*
X4265500Y2843543D02*
D03*
X4262500Y3123043D02*
D03*
X4265500Y3159543D02*
D03*
X4262500Y3439043D02*
D03*
X4265500Y3475543D02*
D03*
X4262500Y3755087D02*
D03*
X4265500Y3791587D02*
D03*
X4262500Y2846543D02*
D03*
X4265500Y2883043D02*
D03*
X4262500Y3162543D02*
D03*
X4265500Y3199043D02*
D03*
X4262500Y3478543D02*
D03*
X4265500Y3515043D02*
D03*
X4262500Y3794587D02*
D03*
X4265500Y3831087D02*
D03*
X4262500Y2886043D02*
D03*
X4265500Y2922543D02*
D03*
X4262500Y3202043D02*
D03*
X4265500Y3238543D02*
D03*
X4262500Y3518043D02*
D03*
X4265500Y3554543D02*
D03*
X4262500Y3834087D02*
D03*
X4265500Y3870587D02*
D03*
X4262500Y2925543D02*
D03*
X4265500Y2962043D02*
D03*
X4262500Y3241543D02*
D03*
X4265500Y3278043D02*
D03*
X4262500Y3557543D02*
D03*
X4265500Y3594043D02*
D03*
X4262500Y3873587D02*
D03*
X4265500Y3910086D02*
D03*
X4262500Y2965043D02*
D03*
X4265500Y3001543D02*
D03*
X4262500Y3281043D02*
D03*
X4265500Y3317543D02*
D03*
X4262500Y3597043D02*
D03*
X4265500Y3633543D02*
D03*
X4262500Y3913087D02*
D03*
X4265500Y3949586D02*
D03*
X4262500Y3004543D02*
D03*
X4265500Y3041043D02*
D03*
X4262500Y3320543D02*
D03*
X4265500Y3357043D02*
D03*
X4262500Y3636543D02*
D03*
X4265500Y3673043D02*
D03*
X4262500Y3952587D02*
D03*
X4265500Y3989087D02*
D03*
X4262500Y3044043D02*
D03*
X4265500Y3080543D02*
D03*
X4262500Y3360043D02*
D03*
X4265500Y3396543D02*
D03*
X4262500Y3676043D02*
D03*
X4265500Y3712543D02*
D03*
X4262500Y3992086D02*
D03*
X4265500Y4028587D02*
D03*
X4262500Y3083543D02*
D03*
X4265500Y3120043D02*
D03*
X4262500Y3399543D02*
D03*
X4265500Y3436043D02*
D03*
X4262500Y3715543D02*
D03*
X4265500Y3752043D02*
D03*
X4262500Y4031586D02*
D03*
X4265500Y4068087D02*
D03*
X4300500Y2491000D02*
D03*
X4303500Y2527500D02*
D03*
X4300500Y2530500D02*
D03*
X4303500Y2567000D02*
D03*
X4300500Y2570000D02*
D03*
X4303500Y2606500D02*
D03*
X4300500Y2609500D02*
D03*
X4303500Y2646000D02*
D03*
X4300500Y2649000D02*
D03*
X4303500Y2685500D02*
D03*
X4300500Y2688500D02*
D03*
X4303500Y2725000D02*
D03*
X4300500Y2728000D02*
D03*
X4303500Y2764500D02*
D03*
X4300500Y2767500D02*
D03*
X4303500Y2804000D02*
D03*
X4300500Y2807000D02*
D03*
X4303500Y2843500D02*
D03*
X4300500Y3123000D02*
D03*
X4303500Y3159500D02*
D03*
X4300500Y3439000D02*
D03*
X4303500Y3475500D02*
D03*
X4300500Y3755000D02*
D03*
X4303500Y3791500D02*
D03*
X4300500Y2846500D02*
D03*
X4303500Y2883000D02*
D03*
X4300500Y3162500D02*
D03*
X4303500Y3199000D02*
D03*
X4300500Y3478500D02*
D03*
X4303500Y3515000D02*
D03*
X4300500Y3794500D02*
D03*
X4303500Y3831000D02*
D03*
X4300500Y2886000D02*
D03*
X4303500Y2922500D02*
D03*
X4300500Y3202000D02*
D03*
X4303500Y3238500D02*
D03*
X4300500Y3518000D02*
D03*
X4303500Y3554500D02*
D03*
X4300500Y3834000D02*
D03*
X4303500Y3870500D02*
D03*
X4300500Y2925500D02*
D03*
X4303500Y2962000D02*
D03*
X4300500Y3241500D02*
D03*
X4303500Y3278000D02*
D03*
X4300500Y3557500D02*
D03*
X4303500Y3594000D02*
D03*
X4300500Y3873500D02*
D03*
X4303500Y3910000D02*
D03*
X4300500Y2965000D02*
D03*
X4303500Y3001500D02*
D03*
X4300500Y3281000D02*
D03*
X4303500Y3317500D02*
D03*
X4300500Y3597000D02*
D03*
X4303500Y3633500D02*
D03*
X4300500Y3913000D02*
D03*
X4303500Y3949500D02*
D03*
X4300500Y3004500D02*
D03*
X4303500Y3041000D02*
D03*
X4300500Y3320500D02*
D03*
X4303500Y3357000D02*
D03*
X4300500Y3636500D02*
D03*
X4303500Y3673000D02*
D03*
X4300500Y3952500D02*
D03*
X4303500Y3989000D02*
D03*
X4300500Y3044000D02*
D03*
X4303500Y3080500D02*
D03*
X4300500Y3360000D02*
D03*
X4303500Y3396500D02*
D03*
X4300500Y3676000D02*
D03*
X4303500Y3712500D02*
D03*
X4300500Y3992000D02*
D03*
X4303500Y4028500D02*
D03*
X4300500Y3083500D02*
D03*
X4303500Y3120000D02*
D03*
X4300500Y3399500D02*
D03*
X4303500Y3436000D02*
D03*
X4300500Y3715500D02*
D03*
X4303500Y3752000D02*
D03*
X4300500Y4031500D02*
D03*
X4303500Y4068000D02*
D03*
X4338500Y2491043D02*
D03*
X4341500Y2527543D02*
D03*
X4338500Y2530543D02*
D03*
X4341500Y2567043D02*
D03*
X4338500Y2570043D02*
D03*
X4341500Y2606543D02*
D03*
X4338500Y2609543D02*
D03*
X4341500Y2646043D02*
D03*
X4338500Y2649043D02*
D03*
X4341500Y2685543D02*
D03*
X4338500Y2688543D02*
D03*
X4341500Y2725043D02*
D03*
X4338500Y2728043D02*
D03*
X4341500Y2764543D02*
D03*
X4338500Y2767543D02*
D03*
X4341500Y2804043D02*
D03*
X4338500Y2807043D02*
D03*
X4341500Y2843543D02*
D03*
X4338500Y3123043D02*
D03*
X4341500Y3159543D02*
D03*
X4338500Y3439043D02*
D03*
X4341500Y3475543D02*
D03*
X4338500Y3755087D02*
D03*
X4341500Y3791587D02*
D03*
X4338500Y2846543D02*
D03*
X4341500Y2883043D02*
D03*
X4338500Y3162543D02*
D03*
X4341500Y3199043D02*
D03*
X4338500Y3478543D02*
D03*
X4341500Y3515043D02*
D03*
X4338500Y3794587D02*
D03*
X4341500Y3831087D02*
D03*
X4338500Y2886043D02*
D03*
X4341500Y2922543D02*
D03*
X4338500Y3202043D02*
D03*
X4341500Y3238543D02*
D03*
X4338500Y3518043D02*
D03*
X4341500Y3554543D02*
D03*
X4338500Y3834087D02*
D03*
X4341500Y3870587D02*
D03*
X4338500Y2925543D02*
D03*
X4341500Y2962043D02*
D03*
X4338500Y3241543D02*
D03*
X4341500Y3278043D02*
D03*
X4338500Y3557543D02*
D03*
X4341500Y3594043D02*
D03*
X4338500Y3873587D02*
D03*
X4341500Y3910086D02*
D03*
X4338500Y2965043D02*
D03*
X4341500Y3001543D02*
D03*
X4338500Y3281043D02*
D03*
X4341500Y3317543D02*
D03*
X4338500Y3597043D02*
D03*
X4341500Y3633543D02*
D03*
X4338500Y3913087D02*
D03*
X4341500Y3949586D02*
D03*
X4338500Y3004543D02*
D03*
X4341500Y3041043D02*
D03*
X4338500Y3320543D02*
D03*
X4341500Y3357043D02*
D03*
X4338500Y3636543D02*
D03*
X4341500Y3673043D02*
D03*
X4338500Y3952587D02*
D03*
X4341500Y3989087D02*
D03*
X4338500Y3044043D02*
D03*
X4341500Y3080543D02*
D03*
X4338500Y3360043D02*
D03*
X4341500Y3396543D02*
D03*
X4338500Y3676043D02*
D03*
X4341500Y3712543D02*
D03*
X4338500Y3992086D02*
D03*
X4341500Y4028587D02*
D03*
X4338500Y3083543D02*
D03*
X4341500Y3120043D02*
D03*
X4338500Y3399543D02*
D03*
X4341500Y3436043D02*
D03*
X4338500Y3715543D02*
D03*
X4341500Y3752043D02*
D03*
X4338500Y4031586D02*
D03*
X4341500Y4068087D02*
D03*
X4376500Y2491000D02*
D03*
X4379500Y2527500D02*
D03*
X4376500Y2530500D02*
D03*
X4379500Y2567000D02*
D03*
X4376500Y2570000D02*
D03*
X4379500Y2606500D02*
D03*
X4376500Y2609500D02*
D03*
X4379500Y2646000D02*
D03*
X4376500Y2649000D02*
D03*
X4379500Y2685500D02*
D03*
X4376500Y2688500D02*
D03*
X4379500Y2725000D02*
D03*
X4376500Y2728000D02*
D03*
X4379500Y2764500D02*
D03*
X4376500Y2767500D02*
D03*
X4379500Y2804000D02*
D03*
X4376500Y2807000D02*
D03*
X4379500Y2843500D02*
D03*
X4376500Y3123000D02*
D03*
X4379500Y3159500D02*
D03*
X4376500Y3439000D02*
D03*
X4379500Y3475500D02*
D03*
X4376500Y3755000D02*
D03*
X4379500Y3791500D02*
D03*
X4376500Y2846500D02*
D03*
X4379500Y2883000D02*
D03*
X4376500Y3162500D02*
D03*
X4379500Y3199000D02*
D03*
X4376500Y3478500D02*
D03*
X4379500Y3515000D02*
D03*
X4376500Y3794500D02*
D03*
X4379500Y3831000D02*
D03*
X4376500Y2886000D02*
D03*
X4379500Y2922500D02*
D03*
X4376500Y3202000D02*
D03*
X4379500Y3238500D02*
D03*
X4376500Y3518000D02*
D03*
X4379500Y3554500D02*
D03*
X4376500Y3834000D02*
D03*
X4379500Y3870500D02*
D03*
X4376500Y2925500D02*
D03*
X4379500Y2962000D02*
D03*
X4376500Y3241500D02*
D03*
X4379500Y3278000D02*
D03*
X4376500Y3557500D02*
D03*
X4379500Y3594000D02*
D03*
X4376500Y3873500D02*
D03*
X4379500Y3910000D02*
D03*
X4376500Y2965000D02*
D03*
X4379500Y3001500D02*
D03*
X4376500Y3281000D02*
D03*
X4379500Y3317500D02*
D03*
X4376500Y3597000D02*
D03*
X4379500Y3633500D02*
D03*
X4376500Y3913000D02*
D03*
X4379500Y3949500D02*
D03*
X4376500Y3004500D02*
D03*
X4379500Y3041000D02*
D03*
X4376500Y3320500D02*
D03*
X4379500Y3357000D02*
D03*
X4376500Y3636500D02*
D03*
X4379500Y3673000D02*
D03*
X4376500Y3952500D02*
D03*
X4379500Y3989000D02*
D03*
X4376500Y3044000D02*
D03*
X4379500Y3080500D02*
D03*
X4376500Y3360000D02*
D03*
X4379500Y3396500D02*
D03*
X4376500Y3676000D02*
D03*
X4379500Y3712500D02*
D03*
X4376500Y3992000D02*
D03*
X4379500Y4028500D02*
D03*
X4376500Y3083500D02*
D03*
X4379500Y3120000D02*
D03*
X4376500Y3399500D02*
D03*
X4379500Y3436000D02*
D03*
X4376500Y3715500D02*
D03*
X4379500Y3752000D02*
D03*
X4376500Y4031500D02*
D03*
X4379500Y4068000D02*
D03*
X4414500Y2491043D02*
D03*
X4417500Y2527543D02*
D03*
X4414500Y2530543D02*
D03*
X4417500Y2567043D02*
D03*
X4414500Y2570043D02*
D03*
X4417500Y2606543D02*
D03*
X4414500Y2609543D02*
D03*
X4417500Y2646043D02*
D03*
X4414500Y2649043D02*
D03*
X4417500Y2685543D02*
D03*
X4414500Y2688543D02*
D03*
X4417500Y2725043D02*
D03*
X4414500Y2728043D02*
D03*
X4417500Y2764543D02*
D03*
X4414500Y2767543D02*
D03*
X4417500Y2804043D02*
D03*
X4414500Y2807043D02*
D03*
X4417500Y2843543D02*
D03*
X4414500Y3123043D02*
D03*
X4417500Y3159543D02*
D03*
X4414500Y3439043D02*
D03*
X4417500Y3475543D02*
D03*
X4414500Y3755087D02*
D03*
X4417500Y3791587D02*
D03*
X4414500Y2846543D02*
D03*
X4417500Y2883043D02*
D03*
X4414500Y3162543D02*
D03*
X4417500Y3199043D02*
D03*
X4414500Y3478543D02*
D03*
X4417500Y3515043D02*
D03*
X4414500Y3794587D02*
D03*
X4417500Y3831087D02*
D03*
X4414500Y2886043D02*
D03*
X4417500Y2922543D02*
D03*
X4414500Y3202043D02*
D03*
X4417500Y3238543D02*
D03*
X4414500Y3518043D02*
D03*
X4417500Y3554543D02*
D03*
X4414500Y3834087D02*
D03*
X4417500Y3870587D02*
D03*
X4414500Y2925543D02*
D03*
X4417500Y2962043D02*
D03*
X4414500Y3241543D02*
D03*
X4417500Y3278043D02*
D03*
X4414500Y3557543D02*
D03*
X4417500Y3594043D02*
D03*
X4414500Y3873587D02*
D03*
X4417500Y3910086D02*
D03*
X4414500Y2965043D02*
D03*
X4417500Y3001543D02*
D03*
X4414500Y3281043D02*
D03*
X4417500Y3317543D02*
D03*
X4414500Y3597043D02*
D03*
X4417500Y3633543D02*
D03*
X4414500Y3913087D02*
D03*
X4417500Y3949586D02*
D03*
X4414500Y3004543D02*
D03*
X4417500Y3041043D02*
D03*
X4414500Y3320543D02*
D03*
X4417500Y3357043D02*
D03*
X4414500Y3636543D02*
D03*
X4417500Y3673043D02*
D03*
X4414500Y3952587D02*
D03*
X4417500Y3989087D02*
D03*
X4414500Y3044043D02*
D03*
X4417500Y3080543D02*
D03*
X4414500Y3360043D02*
D03*
X4417500Y3396543D02*
D03*
X4414500Y3676043D02*
D03*
X4417500Y3712543D02*
D03*
X4414500Y3992086D02*
D03*
X4417500Y4028587D02*
D03*
X4414500Y3083543D02*
D03*
X4417500Y3120043D02*
D03*
X4414500Y3399543D02*
D03*
X4417500Y3436043D02*
D03*
X4414500Y3715543D02*
D03*
X4417500Y3752043D02*
D03*
X4414500Y4031586D02*
D03*
X4417500Y4068087D02*
D03*
X4452500Y2491000D02*
D03*
X4455500Y2527500D02*
D03*
X4452500Y2530500D02*
D03*
X4455500Y2567000D02*
D03*
X4452500Y2570000D02*
D03*
X4455500Y2606500D02*
D03*
X4452500Y2609500D02*
D03*
X4455500Y2646000D02*
D03*
X4452500Y2649000D02*
D03*
X4455500Y2685500D02*
D03*
X4452500Y2688500D02*
D03*
X4455500Y2725000D02*
D03*
X4452500Y2728000D02*
D03*
X4455500Y2764500D02*
D03*
X4452500Y2767500D02*
D03*
X4455500Y2804000D02*
D03*
X4452500Y2807000D02*
D03*
X4455500Y2843500D02*
D03*
X4452500Y3123000D02*
D03*
X4455500Y3159500D02*
D03*
X4452500Y3439000D02*
D03*
X4455500Y3475500D02*
D03*
X4452500Y3755000D02*
D03*
X4455500Y3791500D02*
D03*
X4452500Y2846500D02*
D03*
X4455500Y2883000D02*
D03*
X4452500Y3162500D02*
D03*
X4455500Y3199000D02*
D03*
X4452500Y3478500D02*
D03*
X4455500Y3515000D02*
D03*
X4452500Y3794500D02*
D03*
X4455500Y3831000D02*
D03*
X4452500Y2886000D02*
D03*
X4455500Y2922500D02*
D03*
X4452500Y3202000D02*
D03*
X4455500Y3238500D02*
D03*
X4452500Y3518000D02*
D03*
X4455500Y3554500D02*
D03*
X4452500Y3834000D02*
D03*
X4455500Y3870500D02*
D03*
X4452500Y2925500D02*
D03*
X4455500Y2962000D02*
D03*
X4452500Y3241500D02*
D03*
X4455500Y3278000D02*
D03*
X4452500Y3557500D02*
D03*
X4455500Y3594000D02*
D03*
X4452500Y3873500D02*
D03*
X4455500Y3910000D02*
D03*
X4452500Y2965000D02*
D03*
X4455500Y3001500D02*
D03*
X4452500Y3281000D02*
D03*
X4455500Y3317500D02*
D03*
X4452500Y3597000D02*
D03*
X4455500Y3633500D02*
D03*
X4452500Y3913000D02*
D03*
X4455500Y3949500D02*
D03*
X4452500Y3004500D02*
D03*
X4455500Y3041000D02*
D03*
X4452500Y3320500D02*
D03*
X4455500Y3357000D02*
D03*
X4452500Y3636500D02*
D03*
X4455500Y3673000D02*
D03*
X4452500Y3952500D02*
D03*
X4455500Y3989000D02*
D03*
X4452500Y3044000D02*
D03*
X4455500Y3080500D02*
D03*
X4452500Y3360000D02*
D03*
X4455500Y3396500D02*
D03*
X4452500Y3676000D02*
D03*
X4455500Y3712500D02*
D03*
X4452500Y3992000D02*
D03*
X4455500Y4028500D02*
D03*
X4452500Y3083500D02*
D03*
X4455500Y3120000D02*
D03*
X4452500Y3399500D02*
D03*
X4455500Y3436000D02*
D03*
X4452500Y3715500D02*
D03*
X4455500Y3752000D02*
D03*
X4452500Y4031500D02*
D03*
X4455500Y4068000D02*
D03*
X4490500Y2491043D02*
D03*
X4493500Y2527543D02*
D03*
X4490500Y2530543D02*
D03*
X4493500Y2567043D02*
D03*
X4490500Y2570043D02*
D03*
X4493500Y2606543D02*
D03*
X4490500Y2609543D02*
D03*
X4493500Y2646043D02*
D03*
X4490500Y2649043D02*
D03*
X4493500Y2685543D02*
D03*
X4490500Y2688543D02*
D03*
X4493500Y2725043D02*
D03*
X4490500Y2728043D02*
D03*
X4493500Y2764543D02*
D03*
X4490500Y2767543D02*
D03*
X4493500Y2804043D02*
D03*
X4490500Y2807043D02*
D03*
X4493500Y2843543D02*
D03*
X4490500Y3123043D02*
D03*
X4493500Y3159543D02*
D03*
X4490500Y3439043D02*
D03*
X4493500Y3475543D02*
D03*
X4490500Y3755087D02*
D03*
X4493500Y3791587D02*
D03*
X4490500Y2846543D02*
D03*
X4493500Y2883043D02*
D03*
X4490500Y3162543D02*
D03*
X4493500Y3199043D02*
D03*
X4490500Y3478543D02*
D03*
X4493500Y3515043D02*
D03*
X4490500Y3794587D02*
D03*
X4493500Y3831087D02*
D03*
X4490500Y2886043D02*
D03*
X4493500Y2922543D02*
D03*
X4490500Y3202043D02*
D03*
X4493500Y3238543D02*
D03*
X4490500Y3518043D02*
D03*
X4493500Y3554543D02*
D03*
X4490500Y3834087D02*
D03*
X4493500Y3870587D02*
D03*
X4490500Y2925543D02*
D03*
X4493500Y2962043D02*
D03*
X4490500Y3241543D02*
D03*
X4493500Y3278043D02*
D03*
X4490500Y3557543D02*
D03*
X4493500Y3594043D02*
D03*
X4490500Y3873587D02*
D03*
X4493500Y3910086D02*
D03*
X4490500Y2965043D02*
D03*
X4493500Y3001543D02*
D03*
X4490500Y3281043D02*
D03*
X4493500Y3317543D02*
D03*
X4490500Y3597043D02*
D03*
X4493500Y3633543D02*
D03*
X4490500Y3913087D02*
D03*
X4493500Y3949586D02*
D03*
X4490500Y3004543D02*
D03*
X4493500Y3041043D02*
D03*
X4490500Y3320543D02*
D03*
X4493500Y3357043D02*
D03*
X4490500Y3636543D02*
D03*
X4493500Y3673043D02*
D03*
X4490500Y3952587D02*
D03*
X4493500Y3989087D02*
D03*
X4490500Y3044043D02*
D03*
X4493500Y3080543D02*
D03*
X4490500Y3360043D02*
D03*
X4493500Y3396543D02*
D03*
X4490500Y3676043D02*
D03*
X4493500Y3712543D02*
D03*
X4490500Y3992086D02*
D03*
X4493500Y4028587D02*
D03*
X4490500Y3083543D02*
D03*
X4493500Y3120043D02*
D03*
X4490500Y3399543D02*
D03*
X4493500Y3436043D02*
D03*
X4490500Y3715543D02*
D03*
X4493500Y3752043D02*
D03*
X4490500Y4031586D02*
D03*
X4493500Y4068087D02*
D03*
X4528500Y2491000D02*
D03*
X4531500Y2527500D02*
D03*
X4528500Y2530500D02*
D03*
X4531500Y2567000D02*
D03*
X4528500Y2570000D02*
D03*
X4531500Y2606500D02*
D03*
X4528500Y2609500D02*
D03*
X4531500Y2646000D02*
D03*
X4528500Y2649000D02*
D03*
X4531500Y2685500D02*
D03*
X4528500Y2688500D02*
D03*
X4531500Y2725000D02*
D03*
X4528500Y2728000D02*
D03*
X4531500Y2764500D02*
D03*
X4528500Y2767500D02*
D03*
X4531500Y2804000D02*
D03*
X4528500Y2807000D02*
D03*
X4531500Y2843500D02*
D03*
X4528500Y3123000D02*
D03*
X4531500Y3159500D02*
D03*
X4528500Y3439000D02*
D03*
X4531500Y3475500D02*
D03*
X4528500Y3755000D02*
D03*
X4531500Y3791500D02*
D03*
X4528500Y2846500D02*
D03*
X4531500Y2883000D02*
D03*
X4528500Y3162500D02*
D03*
X4531500Y3199000D02*
D03*
X4528500Y3478500D02*
D03*
X4531500Y3515000D02*
D03*
X4528500Y3794500D02*
D03*
X4531500Y3831000D02*
D03*
X4528500Y2886000D02*
D03*
X4531500Y2922500D02*
D03*
X4528500Y3202000D02*
D03*
X4531500Y3238500D02*
D03*
X4528500Y3518000D02*
D03*
X4531500Y3554500D02*
D03*
X4528500Y3834000D02*
D03*
X4531500Y3870500D02*
D03*
X4528500Y2925500D02*
D03*
X4531500Y2962000D02*
D03*
X4528500Y3241500D02*
D03*
X4531500Y3278000D02*
D03*
X4528500Y3557500D02*
D03*
X4531500Y3594000D02*
D03*
X4528500Y3873500D02*
D03*
X4531500Y3910000D02*
D03*
X4528500Y2965000D02*
D03*
X4531500Y3001500D02*
D03*
X4528500Y3281000D02*
D03*
X4531500Y3317500D02*
D03*
X4528500Y3597000D02*
D03*
X4531500Y3633500D02*
D03*
X4528500Y3913000D02*
D03*
X4531500Y3949500D02*
D03*
X4528500Y3004500D02*
D03*
X4531500Y3041000D02*
D03*
X4528500Y3320500D02*
D03*
X4531500Y3357000D02*
D03*
X4528500Y3636500D02*
D03*
X4531500Y3673000D02*
D03*
X4528500Y3952500D02*
D03*
X4531500Y3989000D02*
D03*
X4528500Y3044000D02*
D03*
X4531500Y3080500D02*
D03*
X4528500Y3360000D02*
D03*
X4531500Y3396500D02*
D03*
X4528500Y3676000D02*
D03*
X4531500Y3712500D02*
D03*
X4528500Y3992000D02*
D03*
X4531500Y4028500D02*
D03*
X4528500Y3083500D02*
D03*
X4531500Y3120000D02*
D03*
X4528500Y3399500D02*
D03*
X4531500Y3436000D02*
D03*
X4528500Y3715500D02*
D03*
X4531500Y3752000D02*
D03*
X4528500Y4031500D02*
D03*
X4531500Y4068000D02*
D03*
X4566500Y2491043D02*
D03*
X4569500Y2527543D02*
D03*
X4566500Y2530543D02*
D03*
X4569500Y2567043D02*
D03*
X4566500Y2570043D02*
D03*
X4569500Y2606543D02*
D03*
X4566500Y2609543D02*
D03*
X4569500Y2646043D02*
D03*
X4566500Y2649043D02*
D03*
X4569500Y2685543D02*
D03*
X4566500Y2688543D02*
D03*
X4569500Y2725043D02*
D03*
X4566500Y2728043D02*
D03*
X4569500Y2764543D02*
D03*
X4566500Y2767543D02*
D03*
X4569500Y2804043D02*
D03*
X4566500Y2807043D02*
D03*
X4569500Y2843543D02*
D03*
X4566500Y3123043D02*
D03*
X4569500Y3159543D02*
D03*
X4566500Y3439043D02*
D03*
X4569500Y3475543D02*
D03*
X4566500Y3755087D02*
D03*
X4569500Y3791587D02*
D03*
X4566500Y2846543D02*
D03*
X4569500Y2883043D02*
D03*
X4566500Y3162543D02*
D03*
X4569500Y3199043D02*
D03*
X4566500Y3478543D02*
D03*
X4569500Y3515043D02*
D03*
X4566500Y3794587D02*
D03*
X4569500Y3831087D02*
D03*
X4566500Y2886043D02*
D03*
X4569500Y2922543D02*
D03*
X4566500Y3202043D02*
D03*
X4569500Y3238543D02*
D03*
X4566500Y3518043D02*
D03*
X4569500Y3554543D02*
D03*
X4566500Y3834087D02*
D03*
X4569500Y3870587D02*
D03*
X4566500Y2925543D02*
D03*
X4569500Y2962043D02*
D03*
X4566500Y3241543D02*
D03*
X4569500Y3278043D02*
D03*
X4566500Y3557543D02*
D03*
X4569500Y3594043D02*
D03*
X4566500Y3873587D02*
D03*
X4569500Y3910086D02*
D03*
X4566500Y2965043D02*
D03*
X4569500Y3001543D02*
D03*
X4566500Y3281043D02*
D03*
X4569500Y3317543D02*
D03*
X4566500Y3597043D02*
D03*
X4569500Y3633543D02*
D03*
X4566500Y3913087D02*
D03*
X4569500Y3949586D02*
D03*
X4566500Y3004543D02*
D03*
X4569500Y3041043D02*
D03*
X4566500Y3320543D02*
D03*
X4569500Y3357043D02*
D03*
X4566500Y3636543D02*
D03*
X4569500Y3673043D02*
D03*
X4566500Y3952587D02*
D03*
X4569500Y3989087D02*
D03*
X4566500Y3044043D02*
D03*
X4569500Y3080543D02*
D03*
X4566500Y3360043D02*
D03*
X4569500Y3396543D02*
D03*
X4566500Y3676043D02*
D03*
X4569500Y3712543D02*
D03*
X4566500Y3992086D02*
D03*
X4569500Y4028587D02*
D03*
X4566500Y3083543D02*
D03*
X4569500Y3120043D02*
D03*
X4566500Y3399543D02*
D03*
X4569500Y3436043D02*
D03*
X4566500Y3715543D02*
D03*
X4569500Y3752043D02*
D03*
X4566500Y4031586D02*
D03*
X4569500Y4068087D02*
D03*
X4604500Y2491000D02*
D03*
X4607500Y2527500D02*
D03*
X4604500Y2530500D02*
D03*
X4607500Y2567000D02*
D03*
X4604500Y2570000D02*
D03*
X4607500Y2606500D02*
D03*
X4604500Y2609500D02*
D03*
X4607500Y2646000D02*
D03*
X4604500Y2649000D02*
D03*
X4607500Y2685500D02*
D03*
X4604500Y2688500D02*
D03*
X4607500Y2725000D02*
D03*
X4604500Y2728000D02*
D03*
X4607500Y2764500D02*
D03*
X4604500Y2767500D02*
D03*
X4607500Y2804000D02*
D03*
X4604500Y2807000D02*
D03*
X4607500Y2843500D02*
D03*
X4604500Y3123000D02*
D03*
X4607500Y3159500D02*
D03*
X4604500Y3439000D02*
D03*
X4607500Y3475500D02*
D03*
X4604500Y3755000D02*
D03*
X4607500Y3791500D02*
D03*
X4604500Y2846500D02*
D03*
X4607500Y2883000D02*
D03*
X4604500Y3162500D02*
D03*
X4607500Y3199000D02*
D03*
X4604500Y3478500D02*
D03*
X4607500Y3515000D02*
D03*
X4604500Y3794500D02*
D03*
X4607500Y3831000D02*
D03*
X4604500Y2886000D02*
D03*
X4607500Y2922500D02*
D03*
X4604500Y3202000D02*
D03*
X4607500Y3238500D02*
D03*
X4604500Y3518000D02*
D03*
X4607500Y3554500D02*
D03*
X4604500Y3834000D02*
D03*
X4607500Y3870500D02*
D03*
X4604500Y2925500D02*
D03*
X4607500Y2962000D02*
D03*
X4604500Y3241500D02*
D03*
X4607500Y3278000D02*
D03*
X4604500Y3557500D02*
D03*
X4607500Y3594000D02*
D03*
X4604500Y3873500D02*
D03*
X4607500Y3910000D02*
D03*
X4604500Y2965000D02*
D03*
X4607500Y3001500D02*
D03*
X4604500Y3281000D02*
D03*
X4607500Y3317500D02*
D03*
X4604500Y3597000D02*
D03*
X4607500Y3633500D02*
D03*
X4604500Y3913000D02*
D03*
X4607500Y3949500D02*
D03*
X4604500Y3004500D02*
D03*
X4607500Y3041000D02*
D03*
X4604500Y3320500D02*
D03*
X4607500Y3357000D02*
D03*
X4604500Y3636500D02*
D03*
X4607500Y3673000D02*
D03*
X4604500Y3952500D02*
D03*
X4607500Y3989000D02*
D03*
X4604500Y3044000D02*
D03*
X4607500Y3080500D02*
D03*
X4604500Y3360000D02*
D03*
X4607500Y3396500D02*
D03*
X4604500Y3676000D02*
D03*
X4607500Y3712500D02*
D03*
X4604500Y3992000D02*
D03*
X4607500Y4028500D02*
D03*
X4604500Y3083500D02*
D03*
X4607500Y3120000D02*
D03*
X4604500Y3399500D02*
D03*
X4607500Y3436000D02*
D03*
X4604500Y3715500D02*
D03*
X4607500Y3752000D02*
D03*
X4604500Y4031500D02*
D03*
X4607500Y4068000D02*
D03*
X4642500Y2491043D02*
D03*
X4645500Y2527543D02*
D03*
X4642500Y2530543D02*
D03*
X4645500Y2567043D02*
D03*
X4642500Y2570043D02*
D03*
X4645500Y2606543D02*
D03*
X4642500Y2609543D02*
D03*
X4645500Y2646043D02*
D03*
X4642500Y2649043D02*
D03*
X4645500Y2685543D02*
D03*
X4642500Y2688543D02*
D03*
X4645500Y2725043D02*
D03*
X4642500Y2728043D02*
D03*
X4645500Y2764543D02*
D03*
X4642500Y2767543D02*
D03*
X4645500Y2804043D02*
D03*
X4642500Y2807043D02*
D03*
X4645500Y2843543D02*
D03*
X4642500Y3123043D02*
D03*
X4645500Y3159543D02*
D03*
X4642500Y3439043D02*
D03*
X4645500Y3475543D02*
D03*
X4642500Y3755087D02*
D03*
X4645500Y3791587D02*
D03*
X4642500Y2846543D02*
D03*
X4645500Y2883043D02*
D03*
X4642500Y3162543D02*
D03*
X4645500Y3199043D02*
D03*
X4642500Y3478543D02*
D03*
X4645500Y3515043D02*
D03*
X4642500Y3794587D02*
D03*
X4645500Y3831087D02*
D03*
X4642500Y2886043D02*
D03*
X4645500Y2922543D02*
D03*
X4642500Y3202043D02*
D03*
X4645500Y3238543D02*
D03*
X4642500Y3518043D02*
D03*
X4645500Y3554543D02*
D03*
X4642500Y3834087D02*
D03*
X4645500Y3870587D02*
D03*
X4642500Y2925543D02*
D03*
X4645500Y2962043D02*
D03*
X4642500Y3241543D02*
D03*
X4645500Y3278043D02*
D03*
X4642500Y3557543D02*
D03*
X4645500Y3594043D02*
D03*
X4642500Y3873587D02*
D03*
X4645500Y3910086D02*
D03*
X4642500Y2965043D02*
D03*
X4645500Y3001543D02*
D03*
X4642500Y3281043D02*
D03*
X4645500Y3317543D02*
D03*
X4642500Y3597043D02*
D03*
X4645500Y3633543D02*
D03*
X4642500Y3913087D02*
D03*
X4645500Y3949586D02*
D03*
X4642500Y3004543D02*
D03*
X4645500Y3041043D02*
D03*
X4642500Y3320543D02*
D03*
X4645500Y3357043D02*
D03*
X4642500Y3636543D02*
D03*
X4645500Y3673043D02*
D03*
X4642500Y3952587D02*
D03*
X4645500Y3989087D02*
D03*
X4642500Y3044043D02*
D03*
X4645500Y3080543D02*
D03*
X4642500Y3360043D02*
D03*
X4645500Y3396543D02*
D03*
X4642500Y3676043D02*
D03*
X4645500Y3712543D02*
D03*
X4642500Y3992086D02*
D03*
X4645500Y4028587D02*
D03*
X4642500Y3083543D02*
D03*
X4645500Y3120043D02*
D03*
X4642500Y3399543D02*
D03*
X4645500Y3436043D02*
D03*
X4642500Y3715543D02*
D03*
X4645500Y3752043D02*
D03*
X4642500Y4031586D02*
D03*
X4645500Y4068087D02*
D03*
X4680500Y2491000D02*
D03*
X4683500Y2527500D02*
D03*
X4680500Y2530500D02*
D03*
X4683500Y2567000D02*
D03*
X4680500Y2570000D02*
D03*
X4683500Y2606500D02*
D03*
X4680500Y2609500D02*
D03*
X4683500Y2646000D02*
D03*
X4680500Y2649000D02*
D03*
X4683500Y2685500D02*
D03*
X4680500Y2688500D02*
D03*
X4683500Y2725000D02*
D03*
X4680500Y2728000D02*
D03*
X4683500Y2764500D02*
D03*
X4680500Y2767500D02*
D03*
X4683500Y2804000D02*
D03*
X4680500Y2807000D02*
D03*
X4683500Y2843500D02*
D03*
X4680500Y3123000D02*
D03*
X4683500Y3159500D02*
D03*
X4680500Y3439000D02*
D03*
X4683500Y3475500D02*
D03*
X4680500Y3755000D02*
D03*
X4683500Y3791500D02*
D03*
X4680500Y2846500D02*
D03*
X4683500Y2883000D02*
D03*
X4680500Y3162500D02*
D03*
X4683500Y3199000D02*
D03*
X4680500Y3478500D02*
D03*
X4683500Y3515000D02*
D03*
X4680500Y3794500D02*
D03*
X4683500Y3831000D02*
D03*
X4680500Y2886000D02*
D03*
X4683500Y2922500D02*
D03*
X4680500Y3202000D02*
D03*
X4683500Y3238500D02*
D03*
X4680500Y3518000D02*
D03*
X4683500Y3554500D02*
D03*
X4680500Y3834000D02*
D03*
X4683500Y3870500D02*
D03*
X4680500Y2925500D02*
D03*
X4683500Y2962000D02*
D03*
X4680500Y3241500D02*
D03*
X4683500Y3278000D02*
D03*
X4680500Y3557500D02*
D03*
X4683500Y3594000D02*
D03*
X4680500Y3873500D02*
D03*
X4683500Y3910000D02*
D03*
X4680500Y2965000D02*
D03*
X4683500Y3001500D02*
D03*
X4680500Y3281000D02*
D03*
X4683500Y3317500D02*
D03*
X4680500Y3597000D02*
D03*
X4683500Y3633500D02*
D03*
X4680500Y3913000D02*
D03*
X4683500Y3949500D02*
D03*
X4680500Y3004500D02*
D03*
X4683500Y3041000D02*
D03*
X4680500Y3320500D02*
D03*
X4683500Y3357000D02*
D03*
X4680500Y3636500D02*
D03*
X4683500Y3673000D02*
D03*
X4680500Y3952500D02*
D03*
X4683500Y3989000D02*
D03*
X4680500Y3044000D02*
D03*
X4683500Y3080500D02*
D03*
X4680500Y3360000D02*
D03*
X4683500Y3396500D02*
D03*
X4680500Y3676000D02*
D03*
X4683500Y3712500D02*
D03*
X4680500Y3992000D02*
D03*
X4683500Y4028500D02*
D03*
X4680500Y3083500D02*
D03*
X4683500Y3120000D02*
D03*
X4680500Y3399500D02*
D03*
X4683500Y3436000D02*
D03*
X4680500Y3715500D02*
D03*
X4683500Y3752000D02*
D03*
X4680500Y4031500D02*
D03*
X4683500Y4068000D02*
D03*
X4718500Y2491043D02*
D03*
X4721500Y2527543D02*
D03*
X4718500Y2530543D02*
D03*
X4721500Y2567043D02*
D03*
X4718500Y2570043D02*
D03*
X4721500Y2606543D02*
D03*
X4718500Y2609543D02*
D03*
X4721500Y2646043D02*
D03*
X4718500Y2649043D02*
D03*
X4721500Y2685543D02*
D03*
X4718500Y2688543D02*
D03*
X4721500Y2725043D02*
D03*
X4718500Y2728043D02*
D03*
X4721500Y2764543D02*
D03*
X4718500Y2767543D02*
D03*
X4721500Y2804043D02*
D03*
X4718500Y2807043D02*
D03*
X4721500Y2843543D02*
D03*
X4718500Y3123043D02*
D03*
X4721500Y3159543D02*
D03*
X4718500Y3439043D02*
D03*
X4721500Y3475543D02*
D03*
X4718500Y3755087D02*
D03*
X4721500Y3791587D02*
D03*
X4718500Y2846543D02*
D03*
X4721500Y2883043D02*
D03*
X4718500Y3162543D02*
D03*
X4721500Y3199043D02*
D03*
X4718500Y3478543D02*
D03*
X4721500Y3515043D02*
D03*
X4718500Y3794587D02*
D03*
X4721500Y3831087D02*
D03*
X4718500Y2886043D02*
D03*
X4721500Y2922543D02*
D03*
X4718500Y3202043D02*
D03*
X4721500Y3238543D02*
D03*
X4718500Y3518043D02*
D03*
X4721500Y3554543D02*
D03*
X4718500Y3834087D02*
D03*
X4721500Y3870587D02*
D03*
X4718500Y2925543D02*
D03*
X4721500Y2962043D02*
D03*
X4718500Y3241543D02*
D03*
X4721500Y3278043D02*
D03*
X4718500Y3557543D02*
D03*
X4721500Y3594043D02*
D03*
X4718500Y3873587D02*
D03*
X4721500Y3910086D02*
D03*
X4718500Y2965043D02*
D03*
X4721500Y3001543D02*
D03*
X4718500Y3281043D02*
D03*
X4721500Y3317543D02*
D03*
X4718500Y3597043D02*
D03*
X4721500Y3633543D02*
D03*
X4718500Y3913087D02*
D03*
X4721500Y3949586D02*
D03*
X4718500Y3004543D02*
D03*
X4721500Y3041043D02*
D03*
X4718500Y3320543D02*
D03*
X4721500Y3357043D02*
D03*
X4718500Y3636543D02*
D03*
X4721500Y3673043D02*
D03*
X4718500Y3952587D02*
D03*
X4721500Y3989087D02*
D03*
X4718500Y3044043D02*
D03*
X4721500Y3080543D02*
D03*
X4718500Y3360043D02*
D03*
X4721500Y3396543D02*
D03*
X4718500Y3676043D02*
D03*
X4721500Y3712543D02*
D03*
X4718500Y3992086D02*
D03*
X4721500Y4028587D02*
D03*
X4718500Y3083543D02*
D03*
X4721500Y3120043D02*
D03*
X4718500Y3399543D02*
D03*
X4721500Y3436043D02*
D03*
X4718500Y3715543D02*
D03*
X4721500Y3752043D02*
D03*
X4718500Y4031586D02*
D03*
X4721500Y4068087D02*
D03*
X4756500Y2491000D02*
D03*
X4759500Y2527500D02*
D03*
X4756500Y2530500D02*
D03*
X4759500Y2567000D02*
D03*
X4756500Y2570000D02*
D03*
X4759500Y2606500D02*
D03*
X4756500Y2609500D02*
D03*
X4759500Y2646000D02*
D03*
X4756500Y2649000D02*
D03*
X4759500Y2685500D02*
D03*
X4756500Y2688500D02*
D03*
X4759500Y2725000D02*
D03*
X4756500Y2728000D02*
D03*
X4759500Y2764500D02*
D03*
X4756500Y2767500D02*
D03*
X4759500Y2804000D02*
D03*
X4756500Y2807000D02*
D03*
X4759500Y2843500D02*
D03*
X4756500Y3123000D02*
D03*
X4759500Y3159500D02*
D03*
X4756500Y3439000D02*
D03*
X4759500Y3475500D02*
D03*
X4756500Y3755000D02*
D03*
X4759500Y3791500D02*
D03*
X4756500Y2846500D02*
D03*
X4759500Y2883000D02*
D03*
X4756500Y3162500D02*
D03*
X4759500Y3199000D02*
D03*
X4756500Y3478500D02*
D03*
X4759500Y3515000D02*
D03*
X4756500Y3794500D02*
D03*
X4759500Y3831000D02*
D03*
X4756500Y2886000D02*
D03*
X4759500Y2922500D02*
D03*
X4756500Y3202000D02*
D03*
X4759500Y3238500D02*
D03*
X4756500Y3518000D02*
D03*
X4759500Y3554500D02*
D03*
X4756500Y3834000D02*
D03*
X4759500Y3870500D02*
D03*
X4756500Y2925500D02*
D03*
X4759500Y2962000D02*
D03*
X4756500Y3241500D02*
D03*
X4759500Y3278000D02*
D03*
X4756500Y3557500D02*
D03*
X4759500Y3594000D02*
D03*
X4756500Y3873500D02*
D03*
X4759500Y3910000D02*
D03*
X4756500Y2965000D02*
D03*
X4759500Y3001500D02*
D03*
X4756500Y3281000D02*
D03*
X4759500Y3317500D02*
D03*
X4756500Y3597000D02*
D03*
X4759500Y3633500D02*
D03*
X4756500Y3913000D02*
D03*
X4759500Y3949500D02*
D03*
X4756500Y3004500D02*
D03*
X4759500Y3041000D02*
D03*
X4756500Y3320500D02*
D03*
X4759500Y3357000D02*
D03*
X4756500Y3636500D02*
D03*
X4759500Y3673000D02*
D03*
X4756500Y3952500D02*
D03*
X4759500Y3989000D02*
D03*
X4756500Y3044000D02*
D03*
X4759500Y3080500D02*
D03*
X4756500Y3360000D02*
D03*
X4759500Y3396500D02*
D03*
X4756500Y3676000D02*
D03*
X4759500Y3712500D02*
D03*
X4756500Y3992000D02*
D03*
X4759500Y4028500D02*
D03*
X4756500Y3083500D02*
D03*
X4759500Y3120000D02*
D03*
X4756500Y3399500D02*
D03*
X4759500Y3436000D02*
D03*
X4756500Y3715500D02*
D03*
X4759500Y3752000D02*
D03*
X4756500Y4031500D02*
D03*
X4759500Y4068000D02*
D03*
X4794500Y2491043D02*
D03*
X4797500Y2527543D02*
D03*
X4794500Y2530543D02*
D03*
X4797500Y2567043D02*
D03*
X4794500Y2570043D02*
D03*
X4797500Y2606543D02*
D03*
X4794500Y2609543D02*
D03*
X4797500Y2646043D02*
D03*
X4794500Y2649043D02*
D03*
X4797500Y2685543D02*
D03*
X4794500Y2688543D02*
D03*
X4797500Y2725043D02*
D03*
X4794500Y2728043D02*
D03*
X4797500Y2764543D02*
D03*
X4794500Y2767543D02*
D03*
X4797500Y2804043D02*
D03*
X4794500Y2807043D02*
D03*
X4797500Y2843543D02*
D03*
X4794500Y3123043D02*
D03*
X4797500Y3159543D02*
D03*
X4794500Y3439043D02*
D03*
X4797500Y3475543D02*
D03*
X4794500Y3755087D02*
D03*
X4797500Y3791587D02*
D03*
X4794500Y2846543D02*
D03*
X4797500Y2883043D02*
D03*
X4794500Y3162543D02*
D03*
X4797500Y3199043D02*
D03*
X4794500Y3478543D02*
D03*
X4797500Y3515043D02*
D03*
X4794500Y3794587D02*
D03*
X4797500Y3831087D02*
D03*
X4794500Y2886043D02*
D03*
X4797500Y2922543D02*
D03*
X4794500Y3202043D02*
D03*
X4797500Y3238543D02*
D03*
X4794500Y3518043D02*
D03*
X4797500Y3554543D02*
D03*
X4794500Y3834087D02*
D03*
X4797500Y3870587D02*
D03*
X4794500Y2925543D02*
D03*
X4797500Y2962043D02*
D03*
X4794500Y3241543D02*
D03*
X4797500Y3278043D02*
D03*
X4794500Y3557543D02*
D03*
X4797500Y3594043D02*
D03*
X4794500Y3873587D02*
D03*
X4797500Y3910086D02*
D03*
X4794500Y2965043D02*
D03*
X4797500Y3001543D02*
D03*
X4794500Y3281043D02*
D03*
X4797500Y3317543D02*
D03*
X4794500Y3597043D02*
D03*
X4797500Y3633543D02*
D03*
X4794500Y3913087D02*
D03*
X4797500Y3949586D02*
D03*
X4794500Y3004543D02*
D03*
X4797500Y3041043D02*
D03*
X4794500Y3320543D02*
D03*
X4797500Y3357043D02*
D03*
X4794500Y3636543D02*
D03*
X4797500Y3673043D02*
D03*
X4794500Y3952587D02*
D03*
X4797500Y3989087D02*
D03*
X4794500Y3044043D02*
D03*
X4797500Y3080543D02*
D03*
X4794500Y3360043D02*
D03*
X4797500Y3396543D02*
D03*
X4794500Y3676043D02*
D03*
X4797500Y3712543D02*
D03*
X4794500Y3992086D02*
D03*
X4797500Y4028587D02*
D03*
X4794500Y3083543D02*
D03*
X4797500Y3120043D02*
D03*
X4794500Y3399543D02*
D03*
X4797500Y3436043D02*
D03*
X4794500Y3715543D02*
D03*
X4797500Y3752043D02*
D03*
X4794500Y4031586D02*
D03*
X4797500Y4068087D02*
D03*
X4832500Y2491000D02*
D03*
X4835500Y2527500D02*
D03*
X4832500Y2530500D02*
D03*
X4835500Y2567000D02*
D03*
X4832500Y2570000D02*
D03*
X4835500Y2606500D02*
D03*
X4832500Y2609500D02*
D03*
X4835500Y2646000D02*
D03*
X4832500Y2649000D02*
D03*
X4835500Y2685500D02*
D03*
X4832500Y2688500D02*
D03*
X4835500Y2725000D02*
D03*
X4832500Y2728000D02*
D03*
X4835500Y2764500D02*
D03*
X4832500Y2767500D02*
D03*
X4835500Y2804000D02*
D03*
X4832500Y2807000D02*
D03*
X4835500Y2843500D02*
D03*
X4832500Y3123000D02*
D03*
X4835500Y3159500D02*
D03*
X4832500Y3439000D02*
D03*
X4835500Y3475500D02*
D03*
X4832500Y3755000D02*
D03*
X4835500Y3791500D02*
D03*
X4832500Y2846500D02*
D03*
X4835500Y2883000D02*
D03*
X4832500Y3162500D02*
D03*
X4835500Y3199000D02*
D03*
X4832500Y3478500D02*
D03*
X4835500Y3515000D02*
D03*
X4832500Y3794500D02*
D03*
X4835500Y3831000D02*
D03*
X4832500Y2886000D02*
D03*
X4835500Y2922500D02*
D03*
X4832500Y3202000D02*
D03*
X4835500Y3238500D02*
D03*
X4832500Y3518000D02*
D03*
X4835500Y3554500D02*
D03*
X4832500Y3834000D02*
D03*
X4835500Y3870500D02*
D03*
X4832500Y2925500D02*
D03*
X4835500Y2962000D02*
D03*
X4832500Y3241500D02*
D03*
X4835500Y3278000D02*
D03*
X4832500Y3557500D02*
D03*
X4835500Y3594000D02*
D03*
X4832500Y3873500D02*
D03*
X4835500Y3910000D02*
D03*
X4832500Y2965000D02*
D03*
X4835500Y3001500D02*
D03*
X4832500Y3281000D02*
D03*
X4835500Y3317500D02*
D03*
X4832500Y3597000D02*
D03*
X4835500Y3633500D02*
D03*
X4832500Y3913000D02*
D03*
X4835500Y3949500D02*
D03*
X4832500Y3004500D02*
D03*
X4835500Y3041000D02*
D03*
X4832500Y3320500D02*
D03*
X4835500Y3357000D02*
D03*
X4832500Y3636500D02*
D03*
X4835500Y3673000D02*
D03*
X4832500Y3952500D02*
D03*
X4835500Y3989000D02*
D03*
X4832500Y3044000D02*
D03*
X4835500Y3080500D02*
D03*
X4832500Y3360000D02*
D03*
X4835500Y3396500D02*
D03*
X4832500Y3676000D02*
D03*
X4835500Y3712500D02*
D03*
X4832500Y3992000D02*
D03*
X4835500Y4028500D02*
D03*
X4832500Y3083500D02*
D03*
X4835500Y3120000D02*
D03*
X4832500Y3399500D02*
D03*
X4835500Y3436000D02*
D03*
X4832500Y3715500D02*
D03*
X4835500Y3752000D02*
D03*
X4832500Y4031500D02*
D03*
X4835500Y4068000D02*
D03*
D16*
X4263781Y2291984D02*
D03*
X4260041Y2285016D02*
D03*
X4267521D02*
D03*
X4292083Y2291984D02*
D03*
X4288343Y2285016D02*
D03*
X4295823D02*
D03*
X4320385Y2291984D02*
D03*
X4316645Y2285016D02*
D03*
X4324125D02*
D03*
X4348687Y2291984D02*
D03*
X4344947Y2285016D02*
D03*
X4352428D02*
D03*
X4376990Y2291984D02*
D03*
X4373249Y2285016D02*
D03*
X4380730D02*
D03*
X4433594Y2291984D02*
D03*
X4429853Y2285016D02*
D03*
X4437334D02*
D03*
X4461896Y2291984D02*
D03*
X4458155Y2285016D02*
D03*
X4465636D02*
D03*
X4490198Y2291984D02*
D03*
X4486458Y2285016D02*
D03*
X4493938D02*
D03*
X4518500Y2291984D02*
D03*
X4514760Y2285016D02*
D03*
X4522240D02*
D03*
X4546802Y2291984D02*
D03*
X4543062Y2285016D02*
D03*
X4550542D02*
D03*
X4575104Y2291984D02*
D03*
X4571364Y2285016D02*
D03*
X4578844D02*
D03*
X4603407Y2291984D02*
D03*
X4599666Y2285016D02*
D03*
X4607146D02*
D03*
X4631709Y2291984D02*
D03*
X4627968Y2285016D02*
D03*
X4635448D02*
D03*
X4660011Y2291984D02*
D03*
X4656270Y2285016D02*
D03*
X4663750D02*
D03*
X4688313Y2291984D02*
D03*
X4684572Y2285016D02*
D03*
X4692053D02*
D03*
X4716615Y2291984D02*
D03*
X4712875Y2285016D02*
D03*
X4720355D02*
D03*
X4744917Y2291984D02*
D03*
X4741177Y2285016D02*
D03*
X4748657D02*
D03*
X4773219Y2291984D02*
D03*
X4769479Y2285016D02*
D03*
X4776959D02*
D03*
X4801521Y2291984D02*
D03*
X4797781Y2285016D02*
D03*
X4805261D02*
D03*
X4804000Y2120516D02*
D03*
X4807740Y2127484D02*
D03*
X4800260D02*
D03*
X4775842Y2120516D02*
D03*
X4779582Y2127484D02*
D03*
X4772102D02*
D03*
X4747684Y2120516D02*
D03*
X4751424Y2127484D02*
D03*
X4743944D02*
D03*
X4719526Y2120516D02*
D03*
X4723266Y2127484D02*
D03*
X4715786D02*
D03*
X4691368Y2120516D02*
D03*
X4695108Y2127484D02*
D03*
X4687628D02*
D03*
X4663210Y2120516D02*
D03*
X4666951Y2127484D02*
D03*
X4659470D02*
D03*
X4635052Y2120516D02*
D03*
X4638793Y2127484D02*
D03*
X4631313D02*
D03*
X4606895Y2120516D02*
D03*
X4610635Y2127484D02*
D03*
X4603155D02*
D03*
X4578737Y2120516D02*
D03*
X4582477Y2127484D02*
D03*
X4574997D02*
D03*
X4550579Y2120516D02*
D03*
X4554319Y2127484D02*
D03*
X4546839D02*
D03*
X4522421Y2120516D02*
D03*
X4526161Y2127484D02*
D03*
X4518681D02*
D03*
X4494263Y2120516D02*
D03*
X4498003Y2127484D02*
D03*
X4490523D02*
D03*
X4466105Y2120516D02*
D03*
X4469846Y2127484D02*
D03*
X4462365D02*
D03*
X4437947Y2120516D02*
D03*
X4441687Y2127484D02*
D03*
X4434207D02*
D03*
X4409789Y2120516D02*
D03*
X4413530Y2127484D02*
D03*
X4406049D02*
D03*
X4381631Y2120516D02*
D03*
X4385372Y2127484D02*
D03*
X4377892D02*
D03*
X4353474Y2120516D02*
D03*
X4357214Y2127484D02*
D03*
X4349734D02*
D03*
X4325316Y2120516D02*
D03*
X4329056Y2127484D02*
D03*
X4321576D02*
D03*
X4297158Y2120516D02*
D03*
X4300898Y2127484D02*
D03*
X4293418D02*
D03*
X4269000Y2120516D02*
D03*
X4272740Y2127484D02*
D03*
X4265260D02*
D03*
X4405292Y2291984D02*
D03*
X4401551Y2285016D02*
D03*
X4409032D02*
D03*
D17*
X4385500Y2409000D02*
D03*
X4388100D02*
D03*
X4390700D02*
D03*
X4393200D02*
D03*
X4395800D02*
D03*
X4398300D02*
D03*
X4400900D02*
D03*
X4403500D02*
D03*
Y2386000D02*
D03*
X4400900D02*
D03*
X4398300D02*
D03*
X4395800D02*
D03*
X4393200D02*
D03*
X4390700D02*
D03*
X4388100D02*
D03*
X4385500D02*
D03*
X4693000Y2409000D02*
D03*
X4695600D02*
D03*
X4698200D02*
D03*
X4700700D02*
D03*
X4703300D02*
D03*
X4705800D02*
D03*
X4708400D02*
D03*
X4711000D02*
D03*
Y2386000D02*
D03*
X4708400D02*
D03*
X4705800D02*
D03*
X4703300D02*
D03*
X4700700D02*
D03*
X4698200D02*
D03*
X4695600D02*
D03*
X4693000D02*
D03*
X4351500Y2188000D02*
D03*
X4354100D02*
D03*
X4356700D02*
D03*
X4359200D02*
D03*
X4361800D02*
D03*
X4364300D02*
D03*
X4366900D02*
D03*
X4369500D02*
D03*
Y2165000D02*
D03*
X4366900D02*
D03*
X4364300D02*
D03*
X4361800D02*
D03*
X4359200D02*
D03*
X4356700D02*
D03*
X4354100D02*
D03*
X4351500D02*
D03*
X4582500Y2188000D02*
D03*
X4585100D02*
D03*
X4587700D02*
D03*
X4590200D02*
D03*
X4592800D02*
D03*
X4595300D02*
D03*
X4597900D02*
D03*
X4600500D02*
D03*
Y2165000D02*
D03*
X4597900D02*
D03*
X4595300D02*
D03*
X4592800D02*
D03*
X4590200D02*
D03*
X4587700D02*
D03*
X4585100D02*
D03*
X4582500D02*
D03*
X4768000Y2201500D02*
D03*
X4765400D02*
D03*
X4762800D02*
D03*
X4760300D02*
D03*
X4757700D02*
D03*
X4755200D02*
D03*
X4752600D02*
D03*
X4750000D02*
D03*
Y2224500D02*
D03*
X4752600D02*
D03*
X4755200D02*
D03*
X4757700D02*
D03*
X4760300D02*
D03*
X4762800D02*
D03*
X4765400D02*
D03*
X4768000D02*
D03*
X4582000Y2250000D02*
D03*
X4584600D02*
D03*
X4587200D02*
D03*
X4589700D02*
D03*
X4592300D02*
D03*
X4594800D02*
D03*
X4597400D02*
D03*
X4600000D02*
D03*
Y2227000D02*
D03*
X4597400D02*
D03*
X4594800D02*
D03*
X4592300D02*
D03*
X4589700D02*
D03*
X4587200D02*
D03*
X4584600D02*
D03*
X4582000D02*
D03*
X4352500Y2250000D02*
D03*
X4355100D02*
D03*
X4357700D02*
D03*
X4360200D02*
D03*
X4362800D02*
D03*
X4365300D02*
D03*
X4367900D02*
D03*
X4370500D02*
D03*
Y2227000D02*
D03*
X4367900D02*
D03*
X4365300D02*
D03*
X4362800D02*
D03*
X4360200D02*
D03*
X4357700D02*
D03*
X4355100D02*
D03*
X4352500D02*
D03*
D18*
X4836240Y2463563D02*
D03*
X4828760D02*
D03*
X4832500Y2471437D02*
D03*
X4798240Y2463563D02*
D03*
X4790760D02*
D03*
X4794500Y2471437D02*
D03*
X4760240Y2463563D02*
D03*
X4752760D02*
D03*
X4756500Y2471437D02*
D03*
X4722240Y2463563D02*
D03*
X4714760D02*
D03*
X4718500Y2471437D02*
D03*
X4684240Y2463563D02*
D03*
X4676760D02*
D03*
X4680500Y2471437D02*
D03*
X4646240Y2463563D02*
D03*
X4638760D02*
D03*
X4642500Y2471437D02*
D03*
X4608240Y2463563D02*
D03*
X4600760D02*
D03*
X4604500Y2471437D02*
D03*
X4570240Y2463563D02*
D03*
X4562760D02*
D03*
X4566500Y2471437D02*
D03*
X4532240Y2463563D02*
D03*
X4524760D02*
D03*
X4528500Y2471437D02*
D03*
X4494240Y2463563D02*
D03*
X4486760D02*
D03*
X4490500Y2471437D02*
D03*
X4456240Y2463563D02*
D03*
X4448760D02*
D03*
X4452500Y2471437D02*
D03*
X4418240Y2463563D02*
D03*
X4410760D02*
D03*
X4414500Y2471437D02*
D03*
X4380240Y2463563D02*
D03*
X4372760D02*
D03*
X4376500Y2471437D02*
D03*
X4342240Y2463563D02*
D03*
X4334760D02*
D03*
X4338500Y2471437D02*
D03*
X4304240Y2463563D02*
D03*
X4296760D02*
D03*
X4300500Y2471437D02*
D03*
X4266240Y2463563D02*
D03*
X4258760D02*
D03*
X4262500Y2471437D02*
D03*
D19*
X4257500Y2530587D02*
D03*
Y2523500D02*
D03*
Y2570087D02*
D03*
Y2563000D02*
D03*
Y2609587D02*
D03*
Y2602500D02*
D03*
Y2649087D02*
D03*
Y2642000D02*
D03*
Y2688587D02*
D03*
Y2681500D02*
D03*
Y2728087D02*
D03*
Y2721000D02*
D03*
Y2767587D02*
D03*
Y2760500D02*
D03*
Y2807087D02*
D03*
Y2800000D02*
D03*
Y2846587D02*
D03*
Y2839500D02*
D03*
Y3162587D02*
D03*
Y3155500D02*
D03*
Y3478587D02*
D03*
Y3471500D02*
D03*
Y3794630D02*
D03*
Y3787543D02*
D03*
Y2886087D02*
D03*
Y2879000D02*
D03*
Y3202087D02*
D03*
Y3195000D02*
D03*
Y3518087D02*
D03*
Y3511000D02*
D03*
Y3834130D02*
D03*
Y3827043D02*
D03*
Y2925587D02*
D03*
Y2918500D02*
D03*
Y3241587D02*
D03*
Y3234500D02*
D03*
Y3557587D02*
D03*
Y3550500D02*
D03*
Y3873630D02*
D03*
Y3866543D02*
D03*
Y2965087D02*
D03*
Y2958000D02*
D03*
Y3281087D02*
D03*
Y3274000D02*
D03*
Y3597087D02*
D03*
Y3590000D02*
D03*
Y3913130D02*
D03*
Y3906043D02*
D03*
Y3004587D02*
D03*
Y2997500D02*
D03*
Y3320587D02*
D03*
Y3313500D02*
D03*
Y3636587D02*
D03*
Y3629500D02*
D03*
Y3952630D02*
D03*
Y3945543D02*
D03*
Y3044087D02*
D03*
Y3037000D02*
D03*
Y3360086D02*
D03*
Y3353000D02*
D03*
Y3676086D02*
D03*
Y3669000D02*
D03*
Y3992130D02*
D03*
Y3985043D02*
D03*
Y3083587D02*
D03*
Y3076500D02*
D03*
Y3399586D02*
D03*
Y3392500D02*
D03*
Y3715586D02*
D03*
Y3708500D02*
D03*
Y4031630D02*
D03*
Y4024543D02*
D03*
Y3123087D02*
D03*
Y3116000D02*
D03*
Y3439087D02*
D03*
Y3432000D02*
D03*
Y3755087D02*
D03*
Y3748000D02*
D03*
Y4071130D02*
D03*
Y4064043D02*
D03*
X4295500Y2530543D02*
D03*
Y2523457D02*
D03*
Y2570043D02*
D03*
Y2562957D02*
D03*
Y2609543D02*
D03*
Y2602457D02*
D03*
Y2649043D02*
D03*
Y2641957D02*
D03*
Y2688543D02*
D03*
Y2681457D02*
D03*
Y2728043D02*
D03*
Y2720957D02*
D03*
Y2767543D02*
D03*
Y2760457D02*
D03*
Y2807043D02*
D03*
Y2799957D02*
D03*
Y2846543D02*
D03*
Y2839457D02*
D03*
Y3162543D02*
D03*
Y3155457D02*
D03*
Y3478543D02*
D03*
Y3471457D02*
D03*
Y3794543D02*
D03*
Y3787457D02*
D03*
Y2886043D02*
D03*
Y2878957D02*
D03*
Y3202043D02*
D03*
Y3194957D02*
D03*
Y3518043D02*
D03*
Y3510957D02*
D03*
Y3834043D02*
D03*
Y3826957D02*
D03*
Y2925543D02*
D03*
Y2918457D02*
D03*
Y3241543D02*
D03*
Y3234457D02*
D03*
Y3557543D02*
D03*
Y3550457D02*
D03*
Y3873543D02*
D03*
Y3866457D02*
D03*
Y2965043D02*
D03*
Y2957957D02*
D03*
Y3281043D02*
D03*
Y3273957D02*
D03*
Y3597043D02*
D03*
Y3589957D02*
D03*
Y3913043D02*
D03*
Y3905957D02*
D03*
Y3004543D02*
D03*
Y2997457D02*
D03*
Y3320543D02*
D03*
Y3313457D02*
D03*
Y3636543D02*
D03*
Y3629457D02*
D03*
Y3952543D02*
D03*
Y3945457D02*
D03*
Y3044043D02*
D03*
Y3036957D02*
D03*
Y3360043D02*
D03*
Y3352957D02*
D03*
Y3676043D02*
D03*
Y3668957D02*
D03*
Y3992043D02*
D03*
Y3984957D02*
D03*
Y3083543D02*
D03*
Y3076457D02*
D03*
Y3399543D02*
D03*
Y3392457D02*
D03*
Y3715543D02*
D03*
Y3708457D02*
D03*
Y4031543D02*
D03*
Y4024457D02*
D03*
Y3123043D02*
D03*
Y3115957D02*
D03*
Y3439043D02*
D03*
Y3431957D02*
D03*
Y3755043D02*
D03*
Y3747957D02*
D03*
Y4071043D02*
D03*
Y4063957D02*
D03*
X4333500Y2530587D02*
D03*
Y2523500D02*
D03*
Y2570087D02*
D03*
Y2563000D02*
D03*
Y2609587D02*
D03*
Y2602500D02*
D03*
Y2649087D02*
D03*
Y2642000D02*
D03*
Y2688587D02*
D03*
Y2681500D02*
D03*
Y2728087D02*
D03*
Y2721000D02*
D03*
Y2767587D02*
D03*
Y2760500D02*
D03*
Y2807087D02*
D03*
Y2800000D02*
D03*
Y2846587D02*
D03*
Y2839500D02*
D03*
Y3162587D02*
D03*
Y3155500D02*
D03*
Y3478587D02*
D03*
Y3471500D02*
D03*
Y3794630D02*
D03*
Y3787543D02*
D03*
Y2886087D02*
D03*
Y2879000D02*
D03*
Y3202087D02*
D03*
Y3195000D02*
D03*
Y3518087D02*
D03*
Y3511000D02*
D03*
Y3834130D02*
D03*
Y3827043D02*
D03*
Y2925587D02*
D03*
Y2918500D02*
D03*
Y3241587D02*
D03*
Y3234500D02*
D03*
Y3557587D02*
D03*
Y3550500D02*
D03*
Y3873630D02*
D03*
Y3866543D02*
D03*
Y2965087D02*
D03*
Y2958000D02*
D03*
Y3281087D02*
D03*
Y3274000D02*
D03*
Y3597087D02*
D03*
Y3590000D02*
D03*
Y3913130D02*
D03*
Y3906043D02*
D03*
Y3004587D02*
D03*
Y2997500D02*
D03*
Y3320587D02*
D03*
Y3313500D02*
D03*
Y3636587D02*
D03*
Y3629500D02*
D03*
Y3952630D02*
D03*
Y3945543D02*
D03*
Y3044087D02*
D03*
Y3037000D02*
D03*
Y3360086D02*
D03*
Y3353000D02*
D03*
Y3676086D02*
D03*
Y3669000D02*
D03*
Y3992130D02*
D03*
Y3985043D02*
D03*
Y3083587D02*
D03*
Y3076500D02*
D03*
Y3399586D02*
D03*
Y3392500D02*
D03*
Y3715586D02*
D03*
Y3708500D02*
D03*
Y4031630D02*
D03*
Y4024543D02*
D03*
Y3123087D02*
D03*
Y3116000D02*
D03*
Y3439087D02*
D03*
Y3432000D02*
D03*
Y3755087D02*
D03*
Y3748000D02*
D03*
Y4071130D02*
D03*
Y4064043D02*
D03*
X4371500Y2530543D02*
D03*
Y2523457D02*
D03*
Y2570043D02*
D03*
Y2562957D02*
D03*
Y2609543D02*
D03*
Y2602457D02*
D03*
Y2649043D02*
D03*
Y2641957D02*
D03*
Y2688543D02*
D03*
Y2681457D02*
D03*
Y2728043D02*
D03*
Y2720957D02*
D03*
Y2767543D02*
D03*
Y2760457D02*
D03*
Y2807043D02*
D03*
Y2799957D02*
D03*
Y2846543D02*
D03*
Y2839457D02*
D03*
Y3162543D02*
D03*
Y3155457D02*
D03*
Y3478543D02*
D03*
Y3471457D02*
D03*
Y3794543D02*
D03*
Y3787457D02*
D03*
Y2886043D02*
D03*
Y2878957D02*
D03*
Y3202043D02*
D03*
Y3194957D02*
D03*
Y3518043D02*
D03*
Y3510957D02*
D03*
Y3834043D02*
D03*
Y3826957D02*
D03*
Y2925543D02*
D03*
Y2918457D02*
D03*
Y3241543D02*
D03*
Y3234457D02*
D03*
Y3557543D02*
D03*
Y3550457D02*
D03*
Y3873543D02*
D03*
Y3866457D02*
D03*
Y2965043D02*
D03*
Y2957957D02*
D03*
Y3281043D02*
D03*
Y3273957D02*
D03*
Y3597043D02*
D03*
Y3589957D02*
D03*
Y3913043D02*
D03*
Y3905957D02*
D03*
Y3004543D02*
D03*
Y2997457D02*
D03*
Y3320543D02*
D03*
Y3313457D02*
D03*
Y3636543D02*
D03*
Y3629457D02*
D03*
Y3952543D02*
D03*
Y3945457D02*
D03*
Y3044043D02*
D03*
Y3036957D02*
D03*
Y3360043D02*
D03*
Y3352957D02*
D03*
Y3676043D02*
D03*
Y3668957D02*
D03*
Y3992043D02*
D03*
Y3984957D02*
D03*
Y3083543D02*
D03*
Y3076457D02*
D03*
Y3399543D02*
D03*
Y3392457D02*
D03*
Y3715543D02*
D03*
Y3708457D02*
D03*
Y4031543D02*
D03*
Y4024457D02*
D03*
Y3123043D02*
D03*
Y3115957D02*
D03*
Y3439043D02*
D03*
Y3431957D02*
D03*
Y3755043D02*
D03*
Y3747957D02*
D03*
Y4071043D02*
D03*
Y4063957D02*
D03*
X4409500Y2530587D02*
D03*
Y2523500D02*
D03*
Y2570087D02*
D03*
Y2563000D02*
D03*
Y2609587D02*
D03*
Y2602500D02*
D03*
Y2649087D02*
D03*
Y2642000D02*
D03*
Y2688587D02*
D03*
Y2681500D02*
D03*
Y2728087D02*
D03*
Y2721000D02*
D03*
Y2767587D02*
D03*
Y2760500D02*
D03*
Y2807087D02*
D03*
Y2800000D02*
D03*
Y2846587D02*
D03*
Y2839500D02*
D03*
Y3162587D02*
D03*
Y3155500D02*
D03*
Y3478587D02*
D03*
Y3471500D02*
D03*
Y3794630D02*
D03*
Y3787543D02*
D03*
Y2886087D02*
D03*
Y2879000D02*
D03*
Y3202087D02*
D03*
Y3195000D02*
D03*
Y3518087D02*
D03*
Y3511000D02*
D03*
Y3834130D02*
D03*
Y3827043D02*
D03*
Y2925587D02*
D03*
Y2918500D02*
D03*
Y3241587D02*
D03*
Y3234500D02*
D03*
Y3557587D02*
D03*
Y3550500D02*
D03*
Y3873630D02*
D03*
Y3866543D02*
D03*
Y2965087D02*
D03*
Y2958000D02*
D03*
Y3281087D02*
D03*
Y3274000D02*
D03*
Y3597087D02*
D03*
Y3590000D02*
D03*
Y3913130D02*
D03*
Y3906043D02*
D03*
Y3004587D02*
D03*
Y2997500D02*
D03*
Y3320587D02*
D03*
Y3313500D02*
D03*
Y3636587D02*
D03*
Y3629500D02*
D03*
Y3952630D02*
D03*
Y3945543D02*
D03*
Y3044087D02*
D03*
Y3037000D02*
D03*
Y3360086D02*
D03*
Y3353000D02*
D03*
Y3676086D02*
D03*
Y3669000D02*
D03*
Y3992130D02*
D03*
Y3985043D02*
D03*
Y3083587D02*
D03*
Y3076500D02*
D03*
Y3399586D02*
D03*
Y3392500D02*
D03*
Y3715586D02*
D03*
Y3708500D02*
D03*
Y4031630D02*
D03*
Y4024543D02*
D03*
Y3123087D02*
D03*
Y3116000D02*
D03*
Y3439087D02*
D03*
Y3432000D02*
D03*
Y3755087D02*
D03*
Y3748000D02*
D03*
Y4071130D02*
D03*
Y4064043D02*
D03*
X4447500Y2530543D02*
D03*
Y2523457D02*
D03*
Y2570043D02*
D03*
Y2562957D02*
D03*
Y2609543D02*
D03*
Y2602457D02*
D03*
Y2649043D02*
D03*
Y2641957D02*
D03*
Y2688543D02*
D03*
Y2681457D02*
D03*
Y2728043D02*
D03*
Y2720957D02*
D03*
Y2767543D02*
D03*
Y2760457D02*
D03*
Y2807043D02*
D03*
Y2799957D02*
D03*
Y2846543D02*
D03*
Y2839457D02*
D03*
Y3162543D02*
D03*
Y3155457D02*
D03*
Y3478543D02*
D03*
Y3471457D02*
D03*
Y3794543D02*
D03*
Y3787457D02*
D03*
Y2886043D02*
D03*
Y2878957D02*
D03*
Y3202043D02*
D03*
Y3194957D02*
D03*
Y3518043D02*
D03*
Y3510957D02*
D03*
Y3834043D02*
D03*
Y3826957D02*
D03*
Y2925543D02*
D03*
Y2918457D02*
D03*
Y3241543D02*
D03*
Y3234457D02*
D03*
Y3557543D02*
D03*
Y3550457D02*
D03*
Y3873543D02*
D03*
Y3866457D02*
D03*
Y2965043D02*
D03*
Y2957957D02*
D03*
Y3281043D02*
D03*
Y3273957D02*
D03*
Y3597043D02*
D03*
Y3589957D02*
D03*
Y3913043D02*
D03*
Y3905957D02*
D03*
Y3004543D02*
D03*
Y2997457D02*
D03*
Y3320543D02*
D03*
Y3313457D02*
D03*
Y3636543D02*
D03*
Y3629457D02*
D03*
Y3952543D02*
D03*
Y3945457D02*
D03*
Y3044043D02*
D03*
Y3036957D02*
D03*
Y3360043D02*
D03*
Y3352957D02*
D03*
Y3676043D02*
D03*
Y3668957D02*
D03*
Y3992043D02*
D03*
Y3984957D02*
D03*
Y3083543D02*
D03*
Y3076457D02*
D03*
Y3399543D02*
D03*
Y3392457D02*
D03*
Y3715543D02*
D03*
Y3708457D02*
D03*
Y4031543D02*
D03*
Y4024457D02*
D03*
Y3123043D02*
D03*
Y3115957D02*
D03*
Y3439043D02*
D03*
Y3431957D02*
D03*
Y3755043D02*
D03*
Y3747957D02*
D03*
Y4071043D02*
D03*
Y4063957D02*
D03*
X4485500Y2530587D02*
D03*
Y2523500D02*
D03*
Y2570087D02*
D03*
Y2563000D02*
D03*
Y2609587D02*
D03*
Y2602500D02*
D03*
Y2649087D02*
D03*
Y2642000D02*
D03*
Y2688587D02*
D03*
Y2681500D02*
D03*
Y2728087D02*
D03*
Y2721000D02*
D03*
Y2767587D02*
D03*
Y2760500D02*
D03*
Y2807087D02*
D03*
Y2800000D02*
D03*
Y2846587D02*
D03*
Y2839500D02*
D03*
Y3162587D02*
D03*
Y3155500D02*
D03*
Y3478587D02*
D03*
Y3471500D02*
D03*
Y3794630D02*
D03*
Y3787543D02*
D03*
Y2886087D02*
D03*
Y2879000D02*
D03*
Y3202087D02*
D03*
Y3195000D02*
D03*
Y3518087D02*
D03*
Y3511000D02*
D03*
Y3834130D02*
D03*
Y3827043D02*
D03*
Y2925587D02*
D03*
Y2918500D02*
D03*
Y3241587D02*
D03*
Y3234500D02*
D03*
Y3557587D02*
D03*
Y3550500D02*
D03*
Y3873630D02*
D03*
Y3866543D02*
D03*
Y2965087D02*
D03*
Y2958000D02*
D03*
Y3281087D02*
D03*
Y3274000D02*
D03*
Y3597087D02*
D03*
Y3590000D02*
D03*
Y3913130D02*
D03*
Y3906043D02*
D03*
Y3004587D02*
D03*
Y2997500D02*
D03*
Y3320587D02*
D03*
Y3313500D02*
D03*
Y3636587D02*
D03*
Y3629500D02*
D03*
Y3952630D02*
D03*
Y3945543D02*
D03*
Y3044087D02*
D03*
Y3037000D02*
D03*
Y3360086D02*
D03*
Y3353000D02*
D03*
Y3676086D02*
D03*
Y3669000D02*
D03*
Y3992130D02*
D03*
Y3985043D02*
D03*
Y3083587D02*
D03*
Y3076500D02*
D03*
Y3399586D02*
D03*
Y3392500D02*
D03*
Y3715586D02*
D03*
Y3708500D02*
D03*
Y4031630D02*
D03*
Y4024543D02*
D03*
Y3123087D02*
D03*
Y3116000D02*
D03*
Y3439087D02*
D03*
Y3432000D02*
D03*
Y3755087D02*
D03*
Y3748000D02*
D03*
Y4071130D02*
D03*
Y4064043D02*
D03*
X4523500Y2530543D02*
D03*
Y2523457D02*
D03*
Y2570043D02*
D03*
Y2562957D02*
D03*
Y2609543D02*
D03*
Y2602457D02*
D03*
Y2649043D02*
D03*
Y2641957D02*
D03*
Y2688543D02*
D03*
Y2681457D02*
D03*
Y2728043D02*
D03*
Y2720957D02*
D03*
Y2767543D02*
D03*
Y2760457D02*
D03*
Y2807043D02*
D03*
Y2799957D02*
D03*
Y2846543D02*
D03*
Y2839457D02*
D03*
Y3162543D02*
D03*
Y3155457D02*
D03*
Y3478543D02*
D03*
Y3471457D02*
D03*
Y3794543D02*
D03*
Y3787457D02*
D03*
Y2886043D02*
D03*
Y2878957D02*
D03*
Y3202043D02*
D03*
Y3194957D02*
D03*
Y3518043D02*
D03*
Y3510957D02*
D03*
Y3834043D02*
D03*
Y3826957D02*
D03*
Y2925543D02*
D03*
Y2918457D02*
D03*
Y3241543D02*
D03*
Y3234457D02*
D03*
Y3557543D02*
D03*
Y3550457D02*
D03*
Y3873543D02*
D03*
Y3866457D02*
D03*
Y2965043D02*
D03*
Y2957957D02*
D03*
Y3281043D02*
D03*
Y3273957D02*
D03*
Y3597043D02*
D03*
Y3589957D02*
D03*
Y3913043D02*
D03*
Y3905957D02*
D03*
Y3004543D02*
D03*
Y2997457D02*
D03*
Y3320543D02*
D03*
Y3313457D02*
D03*
Y3636543D02*
D03*
Y3629457D02*
D03*
Y3952543D02*
D03*
Y3945457D02*
D03*
Y3044043D02*
D03*
Y3036957D02*
D03*
Y3360043D02*
D03*
Y3352957D02*
D03*
Y3676043D02*
D03*
Y3668957D02*
D03*
Y3992043D02*
D03*
Y3984957D02*
D03*
Y3083543D02*
D03*
Y3076457D02*
D03*
Y3399543D02*
D03*
Y3392457D02*
D03*
Y3715543D02*
D03*
Y3708457D02*
D03*
Y4031543D02*
D03*
Y4024457D02*
D03*
Y3123043D02*
D03*
Y3115957D02*
D03*
Y3439043D02*
D03*
Y3431957D02*
D03*
Y3755043D02*
D03*
Y3747957D02*
D03*
Y4071043D02*
D03*
Y4063957D02*
D03*
X4561500Y2530587D02*
D03*
Y2523500D02*
D03*
Y2570087D02*
D03*
Y2563000D02*
D03*
Y2609587D02*
D03*
Y2602500D02*
D03*
Y2649087D02*
D03*
Y2642000D02*
D03*
Y2688587D02*
D03*
Y2681500D02*
D03*
Y2728087D02*
D03*
Y2721000D02*
D03*
Y2767587D02*
D03*
Y2760500D02*
D03*
Y2807087D02*
D03*
Y2800000D02*
D03*
Y2846587D02*
D03*
Y2839500D02*
D03*
Y3162587D02*
D03*
Y3155500D02*
D03*
Y3478587D02*
D03*
Y3471500D02*
D03*
Y3794630D02*
D03*
Y3787543D02*
D03*
Y2886087D02*
D03*
Y2879000D02*
D03*
Y3202087D02*
D03*
Y3195000D02*
D03*
Y3518087D02*
D03*
Y3511000D02*
D03*
Y3834130D02*
D03*
Y3827043D02*
D03*
Y2925587D02*
D03*
Y2918500D02*
D03*
Y3241587D02*
D03*
Y3234500D02*
D03*
Y3557587D02*
D03*
Y3550500D02*
D03*
Y3873630D02*
D03*
Y3866543D02*
D03*
Y2965087D02*
D03*
Y2958000D02*
D03*
Y3281087D02*
D03*
Y3274000D02*
D03*
Y3597087D02*
D03*
Y3590000D02*
D03*
Y3913130D02*
D03*
Y3906043D02*
D03*
Y3004587D02*
D03*
Y2997500D02*
D03*
Y3320587D02*
D03*
Y3313500D02*
D03*
Y3636587D02*
D03*
Y3629500D02*
D03*
Y3952630D02*
D03*
Y3945543D02*
D03*
Y3044087D02*
D03*
Y3037000D02*
D03*
Y3360086D02*
D03*
Y3353000D02*
D03*
Y3676086D02*
D03*
Y3669000D02*
D03*
Y3992130D02*
D03*
Y3985043D02*
D03*
Y3083587D02*
D03*
Y3076500D02*
D03*
Y3399586D02*
D03*
Y3392500D02*
D03*
Y3715586D02*
D03*
Y3708500D02*
D03*
Y4031630D02*
D03*
Y4024543D02*
D03*
Y3123087D02*
D03*
Y3116000D02*
D03*
Y3439087D02*
D03*
Y3432000D02*
D03*
Y3755087D02*
D03*
Y3748000D02*
D03*
Y4071130D02*
D03*
Y4064043D02*
D03*
X4599500Y2530543D02*
D03*
Y2523457D02*
D03*
Y2570043D02*
D03*
Y2562957D02*
D03*
Y2609543D02*
D03*
Y2602457D02*
D03*
Y2649043D02*
D03*
Y2641957D02*
D03*
Y2688543D02*
D03*
Y2681457D02*
D03*
Y2728043D02*
D03*
Y2720957D02*
D03*
Y2767543D02*
D03*
Y2760457D02*
D03*
Y2807043D02*
D03*
Y2799957D02*
D03*
Y2846543D02*
D03*
Y2839457D02*
D03*
Y3162543D02*
D03*
Y3155457D02*
D03*
Y3478543D02*
D03*
Y3471457D02*
D03*
Y3794543D02*
D03*
Y3787457D02*
D03*
Y2886043D02*
D03*
Y2878957D02*
D03*
Y3202043D02*
D03*
Y3194957D02*
D03*
Y3518043D02*
D03*
Y3510957D02*
D03*
Y3834043D02*
D03*
Y3826957D02*
D03*
Y2925543D02*
D03*
Y2918457D02*
D03*
Y3241543D02*
D03*
Y3234457D02*
D03*
Y3557543D02*
D03*
Y3550457D02*
D03*
Y3873543D02*
D03*
Y3866457D02*
D03*
Y2965043D02*
D03*
Y2957957D02*
D03*
Y3281043D02*
D03*
Y3273957D02*
D03*
Y3597043D02*
D03*
Y3589957D02*
D03*
Y3913043D02*
D03*
Y3905957D02*
D03*
Y3004543D02*
D03*
Y2997457D02*
D03*
Y3320543D02*
D03*
Y3313457D02*
D03*
Y3636543D02*
D03*
Y3629457D02*
D03*
Y3952543D02*
D03*
Y3945457D02*
D03*
Y3044043D02*
D03*
Y3036957D02*
D03*
Y3360043D02*
D03*
Y3352957D02*
D03*
Y3676043D02*
D03*
Y3668957D02*
D03*
Y3992043D02*
D03*
Y3984957D02*
D03*
Y3083543D02*
D03*
Y3076457D02*
D03*
Y3399543D02*
D03*
Y3392457D02*
D03*
Y3715543D02*
D03*
Y3708457D02*
D03*
Y4031543D02*
D03*
Y4024457D02*
D03*
Y3123043D02*
D03*
Y3115957D02*
D03*
Y3439043D02*
D03*
Y3431957D02*
D03*
Y3755043D02*
D03*
Y3747957D02*
D03*
Y4071043D02*
D03*
Y4063957D02*
D03*
X4637500Y2530587D02*
D03*
Y2523500D02*
D03*
Y2570087D02*
D03*
Y2563000D02*
D03*
Y2609587D02*
D03*
Y2602500D02*
D03*
Y2649087D02*
D03*
Y2642000D02*
D03*
Y2688587D02*
D03*
Y2681500D02*
D03*
Y2728087D02*
D03*
Y2721000D02*
D03*
Y2767587D02*
D03*
Y2760500D02*
D03*
Y2807087D02*
D03*
Y2800000D02*
D03*
Y2846587D02*
D03*
Y2839500D02*
D03*
Y3162587D02*
D03*
Y3155500D02*
D03*
Y3478587D02*
D03*
Y3471500D02*
D03*
Y3794630D02*
D03*
Y3787543D02*
D03*
Y2886087D02*
D03*
Y2879000D02*
D03*
Y3202087D02*
D03*
Y3195000D02*
D03*
Y3518087D02*
D03*
Y3511000D02*
D03*
Y3834130D02*
D03*
Y3827043D02*
D03*
Y2925587D02*
D03*
Y2918500D02*
D03*
Y3241587D02*
D03*
Y3234500D02*
D03*
Y3557587D02*
D03*
Y3550500D02*
D03*
Y3873630D02*
D03*
Y3866543D02*
D03*
Y2965087D02*
D03*
Y2958000D02*
D03*
Y3281087D02*
D03*
Y3274000D02*
D03*
Y3597087D02*
D03*
Y3590000D02*
D03*
Y3913130D02*
D03*
Y3906043D02*
D03*
Y3004587D02*
D03*
Y2997500D02*
D03*
Y3320587D02*
D03*
Y3313500D02*
D03*
Y3636587D02*
D03*
Y3629500D02*
D03*
Y3952630D02*
D03*
Y3945543D02*
D03*
Y3044087D02*
D03*
Y3037000D02*
D03*
Y3360086D02*
D03*
Y3353000D02*
D03*
Y3676086D02*
D03*
Y3669000D02*
D03*
Y3992130D02*
D03*
Y3985043D02*
D03*
Y3083587D02*
D03*
Y3076500D02*
D03*
Y3399586D02*
D03*
Y3392500D02*
D03*
Y3715586D02*
D03*
Y3708500D02*
D03*
Y4031630D02*
D03*
Y4024543D02*
D03*
Y3123087D02*
D03*
Y3116000D02*
D03*
Y3439087D02*
D03*
Y3432000D02*
D03*
Y3755087D02*
D03*
Y3748000D02*
D03*
Y4071130D02*
D03*
Y4064043D02*
D03*
X4675500Y2530543D02*
D03*
Y2523457D02*
D03*
Y2570043D02*
D03*
Y2562957D02*
D03*
Y2609543D02*
D03*
Y2602457D02*
D03*
Y2649043D02*
D03*
Y2641957D02*
D03*
Y2688543D02*
D03*
Y2681457D02*
D03*
Y2728043D02*
D03*
Y2720957D02*
D03*
Y2767543D02*
D03*
Y2760457D02*
D03*
Y2807043D02*
D03*
Y2799957D02*
D03*
Y2846543D02*
D03*
Y2839457D02*
D03*
Y3162543D02*
D03*
Y3155457D02*
D03*
Y3478543D02*
D03*
Y3471457D02*
D03*
Y3794543D02*
D03*
Y3787457D02*
D03*
Y2886043D02*
D03*
Y2878957D02*
D03*
Y3202043D02*
D03*
Y3194957D02*
D03*
Y3518043D02*
D03*
Y3510957D02*
D03*
Y3834043D02*
D03*
Y3826957D02*
D03*
Y2925543D02*
D03*
Y2918457D02*
D03*
Y3241543D02*
D03*
Y3234457D02*
D03*
Y3557543D02*
D03*
Y3550457D02*
D03*
Y3873543D02*
D03*
Y3866457D02*
D03*
Y2965043D02*
D03*
Y2957957D02*
D03*
Y3281043D02*
D03*
Y3273957D02*
D03*
Y3597043D02*
D03*
Y3589957D02*
D03*
Y3913043D02*
D03*
Y3905957D02*
D03*
Y3004543D02*
D03*
Y2997457D02*
D03*
Y3320543D02*
D03*
Y3313457D02*
D03*
Y3636543D02*
D03*
Y3629457D02*
D03*
Y3952543D02*
D03*
Y3945457D02*
D03*
Y3044043D02*
D03*
Y3036957D02*
D03*
Y3360043D02*
D03*
Y3352957D02*
D03*
Y3676043D02*
D03*
Y3668957D02*
D03*
Y3992043D02*
D03*
Y3984957D02*
D03*
Y3083543D02*
D03*
Y3076457D02*
D03*
Y3399543D02*
D03*
Y3392457D02*
D03*
Y3715543D02*
D03*
Y3708457D02*
D03*
Y4031543D02*
D03*
Y4024457D02*
D03*
Y3123043D02*
D03*
Y3115957D02*
D03*
Y3439043D02*
D03*
Y3431957D02*
D03*
Y3755043D02*
D03*
Y3747957D02*
D03*
Y4071043D02*
D03*
Y4063957D02*
D03*
X4713500Y2530587D02*
D03*
Y2523500D02*
D03*
Y2570087D02*
D03*
Y2563000D02*
D03*
Y2609587D02*
D03*
Y2602500D02*
D03*
Y2649087D02*
D03*
Y2642000D02*
D03*
Y2688587D02*
D03*
Y2681500D02*
D03*
Y2728087D02*
D03*
Y2721000D02*
D03*
Y2767587D02*
D03*
Y2760500D02*
D03*
Y2807087D02*
D03*
Y2800000D02*
D03*
Y2846587D02*
D03*
Y2839500D02*
D03*
Y3162587D02*
D03*
Y3155500D02*
D03*
Y3478587D02*
D03*
Y3471500D02*
D03*
Y3794630D02*
D03*
Y3787543D02*
D03*
Y2886087D02*
D03*
Y2879000D02*
D03*
Y3202087D02*
D03*
Y3195000D02*
D03*
Y3518087D02*
D03*
Y3511000D02*
D03*
Y3834130D02*
D03*
Y3827043D02*
D03*
Y2925587D02*
D03*
Y2918500D02*
D03*
Y3241587D02*
D03*
Y3234500D02*
D03*
Y3557587D02*
D03*
Y3550500D02*
D03*
Y3873630D02*
D03*
Y3866543D02*
D03*
Y2965087D02*
D03*
Y2958000D02*
D03*
Y3281087D02*
D03*
Y3274000D02*
D03*
Y3597087D02*
D03*
Y3590000D02*
D03*
Y3913130D02*
D03*
Y3906043D02*
D03*
Y3004587D02*
D03*
Y2997500D02*
D03*
Y3320587D02*
D03*
Y3313500D02*
D03*
Y3636587D02*
D03*
Y3629500D02*
D03*
Y3952630D02*
D03*
Y3945543D02*
D03*
Y3044087D02*
D03*
Y3037000D02*
D03*
Y3360086D02*
D03*
Y3353000D02*
D03*
Y3676086D02*
D03*
Y3669000D02*
D03*
Y3992130D02*
D03*
Y3985043D02*
D03*
Y3083587D02*
D03*
Y3076500D02*
D03*
Y3399586D02*
D03*
Y3392500D02*
D03*
Y3715586D02*
D03*
Y3708500D02*
D03*
Y4031630D02*
D03*
Y4024543D02*
D03*
Y3123087D02*
D03*
Y3116000D02*
D03*
Y3439087D02*
D03*
Y3432000D02*
D03*
Y3755087D02*
D03*
Y3748000D02*
D03*
Y4071130D02*
D03*
Y4064043D02*
D03*
X4751500Y2530543D02*
D03*
Y2523457D02*
D03*
Y2570043D02*
D03*
Y2562957D02*
D03*
Y2609543D02*
D03*
Y2602457D02*
D03*
Y2649043D02*
D03*
Y2641957D02*
D03*
Y2688543D02*
D03*
Y2681457D02*
D03*
Y2728043D02*
D03*
Y2720957D02*
D03*
Y2767543D02*
D03*
Y2760457D02*
D03*
Y2807043D02*
D03*
Y2799957D02*
D03*
Y2846543D02*
D03*
Y2839457D02*
D03*
Y3162543D02*
D03*
Y3155457D02*
D03*
Y3478543D02*
D03*
Y3471457D02*
D03*
Y3794543D02*
D03*
Y3787457D02*
D03*
Y2886043D02*
D03*
Y2878957D02*
D03*
Y3202043D02*
D03*
Y3194957D02*
D03*
Y3518043D02*
D03*
Y3510957D02*
D03*
Y3834043D02*
D03*
Y3826957D02*
D03*
Y2925543D02*
D03*
Y2918457D02*
D03*
Y3241543D02*
D03*
Y3234457D02*
D03*
Y3557543D02*
D03*
Y3550457D02*
D03*
Y3873543D02*
D03*
Y3866457D02*
D03*
Y2965043D02*
D03*
Y2957957D02*
D03*
Y3281043D02*
D03*
Y3273957D02*
D03*
Y3597043D02*
D03*
Y3589957D02*
D03*
Y3913043D02*
D03*
Y3905957D02*
D03*
Y3004543D02*
D03*
Y2997457D02*
D03*
Y3320543D02*
D03*
Y3313457D02*
D03*
Y3636543D02*
D03*
Y3629457D02*
D03*
Y3952543D02*
D03*
Y3945457D02*
D03*
Y3044043D02*
D03*
Y3036957D02*
D03*
Y3360043D02*
D03*
Y3352957D02*
D03*
Y3676043D02*
D03*
Y3668957D02*
D03*
Y3992043D02*
D03*
Y3984957D02*
D03*
Y3083543D02*
D03*
Y3076457D02*
D03*
Y3399543D02*
D03*
Y3392457D02*
D03*
Y3715543D02*
D03*
Y3708457D02*
D03*
Y4031543D02*
D03*
Y4024457D02*
D03*
Y3123043D02*
D03*
Y3115957D02*
D03*
Y3439043D02*
D03*
Y3431957D02*
D03*
Y3755043D02*
D03*
Y3747957D02*
D03*
Y4071043D02*
D03*
Y4063957D02*
D03*
X4789500Y2530587D02*
D03*
Y2523500D02*
D03*
Y2570087D02*
D03*
Y2563000D02*
D03*
Y2609587D02*
D03*
Y2602500D02*
D03*
Y2649087D02*
D03*
Y2642000D02*
D03*
Y2688587D02*
D03*
Y2681500D02*
D03*
Y2728087D02*
D03*
Y2721000D02*
D03*
Y2767587D02*
D03*
Y2760500D02*
D03*
Y2807087D02*
D03*
Y2800000D02*
D03*
Y2846587D02*
D03*
Y2839500D02*
D03*
Y3162587D02*
D03*
Y3155500D02*
D03*
Y3478587D02*
D03*
Y3471500D02*
D03*
Y3794630D02*
D03*
Y3787543D02*
D03*
Y2886087D02*
D03*
Y2879000D02*
D03*
Y3202087D02*
D03*
Y3195000D02*
D03*
Y3518087D02*
D03*
Y3511000D02*
D03*
Y3834130D02*
D03*
Y3827043D02*
D03*
Y2925587D02*
D03*
Y2918500D02*
D03*
Y3241587D02*
D03*
Y3234500D02*
D03*
Y3557587D02*
D03*
Y3550500D02*
D03*
Y3873630D02*
D03*
Y3866543D02*
D03*
Y2965087D02*
D03*
Y2958000D02*
D03*
Y3281087D02*
D03*
Y3274000D02*
D03*
Y3597087D02*
D03*
Y3590000D02*
D03*
Y3913130D02*
D03*
Y3906043D02*
D03*
Y3004587D02*
D03*
Y2997500D02*
D03*
Y3320587D02*
D03*
Y3313500D02*
D03*
Y3636587D02*
D03*
Y3629500D02*
D03*
Y3952630D02*
D03*
Y3945543D02*
D03*
Y3044087D02*
D03*
Y3037000D02*
D03*
Y3360086D02*
D03*
Y3353000D02*
D03*
Y3676086D02*
D03*
Y3669000D02*
D03*
Y3992130D02*
D03*
Y3985043D02*
D03*
Y3083587D02*
D03*
Y3076500D02*
D03*
Y3399586D02*
D03*
Y3392500D02*
D03*
Y3715586D02*
D03*
Y3708500D02*
D03*
Y4031630D02*
D03*
Y4024543D02*
D03*
Y3123087D02*
D03*
Y3116000D02*
D03*
Y3439087D02*
D03*
Y3432000D02*
D03*
Y3755087D02*
D03*
Y3748000D02*
D03*
Y4071130D02*
D03*
Y4064043D02*
D03*
X4827500Y2530543D02*
D03*
Y2523457D02*
D03*
Y2570043D02*
D03*
Y2562957D02*
D03*
Y2609543D02*
D03*
Y2602457D02*
D03*
Y2649043D02*
D03*
Y2641957D02*
D03*
Y2688543D02*
D03*
Y2681457D02*
D03*
Y2728043D02*
D03*
Y2720957D02*
D03*
Y2767543D02*
D03*
Y2760457D02*
D03*
Y2807043D02*
D03*
Y2799957D02*
D03*
Y2846543D02*
D03*
Y2839457D02*
D03*
Y3162543D02*
D03*
Y3155457D02*
D03*
Y3478543D02*
D03*
Y3471457D02*
D03*
Y3794543D02*
D03*
Y3787457D02*
D03*
Y2886043D02*
D03*
Y2878957D02*
D03*
Y3202043D02*
D03*
Y3194957D02*
D03*
Y3518043D02*
D03*
Y3510957D02*
D03*
Y3834043D02*
D03*
Y3826957D02*
D03*
Y2925543D02*
D03*
Y2918457D02*
D03*
Y3241543D02*
D03*
Y3234457D02*
D03*
Y3557543D02*
D03*
Y3550457D02*
D03*
Y3873543D02*
D03*
Y3866457D02*
D03*
Y2965043D02*
D03*
Y2957957D02*
D03*
Y3281043D02*
D03*
Y3273957D02*
D03*
Y3597043D02*
D03*
Y3589957D02*
D03*
Y3913043D02*
D03*
Y3905957D02*
D03*
Y3004543D02*
D03*
Y2997457D02*
D03*
Y3320543D02*
D03*
Y3313457D02*
D03*
Y3636543D02*
D03*
Y3629457D02*
D03*
Y3952543D02*
D03*
Y3945457D02*
D03*
Y3044043D02*
D03*
Y3036957D02*
D03*
Y3360043D02*
D03*
Y3352957D02*
D03*
Y3676043D02*
D03*
Y3668957D02*
D03*
Y3992043D02*
D03*
Y3984957D02*
D03*
Y3083543D02*
D03*
Y3076457D02*
D03*
Y3399543D02*
D03*
Y3392457D02*
D03*
Y3715543D02*
D03*
Y3708457D02*
D03*
Y4031543D02*
D03*
Y4024457D02*
D03*
Y3123043D02*
D03*
Y3115957D02*
D03*
Y3439043D02*
D03*
Y3431957D02*
D03*
Y3755043D02*
D03*
Y3747957D02*
D03*
Y4071043D02*
D03*
Y4063957D02*
D03*
M02*
