G04 Layer_Color=65535*
%FSLAX25Y25*%
%MOIN*%
G70*
G01*
G75*
%ADD11C,0.01000*%
D11*
X4272673Y2527543D02*
G03*
X4272673Y2527543I-11673J0D01*
G01*
Y2567043D02*
G03*
X4272673Y2567043I-11673J0D01*
G01*
Y2606543D02*
G03*
X4272673Y2606543I-11673J0D01*
G01*
Y2646043D02*
G03*
X4272673Y2646043I-11673J0D01*
G01*
Y2685543D02*
G03*
X4272673Y2685543I-11673J0D01*
G01*
Y2725043D02*
G03*
X4272673Y2725043I-11673J0D01*
G01*
Y2764543D02*
G03*
X4272673Y2764543I-11673J0D01*
G01*
Y2804043D02*
G03*
X4272673Y2804043I-11673J0D01*
G01*
Y2843543D02*
G03*
X4272673Y2843543I-11673J0D01*
G01*
Y3159543D02*
G03*
X4272673Y3159543I-11673J0D01*
G01*
Y3475543D02*
G03*
X4272673Y3475543I-11673J0D01*
G01*
Y3791587D02*
G03*
X4272673Y3791587I-11673J0D01*
G01*
Y2883043D02*
G03*
X4272673Y2883043I-11673J0D01*
G01*
Y3199043D02*
G03*
X4272673Y3199043I-11673J0D01*
G01*
Y3515043D02*
G03*
X4272673Y3515043I-11673J0D01*
G01*
Y3831087D02*
G03*
X4272673Y3831087I-11673J0D01*
G01*
Y2922543D02*
G03*
X4272673Y2922543I-11673J0D01*
G01*
Y3238543D02*
G03*
X4272673Y3238543I-11673J0D01*
G01*
Y3554543D02*
G03*
X4272673Y3554543I-11673J0D01*
G01*
Y3870587D02*
G03*
X4272673Y3870587I-11673J0D01*
G01*
Y2962043D02*
G03*
X4272673Y2962043I-11673J0D01*
G01*
Y3278043D02*
G03*
X4272673Y3278043I-11673J0D01*
G01*
Y3594043D02*
G03*
X4272673Y3594043I-11673J0D01*
G01*
Y3910086D02*
G03*
X4272673Y3910086I-11673J0D01*
G01*
Y3001543D02*
G03*
X4272673Y3001543I-11673J0D01*
G01*
Y3317543D02*
G03*
X4272673Y3317543I-11673J0D01*
G01*
Y3633543D02*
G03*
X4272673Y3633543I-11673J0D01*
G01*
Y3949586D02*
G03*
X4272673Y3949586I-11673J0D01*
G01*
Y3041043D02*
G03*
X4272673Y3041043I-11673J0D01*
G01*
Y3357043D02*
G03*
X4272673Y3357043I-11673J0D01*
G01*
Y3673043D02*
G03*
X4272673Y3673043I-11673J0D01*
G01*
Y3989087D02*
G03*
X4272673Y3989087I-11673J0D01*
G01*
Y3080543D02*
G03*
X4272673Y3080543I-11673J0D01*
G01*
Y3396543D02*
G03*
X4272673Y3396543I-11673J0D01*
G01*
Y3712543D02*
G03*
X4272673Y3712543I-11673J0D01*
G01*
Y4028587D02*
G03*
X4272673Y4028587I-11673J0D01*
G01*
Y3120043D02*
G03*
X4272673Y3120043I-11673J0D01*
G01*
Y3436043D02*
G03*
X4272673Y3436043I-11673J0D01*
G01*
Y3752043D02*
G03*
X4272673Y3752043I-11673J0D01*
G01*
Y4068087D02*
G03*
X4272673Y4068087I-11673J0D01*
G01*
X4310673Y2527500D02*
G03*
X4310673Y2527500I-11673J0D01*
G01*
Y2567000D02*
G03*
X4310673Y2567000I-11673J0D01*
G01*
Y2606500D02*
G03*
X4310673Y2606500I-11673J0D01*
G01*
Y2646000D02*
G03*
X4310673Y2646000I-11673J0D01*
G01*
Y2685500D02*
G03*
X4310673Y2685500I-11673J0D01*
G01*
Y2725000D02*
G03*
X4310673Y2725000I-11673J0D01*
G01*
Y2764500D02*
G03*
X4310673Y2764500I-11673J0D01*
G01*
Y2804000D02*
G03*
X4310673Y2804000I-11673J0D01*
G01*
Y2843500D02*
G03*
X4310673Y2843500I-11673J0D01*
G01*
Y3159500D02*
G03*
X4310673Y3159500I-11673J0D01*
G01*
Y3475500D02*
G03*
X4310673Y3475500I-11673J0D01*
G01*
Y3791500D02*
G03*
X4310673Y3791500I-11673J0D01*
G01*
Y2883000D02*
G03*
X4310673Y2883000I-11673J0D01*
G01*
Y3199000D02*
G03*
X4310673Y3199000I-11673J0D01*
G01*
Y3515000D02*
G03*
X4310673Y3515000I-11673J0D01*
G01*
Y3831000D02*
G03*
X4310673Y3831000I-11673J0D01*
G01*
Y2922500D02*
G03*
X4310673Y2922500I-11673J0D01*
G01*
Y3238500D02*
G03*
X4310673Y3238500I-11673J0D01*
G01*
Y3554500D02*
G03*
X4310673Y3554500I-11673J0D01*
G01*
Y3870500D02*
G03*
X4310673Y3870500I-11673J0D01*
G01*
Y2962000D02*
G03*
X4310673Y2962000I-11673J0D01*
G01*
Y3278000D02*
G03*
X4310673Y3278000I-11673J0D01*
G01*
Y3594000D02*
G03*
X4310673Y3594000I-11673J0D01*
G01*
Y3910000D02*
G03*
X4310673Y3910000I-11673J0D01*
G01*
Y3001500D02*
G03*
X4310673Y3001500I-11673J0D01*
G01*
Y3317500D02*
G03*
X4310673Y3317500I-11673J0D01*
G01*
Y3633500D02*
G03*
X4310673Y3633500I-11673J0D01*
G01*
Y3949500D02*
G03*
X4310673Y3949500I-11673J0D01*
G01*
Y3041000D02*
G03*
X4310673Y3041000I-11673J0D01*
G01*
Y3357000D02*
G03*
X4310673Y3357000I-11673J0D01*
G01*
Y3673000D02*
G03*
X4310673Y3673000I-11673J0D01*
G01*
Y3989000D02*
G03*
X4310673Y3989000I-11673J0D01*
G01*
Y3080500D02*
G03*
X4310673Y3080500I-11673J0D01*
G01*
Y3396500D02*
G03*
X4310673Y3396500I-11673J0D01*
G01*
Y3712500D02*
G03*
X4310673Y3712500I-11673J0D01*
G01*
Y4028500D02*
G03*
X4310673Y4028500I-11673J0D01*
G01*
Y3120000D02*
G03*
X4310673Y3120000I-11673J0D01*
G01*
Y3436000D02*
G03*
X4310673Y3436000I-11673J0D01*
G01*
Y3752000D02*
G03*
X4310673Y3752000I-11673J0D01*
G01*
Y4068000D02*
G03*
X4310673Y4068000I-11673J0D01*
G01*
X4348672Y2527543D02*
G03*
X4348672Y2527543I-11673J0D01*
G01*
Y2567043D02*
G03*
X4348672Y2567043I-11673J0D01*
G01*
Y2606543D02*
G03*
X4348672Y2606543I-11673J0D01*
G01*
Y2646043D02*
G03*
X4348672Y2646043I-11673J0D01*
G01*
Y2685543D02*
G03*
X4348672Y2685543I-11673J0D01*
G01*
Y2725043D02*
G03*
X4348672Y2725043I-11673J0D01*
G01*
Y2764543D02*
G03*
X4348672Y2764543I-11673J0D01*
G01*
Y2804043D02*
G03*
X4348672Y2804043I-11673J0D01*
G01*
Y2843543D02*
G03*
X4348672Y2843543I-11673J0D01*
G01*
Y3159543D02*
G03*
X4348672Y3159543I-11673J0D01*
G01*
Y3475543D02*
G03*
X4348672Y3475543I-11673J0D01*
G01*
Y3791587D02*
G03*
X4348672Y3791587I-11673J0D01*
G01*
Y2883043D02*
G03*
X4348672Y2883043I-11673J0D01*
G01*
Y3199043D02*
G03*
X4348672Y3199043I-11673J0D01*
G01*
Y3515043D02*
G03*
X4348672Y3515043I-11673J0D01*
G01*
Y3831087D02*
G03*
X4348672Y3831087I-11673J0D01*
G01*
Y2922543D02*
G03*
X4348672Y2922543I-11673J0D01*
G01*
Y3238543D02*
G03*
X4348672Y3238543I-11673J0D01*
G01*
Y3554543D02*
G03*
X4348672Y3554543I-11673J0D01*
G01*
Y3870587D02*
G03*
X4348672Y3870587I-11673J0D01*
G01*
Y2962043D02*
G03*
X4348672Y2962043I-11673J0D01*
G01*
Y3278043D02*
G03*
X4348672Y3278043I-11673J0D01*
G01*
Y3594043D02*
G03*
X4348672Y3594043I-11673J0D01*
G01*
Y3910086D02*
G03*
X4348672Y3910086I-11673J0D01*
G01*
Y3001543D02*
G03*
X4348672Y3001543I-11673J0D01*
G01*
Y3317543D02*
G03*
X4348672Y3317543I-11673J0D01*
G01*
Y3633543D02*
G03*
X4348672Y3633543I-11673J0D01*
G01*
Y3949586D02*
G03*
X4348672Y3949586I-11673J0D01*
G01*
Y3041043D02*
G03*
X4348672Y3041043I-11673J0D01*
G01*
Y3357043D02*
G03*
X4348672Y3357043I-11673J0D01*
G01*
Y3673043D02*
G03*
X4348672Y3673043I-11673J0D01*
G01*
Y3989087D02*
G03*
X4348672Y3989087I-11673J0D01*
G01*
Y3080543D02*
G03*
X4348672Y3080543I-11673J0D01*
G01*
Y3396543D02*
G03*
X4348672Y3396543I-11673J0D01*
G01*
Y3712543D02*
G03*
X4348672Y3712543I-11673J0D01*
G01*
Y4028587D02*
G03*
X4348672Y4028587I-11673J0D01*
G01*
Y3120043D02*
G03*
X4348672Y3120043I-11673J0D01*
G01*
Y3436043D02*
G03*
X4348672Y3436043I-11673J0D01*
G01*
Y3752043D02*
G03*
X4348672Y3752043I-11673J0D01*
G01*
Y4068087D02*
G03*
X4348672Y4068087I-11673J0D01*
G01*
X4386673Y2527500D02*
G03*
X4386673Y2527500I-11673J0D01*
G01*
Y2567000D02*
G03*
X4386673Y2567000I-11673J0D01*
G01*
Y2606500D02*
G03*
X4386673Y2606500I-11673J0D01*
G01*
Y2646000D02*
G03*
X4386673Y2646000I-11673J0D01*
G01*
Y2685500D02*
G03*
X4386673Y2685500I-11673J0D01*
G01*
Y2725000D02*
G03*
X4386673Y2725000I-11673J0D01*
G01*
Y2764500D02*
G03*
X4386673Y2764500I-11673J0D01*
G01*
Y2804000D02*
G03*
X4386673Y2804000I-11673J0D01*
G01*
Y2843500D02*
G03*
X4386673Y2843500I-11673J0D01*
G01*
Y3159500D02*
G03*
X4386673Y3159500I-11673J0D01*
G01*
Y3475500D02*
G03*
X4386673Y3475500I-11673J0D01*
G01*
Y3791500D02*
G03*
X4386673Y3791500I-11673J0D01*
G01*
Y2883000D02*
G03*
X4386673Y2883000I-11673J0D01*
G01*
Y3199000D02*
G03*
X4386673Y3199000I-11673J0D01*
G01*
Y3515000D02*
G03*
X4386673Y3515000I-11673J0D01*
G01*
Y3831000D02*
G03*
X4386673Y3831000I-11673J0D01*
G01*
Y2922500D02*
G03*
X4386673Y2922500I-11673J0D01*
G01*
Y3238500D02*
G03*
X4386673Y3238500I-11673J0D01*
G01*
Y3554500D02*
G03*
X4386673Y3554500I-11673J0D01*
G01*
Y3870500D02*
G03*
X4386673Y3870500I-11673J0D01*
G01*
Y2962000D02*
G03*
X4386673Y2962000I-11673J0D01*
G01*
Y3278000D02*
G03*
X4386673Y3278000I-11673J0D01*
G01*
Y3594000D02*
G03*
X4386673Y3594000I-11673J0D01*
G01*
Y3910000D02*
G03*
X4386673Y3910000I-11673J0D01*
G01*
Y3001500D02*
G03*
X4386673Y3001500I-11673J0D01*
G01*
Y3317500D02*
G03*
X4386673Y3317500I-11673J0D01*
G01*
Y3633500D02*
G03*
X4386673Y3633500I-11673J0D01*
G01*
Y3949500D02*
G03*
X4386673Y3949500I-11673J0D01*
G01*
Y3041000D02*
G03*
X4386673Y3041000I-11673J0D01*
G01*
Y3357000D02*
G03*
X4386673Y3357000I-11673J0D01*
G01*
Y3673000D02*
G03*
X4386673Y3673000I-11673J0D01*
G01*
Y3989000D02*
G03*
X4386673Y3989000I-11673J0D01*
G01*
Y3080500D02*
G03*
X4386673Y3080500I-11673J0D01*
G01*
Y3396500D02*
G03*
X4386673Y3396500I-11673J0D01*
G01*
Y3712500D02*
G03*
X4386673Y3712500I-11673J0D01*
G01*
Y4028500D02*
G03*
X4386673Y4028500I-11673J0D01*
G01*
Y3120000D02*
G03*
X4386673Y3120000I-11673J0D01*
G01*
Y3436000D02*
G03*
X4386673Y3436000I-11673J0D01*
G01*
Y3752000D02*
G03*
X4386673Y3752000I-11673J0D01*
G01*
Y4068000D02*
G03*
X4386673Y4068000I-11673J0D01*
G01*
X4424673Y2527543D02*
G03*
X4424673Y2527543I-11673J0D01*
G01*
Y2567043D02*
G03*
X4424673Y2567043I-11673J0D01*
G01*
Y2606543D02*
G03*
X4424673Y2606543I-11673J0D01*
G01*
Y2646043D02*
G03*
X4424673Y2646043I-11673J0D01*
G01*
Y2685543D02*
G03*
X4424673Y2685543I-11673J0D01*
G01*
Y2725043D02*
G03*
X4424673Y2725043I-11673J0D01*
G01*
Y2764543D02*
G03*
X4424673Y2764543I-11673J0D01*
G01*
Y2804043D02*
G03*
X4424673Y2804043I-11673J0D01*
G01*
Y2843543D02*
G03*
X4424673Y2843543I-11673J0D01*
G01*
Y3159543D02*
G03*
X4424673Y3159543I-11673J0D01*
G01*
Y3475543D02*
G03*
X4424673Y3475543I-11673J0D01*
G01*
Y3791587D02*
G03*
X4424673Y3791587I-11673J0D01*
G01*
Y2883043D02*
G03*
X4424673Y2883043I-11673J0D01*
G01*
Y3199043D02*
G03*
X4424673Y3199043I-11673J0D01*
G01*
Y3515043D02*
G03*
X4424673Y3515043I-11673J0D01*
G01*
Y3831087D02*
G03*
X4424673Y3831087I-11673J0D01*
G01*
Y2922543D02*
G03*
X4424673Y2922543I-11673J0D01*
G01*
Y3238543D02*
G03*
X4424673Y3238543I-11673J0D01*
G01*
Y3554543D02*
G03*
X4424673Y3554543I-11673J0D01*
G01*
Y3870587D02*
G03*
X4424673Y3870587I-11673J0D01*
G01*
Y2962043D02*
G03*
X4424673Y2962043I-11673J0D01*
G01*
Y3278043D02*
G03*
X4424673Y3278043I-11673J0D01*
G01*
Y3594043D02*
G03*
X4424673Y3594043I-11673J0D01*
G01*
Y3910086D02*
G03*
X4424673Y3910086I-11673J0D01*
G01*
Y3001543D02*
G03*
X4424673Y3001543I-11673J0D01*
G01*
Y3317543D02*
G03*
X4424673Y3317543I-11673J0D01*
G01*
Y3633543D02*
G03*
X4424673Y3633543I-11673J0D01*
G01*
Y3949586D02*
G03*
X4424673Y3949586I-11673J0D01*
G01*
Y3041043D02*
G03*
X4424673Y3041043I-11673J0D01*
G01*
Y3357043D02*
G03*
X4424673Y3357043I-11673J0D01*
G01*
Y3673043D02*
G03*
X4424673Y3673043I-11673J0D01*
G01*
Y3989087D02*
G03*
X4424673Y3989087I-11673J0D01*
G01*
Y3080543D02*
G03*
X4424673Y3080543I-11673J0D01*
G01*
Y3396543D02*
G03*
X4424673Y3396543I-11673J0D01*
G01*
Y3712543D02*
G03*
X4424673Y3712543I-11673J0D01*
G01*
Y4028587D02*
G03*
X4424673Y4028587I-11673J0D01*
G01*
Y3120043D02*
G03*
X4424673Y3120043I-11673J0D01*
G01*
Y3436043D02*
G03*
X4424673Y3436043I-11673J0D01*
G01*
Y3752043D02*
G03*
X4424673Y3752043I-11673J0D01*
G01*
Y4068087D02*
G03*
X4424673Y4068087I-11673J0D01*
G01*
X4462672Y2527500D02*
G03*
X4462672Y2527500I-11673J0D01*
G01*
Y2567000D02*
G03*
X4462672Y2567000I-11673J0D01*
G01*
Y2606500D02*
G03*
X4462672Y2606500I-11673J0D01*
G01*
Y2646000D02*
G03*
X4462672Y2646000I-11673J0D01*
G01*
Y2685500D02*
G03*
X4462672Y2685500I-11673J0D01*
G01*
Y2725000D02*
G03*
X4462672Y2725000I-11673J0D01*
G01*
Y2764500D02*
G03*
X4462672Y2764500I-11673J0D01*
G01*
Y2804000D02*
G03*
X4462672Y2804000I-11673J0D01*
G01*
Y2843500D02*
G03*
X4462672Y2843500I-11673J0D01*
G01*
Y3159500D02*
G03*
X4462672Y3159500I-11673J0D01*
G01*
Y3475500D02*
G03*
X4462672Y3475500I-11673J0D01*
G01*
Y3791500D02*
G03*
X4462672Y3791500I-11673J0D01*
G01*
Y2883000D02*
G03*
X4462672Y2883000I-11673J0D01*
G01*
Y3199000D02*
G03*
X4462672Y3199000I-11673J0D01*
G01*
Y3515000D02*
G03*
X4462672Y3515000I-11673J0D01*
G01*
Y3831000D02*
G03*
X4462672Y3831000I-11673J0D01*
G01*
Y2922500D02*
G03*
X4462672Y2922500I-11673J0D01*
G01*
Y3238500D02*
G03*
X4462672Y3238500I-11673J0D01*
G01*
Y3554500D02*
G03*
X4462672Y3554500I-11673J0D01*
G01*
Y3870500D02*
G03*
X4462672Y3870500I-11673J0D01*
G01*
Y2962000D02*
G03*
X4462672Y2962000I-11673J0D01*
G01*
Y3278000D02*
G03*
X4462672Y3278000I-11673J0D01*
G01*
Y3594000D02*
G03*
X4462672Y3594000I-11673J0D01*
G01*
Y3910000D02*
G03*
X4462672Y3910000I-11673J0D01*
G01*
Y3001500D02*
G03*
X4462672Y3001500I-11673J0D01*
G01*
Y3317500D02*
G03*
X4462672Y3317500I-11673J0D01*
G01*
Y3633500D02*
G03*
X4462672Y3633500I-11673J0D01*
G01*
Y3949500D02*
G03*
X4462672Y3949500I-11673J0D01*
G01*
Y3041000D02*
G03*
X4462672Y3041000I-11673J0D01*
G01*
Y3357000D02*
G03*
X4462672Y3357000I-11673J0D01*
G01*
Y3673000D02*
G03*
X4462672Y3673000I-11673J0D01*
G01*
Y3989000D02*
G03*
X4462672Y3989000I-11673J0D01*
G01*
Y3080500D02*
G03*
X4462672Y3080500I-11673J0D01*
G01*
Y3396500D02*
G03*
X4462672Y3396500I-11673J0D01*
G01*
Y3712500D02*
G03*
X4462672Y3712500I-11673J0D01*
G01*
Y4028500D02*
G03*
X4462672Y4028500I-11673J0D01*
G01*
Y3120000D02*
G03*
X4462672Y3120000I-11673J0D01*
G01*
Y3436000D02*
G03*
X4462672Y3436000I-11673J0D01*
G01*
Y3752000D02*
G03*
X4462672Y3752000I-11673J0D01*
G01*
Y4068000D02*
G03*
X4462672Y4068000I-11673J0D01*
G01*
X4500673Y2527543D02*
G03*
X4500673Y2527543I-11673J0D01*
G01*
Y2567043D02*
G03*
X4500673Y2567043I-11673J0D01*
G01*
Y2606543D02*
G03*
X4500673Y2606543I-11673J0D01*
G01*
Y2646043D02*
G03*
X4500673Y2646043I-11673J0D01*
G01*
Y2685543D02*
G03*
X4500673Y2685543I-11673J0D01*
G01*
Y2725043D02*
G03*
X4500673Y2725043I-11673J0D01*
G01*
Y2764543D02*
G03*
X4500673Y2764543I-11673J0D01*
G01*
Y2804043D02*
G03*
X4500673Y2804043I-11673J0D01*
G01*
Y2843543D02*
G03*
X4500673Y2843543I-11673J0D01*
G01*
Y3159543D02*
G03*
X4500673Y3159543I-11673J0D01*
G01*
Y3475543D02*
G03*
X4500673Y3475543I-11673J0D01*
G01*
Y3791587D02*
G03*
X4500673Y3791587I-11673J0D01*
G01*
Y2883043D02*
G03*
X4500673Y2883043I-11673J0D01*
G01*
Y3199043D02*
G03*
X4500673Y3199043I-11673J0D01*
G01*
Y3515043D02*
G03*
X4500673Y3515043I-11673J0D01*
G01*
Y3831087D02*
G03*
X4500673Y3831087I-11673J0D01*
G01*
Y2922543D02*
G03*
X4500673Y2922543I-11673J0D01*
G01*
Y3238543D02*
G03*
X4500673Y3238543I-11673J0D01*
G01*
Y3554543D02*
G03*
X4500673Y3554543I-11673J0D01*
G01*
Y3870587D02*
G03*
X4500673Y3870587I-11673J0D01*
G01*
Y2962043D02*
G03*
X4500673Y2962043I-11673J0D01*
G01*
Y3278043D02*
G03*
X4500673Y3278043I-11673J0D01*
G01*
Y3594043D02*
G03*
X4500673Y3594043I-11673J0D01*
G01*
Y3910086D02*
G03*
X4500673Y3910086I-11673J0D01*
G01*
Y3001543D02*
G03*
X4500673Y3001543I-11673J0D01*
G01*
Y3317543D02*
G03*
X4500673Y3317543I-11673J0D01*
G01*
Y3633543D02*
G03*
X4500673Y3633543I-11673J0D01*
G01*
Y3949586D02*
G03*
X4500673Y3949586I-11673J0D01*
G01*
Y3041043D02*
G03*
X4500673Y3041043I-11673J0D01*
G01*
Y3357043D02*
G03*
X4500673Y3357043I-11673J0D01*
G01*
Y3673043D02*
G03*
X4500673Y3673043I-11673J0D01*
G01*
Y3989087D02*
G03*
X4500673Y3989087I-11673J0D01*
G01*
Y3080543D02*
G03*
X4500673Y3080543I-11673J0D01*
G01*
Y3396543D02*
G03*
X4500673Y3396543I-11673J0D01*
G01*
Y3712543D02*
G03*
X4500673Y3712543I-11673J0D01*
G01*
Y4028587D02*
G03*
X4500673Y4028587I-11673J0D01*
G01*
Y3120043D02*
G03*
X4500673Y3120043I-11673J0D01*
G01*
Y3436043D02*
G03*
X4500673Y3436043I-11673J0D01*
G01*
Y3752043D02*
G03*
X4500673Y3752043I-11673J0D01*
G01*
Y4068087D02*
G03*
X4500673Y4068087I-11673J0D01*
G01*
X4538673Y2527500D02*
G03*
X4538673Y2527500I-11673J0D01*
G01*
Y2567000D02*
G03*
X4538673Y2567000I-11673J0D01*
G01*
Y2606500D02*
G03*
X4538673Y2606500I-11673J0D01*
G01*
Y2646000D02*
G03*
X4538673Y2646000I-11673J0D01*
G01*
Y2685500D02*
G03*
X4538673Y2685500I-11673J0D01*
G01*
Y2725000D02*
G03*
X4538673Y2725000I-11673J0D01*
G01*
Y2764500D02*
G03*
X4538673Y2764500I-11673J0D01*
G01*
Y2804000D02*
G03*
X4538673Y2804000I-11673J0D01*
G01*
Y2843500D02*
G03*
X4538673Y2843500I-11673J0D01*
G01*
Y3159500D02*
G03*
X4538673Y3159500I-11673J0D01*
G01*
Y3475500D02*
G03*
X4538673Y3475500I-11673J0D01*
G01*
Y3791500D02*
G03*
X4538673Y3791500I-11673J0D01*
G01*
Y2883000D02*
G03*
X4538673Y2883000I-11673J0D01*
G01*
Y3199000D02*
G03*
X4538673Y3199000I-11673J0D01*
G01*
Y3515000D02*
G03*
X4538673Y3515000I-11673J0D01*
G01*
Y3831000D02*
G03*
X4538673Y3831000I-11673J0D01*
G01*
Y2922500D02*
G03*
X4538673Y2922500I-11673J0D01*
G01*
Y3238500D02*
G03*
X4538673Y3238500I-11673J0D01*
G01*
Y3554500D02*
G03*
X4538673Y3554500I-11673J0D01*
G01*
Y3870500D02*
G03*
X4538673Y3870500I-11673J0D01*
G01*
Y2962000D02*
G03*
X4538673Y2962000I-11673J0D01*
G01*
Y3278000D02*
G03*
X4538673Y3278000I-11673J0D01*
G01*
Y3594000D02*
G03*
X4538673Y3594000I-11673J0D01*
G01*
Y3910000D02*
G03*
X4538673Y3910000I-11673J0D01*
G01*
Y3001500D02*
G03*
X4538673Y3001500I-11673J0D01*
G01*
Y3317500D02*
G03*
X4538673Y3317500I-11673J0D01*
G01*
Y3633500D02*
G03*
X4538673Y3633500I-11673J0D01*
G01*
Y3949500D02*
G03*
X4538673Y3949500I-11673J0D01*
G01*
Y3041000D02*
G03*
X4538673Y3041000I-11673J0D01*
G01*
Y3357000D02*
G03*
X4538673Y3357000I-11673J0D01*
G01*
Y3673000D02*
G03*
X4538673Y3673000I-11673J0D01*
G01*
Y3989000D02*
G03*
X4538673Y3989000I-11673J0D01*
G01*
Y3080500D02*
G03*
X4538673Y3080500I-11673J0D01*
G01*
Y3396500D02*
G03*
X4538673Y3396500I-11673J0D01*
G01*
Y3712500D02*
G03*
X4538673Y3712500I-11673J0D01*
G01*
Y4028500D02*
G03*
X4538673Y4028500I-11673J0D01*
G01*
Y3120000D02*
G03*
X4538673Y3120000I-11673J0D01*
G01*
Y3436000D02*
G03*
X4538673Y3436000I-11673J0D01*
G01*
Y3752000D02*
G03*
X4538673Y3752000I-11673J0D01*
G01*
Y4068000D02*
G03*
X4538673Y4068000I-11673J0D01*
G01*
X4576673Y2527543D02*
G03*
X4576673Y2527543I-11673J0D01*
G01*
Y2567043D02*
G03*
X4576673Y2567043I-11673J0D01*
G01*
Y2606543D02*
G03*
X4576673Y2606543I-11673J0D01*
G01*
Y2646043D02*
G03*
X4576673Y2646043I-11673J0D01*
G01*
Y2685543D02*
G03*
X4576673Y2685543I-11673J0D01*
G01*
Y2725043D02*
G03*
X4576673Y2725043I-11673J0D01*
G01*
Y2764543D02*
G03*
X4576673Y2764543I-11673J0D01*
G01*
Y2804043D02*
G03*
X4576673Y2804043I-11673J0D01*
G01*
Y2843543D02*
G03*
X4576673Y2843543I-11673J0D01*
G01*
Y3159543D02*
G03*
X4576673Y3159543I-11673J0D01*
G01*
Y3475543D02*
G03*
X4576673Y3475543I-11673J0D01*
G01*
Y3791587D02*
G03*
X4576673Y3791587I-11673J0D01*
G01*
Y2883043D02*
G03*
X4576673Y2883043I-11673J0D01*
G01*
Y3199043D02*
G03*
X4576673Y3199043I-11673J0D01*
G01*
Y3515043D02*
G03*
X4576673Y3515043I-11673J0D01*
G01*
Y3831087D02*
G03*
X4576673Y3831087I-11673J0D01*
G01*
Y2922543D02*
G03*
X4576673Y2922543I-11673J0D01*
G01*
Y3238543D02*
G03*
X4576673Y3238543I-11673J0D01*
G01*
Y3554543D02*
G03*
X4576673Y3554543I-11673J0D01*
G01*
Y3870587D02*
G03*
X4576673Y3870587I-11673J0D01*
G01*
Y2962043D02*
G03*
X4576673Y2962043I-11673J0D01*
G01*
Y3278043D02*
G03*
X4576673Y3278043I-11673J0D01*
G01*
Y3594043D02*
G03*
X4576673Y3594043I-11673J0D01*
G01*
Y3910086D02*
G03*
X4576673Y3910086I-11673J0D01*
G01*
Y3001543D02*
G03*
X4576673Y3001543I-11673J0D01*
G01*
Y3317543D02*
G03*
X4576673Y3317543I-11673J0D01*
G01*
Y3633543D02*
G03*
X4576673Y3633543I-11673J0D01*
G01*
Y3949586D02*
G03*
X4576673Y3949586I-11673J0D01*
G01*
Y3041043D02*
G03*
X4576673Y3041043I-11673J0D01*
G01*
Y3357043D02*
G03*
X4576673Y3357043I-11673J0D01*
G01*
Y3673043D02*
G03*
X4576673Y3673043I-11673J0D01*
G01*
Y3989087D02*
G03*
X4576673Y3989087I-11673J0D01*
G01*
Y3080543D02*
G03*
X4576673Y3080543I-11673J0D01*
G01*
Y3396543D02*
G03*
X4576673Y3396543I-11673J0D01*
G01*
Y3712543D02*
G03*
X4576673Y3712543I-11673J0D01*
G01*
Y4028587D02*
G03*
X4576673Y4028587I-11673J0D01*
G01*
Y3120043D02*
G03*
X4576673Y3120043I-11673J0D01*
G01*
Y3436043D02*
G03*
X4576673Y3436043I-11673J0D01*
G01*
Y3752043D02*
G03*
X4576673Y3752043I-11673J0D01*
G01*
Y4068087D02*
G03*
X4576673Y4068087I-11673J0D01*
G01*
X4614672Y2527500D02*
G03*
X4614672Y2527500I-11673J0D01*
G01*
Y2567000D02*
G03*
X4614672Y2567000I-11673J0D01*
G01*
Y2606500D02*
G03*
X4614672Y2606500I-11673J0D01*
G01*
Y2646000D02*
G03*
X4614672Y2646000I-11673J0D01*
G01*
Y2685500D02*
G03*
X4614672Y2685500I-11673J0D01*
G01*
Y2725000D02*
G03*
X4614672Y2725000I-11673J0D01*
G01*
Y2764500D02*
G03*
X4614672Y2764500I-11673J0D01*
G01*
Y2804000D02*
G03*
X4614672Y2804000I-11673J0D01*
G01*
Y2843500D02*
G03*
X4614672Y2843500I-11673J0D01*
G01*
Y3159500D02*
G03*
X4614672Y3159500I-11673J0D01*
G01*
Y3475500D02*
G03*
X4614672Y3475500I-11673J0D01*
G01*
Y3791500D02*
G03*
X4614672Y3791500I-11673J0D01*
G01*
Y2883000D02*
G03*
X4614672Y2883000I-11673J0D01*
G01*
Y3199000D02*
G03*
X4614672Y3199000I-11673J0D01*
G01*
Y3515000D02*
G03*
X4614672Y3515000I-11673J0D01*
G01*
Y3831000D02*
G03*
X4614672Y3831000I-11673J0D01*
G01*
Y2922500D02*
G03*
X4614672Y2922500I-11673J0D01*
G01*
Y3238500D02*
G03*
X4614672Y3238500I-11673J0D01*
G01*
Y3554500D02*
G03*
X4614672Y3554500I-11673J0D01*
G01*
Y3870500D02*
G03*
X4614672Y3870500I-11673J0D01*
G01*
Y2962000D02*
G03*
X4614672Y2962000I-11673J0D01*
G01*
Y3278000D02*
G03*
X4614672Y3278000I-11673J0D01*
G01*
Y3594000D02*
G03*
X4614672Y3594000I-11673J0D01*
G01*
Y3910000D02*
G03*
X4614672Y3910000I-11673J0D01*
G01*
Y3001500D02*
G03*
X4614672Y3001500I-11673J0D01*
G01*
Y3317500D02*
G03*
X4614672Y3317500I-11673J0D01*
G01*
Y3633500D02*
G03*
X4614672Y3633500I-11673J0D01*
G01*
Y3949500D02*
G03*
X4614672Y3949500I-11673J0D01*
G01*
Y3041000D02*
G03*
X4614672Y3041000I-11673J0D01*
G01*
Y3357000D02*
G03*
X4614672Y3357000I-11673J0D01*
G01*
Y3673000D02*
G03*
X4614672Y3673000I-11673J0D01*
G01*
Y3989000D02*
G03*
X4614672Y3989000I-11673J0D01*
G01*
Y3080500D02*
G03*
X4614672Y3080500I-11673J0D01*
G01*
Y3396500D02*
G03*
X4614672Y3396500I-11673J0D01*
G01*
Y3712500D02*
G03*
X4614672Y3712500I-11673J0D01*
G01*
Y4028500D02*
G03*
X4614672Y4028500I-11673J0D01*
G01*
Y3120000D02*
G03*
X4614672Y3120000I-11673J0D01*
G01*
Y3436000D02*
G03*
X4614672Y3436000I-11673J0D01*
G01*
Y3752000D02*
G03*
X4614672Y3752000I-11673J0D01*
G01*
Y4068000D02*
G03*
X4614672Y4068000I-11673J0D01*
G01*
X4652673Y2527543D02*
G03*
X4652673Y2527543I-11673J0D01*
G01*
Y2567043D02*
G03*
X4652673Y2567043I-11673J0D01*
G01*
Y2606543D02*
G03*
X4652673Y2606543I-11673J0D01*
G01*
Y2646043D02*
G03*
X4652673Y2646043I-11673J0D01*
G01*
Y2685543D02*
G03*
X4652673Y2685543I-11673J0D01*
G01*
Y2725043D02*
G03*
X4652673Y2725043I-11673J0D01*
G01*
Y2764543D02*
G03*
X4652673Y2764543I-11673J0D01*
G01*
Y2804043D02*
G03*
X4652673Y2804043I-11673J0D01*
G01*
Y2843543D02*
G03*
X4652673Y2843543I-11673J0D01*
G01*
Y3159543D02*
G03*
X4652673Y3159543I-11673J0D01*
G01*
Y3475543D02*
G03*
X4652673Y3475543I-11673J0D01*
G01*
Y3791587D02*
G03*
X4652673Y3791587I-11673J0D01*
G01*
Y2883043D02*
G03*
X4652673Y2883043I-11673J0D01*
G01*
Y3199043D02*
G03*
X4652673Y3199043I-11673J0D01*
G01*
Y3515043D02*
G03*
X4652673Y3515043I-11673J0D01*
G01*
Y3831087D02*
G03*
X4652673Y3831087I-11673J0D01*
G01*
Y2922543D02*
G03*
X4652673Y2922543I-11673J0D01*
G01*
Y3238543D02*
G03*
X4652673Y3238543I-11673J0D01*
G01*
Y3554543D02*
G03*
X4652673Y3554543I-11673J0D01*
G01*
Y3870587D02*
G03*
X4652673Y3870587I-11673J0D01*
G01*
Y2962043D02*
G03*
X4652673Y2962043I-11673J0D01*
G01*
Y3278043D02*
G03*
X4652673Y3278043I-11673J0D01*
G01*
Y3594043D02*
G03*
X4652673Y3594043I-11673J0D01*
G01*
Y3910086D02*
G03*
X4652673Y3910086I-11673J0D01*
G01*
Y3001543D02*
G03*
X4652673Y3001543I-11673J0D01*
G01*
Y3317543D02*
G03*
X4652673Y3317543I-11673J0D01*
G01*
Y3633543D02*
G03*
X4652673Y3633543I-11673J0D01*
G01*
Y3949586D02*
G03*
X4652673Y3949586I-11673J0D01*
G01*
Y3041043D02*
G03*
X4652673Y3041043I-11673J0D01*
G01*
Y3357043D02*
G03*
X4652673Y3357043I-11673J0D01*
G01*
Y3673043D02*
G03*
X4652673Y3673043I-11673J0D01*
G01*
Y3989087D02*
G03*
X4652673Y3989087I-11673J0D01*
G01*
Y3080543D02*
G03*
X4652673Y3080543I-11673J0D01*
G01*
Y3396543D02*
G03*
X4652673Y3396543I-11673J0D01*
G01*
Y3712543D02*
G03*
X4652673Y3712543I-11673J0D01*
G01*
Y4028587D02*
G03*
X4652673Y4028587I-11673J0D01*
G01*
Y3120043D02*
G03*
X4652673Y3120043I-11673J0D01*
G01*
Y3436043D02*
G03*
X4652673Y3436043I-11673J0D01*
G01*
Y3752043D02*
G03*
X4652673Y3752043I-11673J0D01*
G01*
Y4068087D02*
G03*
X4652673Y4068087I-11673J0D01*
G01*
X4690673Y2527500D02*
G03*
X4690673Y2527500I-11673J0D01*
G01*
Y2567000D02*
G03*
X4690673Y2567000I-11673J0D01*
G01*
Y2606500D02*
G03*
X4690673Y2606500I-11673J0D01*
G01*
Y2646000D02*
G03*
X4690673Y2646000I-11673J0D01*
G01*
Y2685500D02*
G03*
X4690673Y2685500I-11673J0D01*
G01*
Y2725000D02*
G03*
X4690673Y2725000I-11673J0D01*
G01*
Y2764500D02*
G03*
X4690673Y2764500I-11673J0D01*
G01*
Y2804000D02*
G03*
X4690673Y2804000I-11673J0D01*
G01*
Y2843500D02*
G03*
X4690673Y2843500I-11673J0D01*
G01*
Y3159500D02*
G03*
X4690673Y3159500I-11673J0D01*
G01*
Y3475500D02*
G03*
X4690673Y3475500I-11673J0D01*
G01*
Y3791500D02*
G03*
X4690673Y3791500I-11673J0D01*
G01*
Y2883000D02*
G03*
X4690673Y2883000I-11673J0D01*
G01*
Y3199000D02*
G03*
X4690673Y3199000I-11673J0D01*
G01*
Y3515000D02*
G03*
X4690673Y3515000I-11673J0D01*
G01*
Y3831000D02*
G03*
X4690673Y3831000I-11673J0D01*
G01*
Y2922500D02*
G03*
X4690673Y2922500I-11673J0D01*
G01*
Y3238500D02*
G03*
X4690673Y3238500I-11673J0D01*
G01*
Y3554500D02*
G03*
X4690673Y3554500I-11673J0D01*
G01*
Y3870500D02*
G03*
X4690673Y3870500I-11673J0D01*
G01*
Y2962000D02*
G03*
X4690673Y2962000I-11673J0D01*
G01*
Y3278000D02*
G03*
X4690673Y3278000I-11673J0D01*
G01*
Y3594000D02*
G03*
X4690673Y3594000I-11673J0D01*
G01*
Y3910000D02*
G03*
X4690673Y3910000I-11673J0D01*
G01*
Y3001500D02*
G03*
X4690673Y3001500I-11673J0D01*
G01*
Y3317500D02*
G03*
X4690673Y3317500I-11673J0D01*
G01*
Y3633500D02*
G03*
X4690673Y3633500I-11673J0D01*
G01*
Y3949500D02*
G03*
X4690673Y3949500I-11673J0D01*
G01*
Y3041000D02*
G03*
X4690673Y3041000I-11673J0D01*
G01*
Y3357000D02*
G03*
X4690673Y3357000I-11673J0D01*
G01*
Y3673000D02*
G03*
X4690673Y3673000I-11673J0D01*
G01*
Y3989000D02*
G03*
X4690673Y3989000I-11673J0D01*
G01*
Y3080500D02*
G03*
X4690673Y3080500I-11673J0D01*
G01*
Y3396500D02*
G03*
X4690673Y3396500I-11673J0D01*
G01*
Y3712500D02*
G03*
X4690673Y3712500I-11673J0D01*
G01*
Y4028500D02*
G03*
X4690673Y4028500I-11673J0D01*
G01*
Y3120000D02*
G03*
X4690673Y3120000I-11673J0D01*
G01*
Y3436000D02*
G03*
X4690673Y3436000I-11673J0D01*
G01*
Y3752000D02*
G03*
X4690673Y3752000I-11673J0D01*
G01*
Y4068000D02*
G03*
X4690673Y4068000I-11673J0D01*
G01*
X4728673Y2527543D02*
G03*
X4728673Y2527543I-11673J0D01*
G01*
Y2567043D02*
G03*
X4728673Y2567043I-11673J0D01*
G01*
Y2606543D02*
G03*
X4728673Y2606543I-11673J0D01*
G01*
Y2646043D02*
G03*
X4728673Y2646043I-11673J0D01*
G01*
Y2685543D02*
G03*
X4728673Y2685543I-11673J0D01*
G01*
Y2725043D02*
G03*
X4728673Y2725043I-11673J0D01*
G01*
Y2764543D02*
G03*
X4728673Y2764543I-11673J0D01*
G01*
Y2804043D02*
G03*
X4728673Y2804043I-11673J0D01*
G01*
Y2843543D02*
G03*
X4728673Y2843543I-11673J0D01*
G01*
Y3159543D02*
G03*
X4728673Y3159543I-11673J0D01*
G01*
Y3475543D02*
G03*
X4728673Y3475543I-11673J0D01*
G01*
Y3791587D02*
G03*
X4728673Y3791587I-11673J0D01*
G01*
Y2883043D02*
G03*
X4728673Y2883043I-11673J0D01*
G01*
Y3199043D02*
G03*
X4728673Y3199043I-11673J0D01*
G01*
Y3515043D02*
G03*
X4728673Y3515043I-11673J0D01*
G01*
Y3831087D02*
G03*
X4728673Y3831087I-11673J0D01*
G01*
Y2922543D02*
G03*
X4728673Y2922543I-11673J0D01*
G01*
Y3238543D02*
G03*
X4728673Y3238543I-11673J0D01*
G01*
Y3554543D02*
G03*
X4728673Y3554543I-11673J0D01*
G01*
Y3870587D02*
G03*
X4728673Y3870587I-11673J0D01*
G01*
Y2962043D02*
G03*
X4728673Y2962043I-11673J0D01*
G01*
Y3278043D02*
G03*
X4728673Y3278043I-11673J0D01*
G01*
Y3594043D02*
G03*
X4728673Y3594043I-11673J0D01*
G01*
Y3910086D02*
G03*
X4728673Y3910086I-11673J0D01*
G01*
Y3001543D02*
G03*
X4728673Y3001543I-11673J0D01*
G01*
Y3317543D02*
G03*
X4728673Y3317543I-11673J0D01*
G01*
Y3633543D02*
G03*
X4728673Y3633543I-11673J0D01*
G01*
Y3949586D02*
G03*
X4728673Y3949586I-11673J0D01*
G01*
Y3041043D02*
G03*
X4728673Y3041043I-11673J0D01*
G01*
Y3357043D02*
G03*
X4728673Y3357043I-11673J0D01*
G01*
Y3673043D02*
G03*
X4728673Y3673043I-11673J0D01*
G01*
Y3989087D02*
G03*
X4728673Y3989087I-11673J0D01*
G01*
Y3080543D02*
G03*
X4728673Y3080543I-11673J0D01*
G01*
Y3396543D02*
G03*
X4728673Y3396543I-11673J0D01*
G01*
Y3712543D02*
G03*
X4728673Y3712543I-11673J0D01*
G01*
Y4028587D02*
G03*
X4728673Y4028587I-11673J0D01*
G01*
Y3120043D02*
G03*
X4728673Y3120043I-11673J0D01*
G01*
Y3436043D02*
G03*
X4728673Y3436043I-11673J0D01*
G01*
Y3752043D02*
G03*
X4728673Y3752043I-11673J0D01*
G01*
Y4068087D02*
G03*
X4728673Y4068087I-11673J0D01*
G01*
X4766673Y2527500D02*
G03*
X4766673Y2527500I-11673J0D01*
G01*
Y2567000D02*
G03*
X4766673Y2567000I-11673J0D01*
G01*
Y2606500D02*
G03*
X4766673Y2606500I-11673J0D01*
G01*
Y2646000D02*
G03*
X4766673Y2646000I-11673J0D01*
G01*
Y2685500D02*
G03*
X4766673Y2685500I-11673J0D01*
G01*
Y2725000D02*
G03*
X4766673Y2725000I-11673J0D01*
G01*
Y2764500D02*
G03*
X4766673Y2764500I-11673J0D01*
G01*
Y2804000D02*
G03*
X4766673Y2804000I-11673J0D01*
G01*
Y2843500D02*
G03*
X4766673Y2843500I-11673J0D01*
G01*
Y3159500D02*
G03*
X4766673Y3159500I-11673J0D01*
G01*
Y3475500D02*
G03*
X4766673Y3475500I-11673J0D01*
G01*
Y3791500D02*
G03*
X4766673Y3791500I-11673J0D01*
G01*
Y2883000D02*
G03*
X4766673Y2883000I-11673J0D01*
G01*
Y3199000D02*
G03*
X4766673Y3199000I-11673J0D01*
G01*
Y3515000D02*
G03*
X4766673Y3515000I-11673J0D01*
G01*
Y3831000D02*
G03*
X4766673Y3831000I-11673J0D01*
G01*
Y2922500D02*
G03*
X4766673Y2922500I-11673J0D01*
G01*
Y3238500D02*
G03*
X4766673Y3238500I-11673J0D01*
G01*
Y3554500D02*
G03*
X4766673Y3554500I-11673J0D01*
G01*
Y3870500D02*
G03*
X4766673Y3870500I-11673J0D01*
G01*
Y2962000D02*
G03*
X4766673Y2962000I-11673J0D01*
G01*
Y3278000D02*
G03*
X4766673Y3278000I-11673J0D01*
G01*
Y3594000D02*
G03*
X4766673Y3594000I-11673J0D01*
G01*
Y3910000D02*
G03*
X4766673Y3910000I-11673J0D01*
G01*
Y3001500D02*
G03*
X4766673Y3001500I-11673J0D01*
G01*
Y3317500D02*
G03*
X4766673Y3317500I-11673J0D01*
G01*
Y3633500D02*
G03*
X4766673Y3633500I-11673J0D01*
G01*
Y3949500D02*
G03*
X4766673Y3949500I-11673J0D01*
G01*
Y3041000D02*
G03*
X4766673Y3041000I-11673J0D01*
G01*
Y3357000D02*
G03*
X4766673Y3357000I-11673J0D01*
G01*
Y3673000D02*
G03*
X4766673Y3673000I-11673J0D01*
G01*
Y3989000D02*
G03*
X4766673Y3989000I-11673J0D01*
G01*
Y3080500D02*
G03*
X4766673Y3080500I-11673J0D01*
G01*
Y3396500D02*
G03*
X4766673Y3396500I-11673J0D01*
G01*
Y3712500D02*
G03*
X4766673Y3712500I-11673J0D01*
G01*
Y4028500D02*
G03*
X4766673Y4028500I-11673J0D01*
G01*
Y3120000D02*
G03*
X4766673Y3120000I-11673J0D01*
G01*
Y3436000D02*
G03*
X4766673Y3436000I-11673J0D01*
G01*
Y3752000D02*
G03*
X4766673Y3752000I-11673J0D01*
G01*
Y4068000D02*
G03*
X4766673Y4068000I-11673J0D01*
G01*
X4804673Y2527543D02*
G03*
X4804673Y2527543I-11673J0D01*
G01*
Y2567043D02*
G03*
X4804673Y2567043I-11673J0D01*
G01*
Y2606543D02*
G03*
X4804673Y2606543I-11673J0D01*
G01*
Y2646043D02*
G03*
X4804673Y2646043I-11673J0D01*
G01*
Y2685543D02*
G03*
X4804673Y2685543I-11673J0D01*
G01*
Y2725043D02*
G03*
X4804673Y2725043I-11673J0D01*
G01*
Y2764543D02*
G03*
X4804673Y2764543I-11673J0D01*
G01*
Y2804043D02*
G03*
X4804673Y2804043I-11673J0D01*
G01*
Y2843543D02*
G03*
X4804673Y2843543I-11673J0D01*
G01*
Y3159543D02*
G03*
X4804673Y3159543I-11673J0D01*
G01*
Y3475543D02*
G03*
X4804673Y3475543I-11673J0D01*
G01*
Y3791587D02*
G03*
X4804673Y3791587I-11673J0D01*
G01*
Y2883043D02*
G03*
X4804673Y2883043I-11673J0D01*
G01*
Y3199043D02*
G03*
X4804673Y3199043I-11673J0D01*
G01*
Y3515043D02*
G03*
X4804673Y3515043I-11673J0D01*
G01*
Y3831087D02*
G03*
X4804673Y3831087I-11673J0D01*
G01*
Y2922543D02*
G03*
X4804673Y2922543I-11673J0D01*
G01*
Y3238543D02*
G03*
X4804673Y3238543I-11673J0D01*
G01*
Y3554543D02*
G03*
X4804673Y3554543I-11673J0D01*
G01*
Y3870587D02*
G03*
X4804673Y3870587I-11673J0D01*
G01*
Y2962043D02*
G03*
X4804673Y2962043I-11673J0D01*
G01*
Y3278043D02*
G03*
X4804673Y3278043I-11673J0D01*
G01*
Y3594043D02*
G03*
X4804673Y3594043I-11673J0D01*
G01*
Y3910086D02*
G03*
X4804673Y3910086I-11673J0D01*
G01*
Y3001543D02*
G03*
X4804673Y3001543I-11673J0D01*
G01*
Y3317543D02*
G03*
X4804673Y3317543I-11673J0D01*
G01*
Y3633543D02*
G03*
X4804673Y3633543I-11673J0D01*
G01*
Y3949586D02*
G03*
X4804673Y3949586I-11673J0D01*
G01*
Y3041043D02*
G03*
X4804673Y3041043I-11673J0D01*
G01*
Y3357043D02*
G03*
X4804673Y3357043I-11673J0D01*
G01*
Y3673043D02*
G03*
X4804673Y3673043I-11673J0D01*
G01*
Y3989087D02*
G03*
X4804673Y3989087I-11673J0D01*
G01*
Y3080543D02*
G03*
X4804673Y3080543I-11673J0D01*
G01*
Y3396543D02*
G03*
X4804673Y3396543I-11673J0D01*
G01*
Y3712543D02*
G03*
X4804673Y3712543I-11673J0D01*
G01*
Y4028587D02*
G03*
X4804673Y4028587I-11673J0D01*
G01*
Y3120043D02*
G03*
X4804673Y3120043I-11673J0D01*
G01*
Y3436043D02*
G03*
X4804673Y3436043I-11673J0D01*
G01*
Y3752043D02*
G03*
X4804673Y3752043I-11673J0D01*
G01*
Y4068087D02*
G03*
X4804673Y4068087I-11673J0D01*
G01*
X4842673Y2527500D02*
G03*
X4842673Y2527500I-11673J0D01*
G01*
Y2567000D02*
G03*
X4842673Y2567000I-11673J0D01*
G01*
Y2606500D02*
G03*
X4842673Y2606500I-11673J0D01*
G01*
Y2646000D02*
G03*
X4842673Y2646000I-11673J0D01*
G01*
Y2685500D02*
G03*
X4842673Y2685500I-11673J0D01*
G01*
Y2725000D02*
G03*
X4842673Y2725000I-11673J0D01*
G01*
Y2764500D02*
G03*
X4842673Y2764500I-11673J0D01*
G01*
Y2804000D02*
G03*
X4842673Y2804000I-11673J0D01*
G01*
Y2843500D02*
G03*
X4842673Y2843500I-11673J0D01*
G01*
Y3159500D02*
G03*
X4842673Y3159500I-11673J0D01*
G01*
Y3475500D02*
G03*
X4842673Y3475500I-11673J0D01*
G01*
Y3791500D02*
G03*
X4842673Y3791500I-11673J0D01*
G01*
Y2883000D02*
G03*
X4842673Y2883000I-11673J0D01*
G01*
Y3199000D02*
G03*
X4842673Y3199000I-11673J0D01*
G01*
Y3515000D02*
G03*
X4842673Y3515000I-11673J0D01*
G01*
Y3831000D02*
G03*
X4842673Y3831000I-11673J0D01*
G01*
Y2922500D02*
G03*
X4842673Y2922500I-11673J0D01*
G01*
Y3238500D02*
G03*
X4842673Y3238500I-11673J0D01*
G01*
Y3554500D02*
G03*
X4842673Y3554500I-11673J0D01*
G01*
Y3870500D02*
G03*
X4842673Y3870500I-11673J0D01*
G01*
Y2962000D02*
G03*
X4842673Y2962000I-11673J0D01*
G01*
Y3278000D02*
G03*
X4842673Y3278000I-11673J0D01*
G01*
Y3594000D02*
G03*
X4842673Y3594000I-11673J0D01*
G01*
Y3910000D02*
G03*
X4842673Y3910000I-11673J0D01*
G01*
Y3001500D02*
G03*
X4842673Y3001500I-11673J0D01*
G01*
Y3317500D02*
G03*
X4842673Y3317500I-11673J0D01*
G01*
Y3633500D02*
G03*
X4842673Y3633500I-11673J0D01*
G01*
Y3949500D02*
G03*
X4842673Y3949500I-11673J0D01*
G01*
Y3041000D02*
G03*
X4842673Y3041000I-11673J0D01*
G01*
Y3357000D02*
G03*
X4842673Y3357000I-11673J0D01*
G01*
Y3673000D02*
G03*
X4842673Y3673000I-11673J0D01*
G01*
Y3989000D02*
G03*
X4842673Y3989000I-11673J0D01*
G01*
Y3080500D02*
G03*
X4842673Y3080500I-11673J0D01*
G01*
Y3396500D02*
G03*
X4842673Y3396500I-11673J0D01*
G01*
Y3712500D02*
G03*
X4842673Y3712500I-11673J0D01*
G01*
Y4028500D02*
G03*
X4842673Y4028500I-11673J0D01*
G01*
Y3120000D02*
G03*
X4842673Y3120000I-11673J0D01*
G01*
Y3436000D02*
G03*
X4842673Y3436000I-11673J0D01*
G01*
Y3752000D02*
G03*
X4842673Y3752000I-11673J0D01*
G01*
Y4068000D02*
G03*
X4842673Y4068000I-11673J0D01*
G01*
X4855000Y2194000D02*
Y2199998D01*
X4858999Y2194000D01*
Y2199998D01*
X4860998Y2193000D02*
X4864997D01*
X4870995Y2198998D02*
X4869995Y2199998D01*
X4867996D01*
X4866996Y2198998D01*
Y2194999D01*
X4867996Y2194000D01*
X4869995D01*
X4870995Y2194999D01*
X4872994Y2199998D02*
Y2194000D01*
X4876993D01*
X4881991Y2199998D02*
X4879992D01*
X4878992Y2198998D01*
Y2194999D01*
X4879992Y2194000D01*
X4881991D01*
X4882991Y2194999D01*
Y2198998D01*
X4881991Y2199998D01*
X4888989Y2198998D02*
X4887989Y2199998D01*
X4885990D01*
X4884990Y2198998D01*
Y2194999D01*
X4885990Y2194000D01*
X4887989D01*
X4888989Y2194999D01*
X4890989Y2199998D02*
Y2194000D01*
Y2195999D01*
X4894987Y2199998D01*
X4891988Y2196999D01*
X4894987Y2194000D01*
X4855000Y2235498D02*
Y2231499D01*
X4856999Y2229500D01*
X4858999Y2231499D01*
Y2235498D01*
X4864997Y2234498D02*
X4863997Y2235498D01*
X4861998D01*
X4860998Y2234498D01*
Y2230500D01*
X4861998Y2229500D01*
X4863997D01*
X4864997Y2230500D01*
X4870995Y2234498D02*
X4869995Y2235498D01*
X4867996D01*
X4866996Y2234498D01*
Y2230500D01*
X4867996Y2229500D01*
X4869995D01*
X4870995Y2230500D01*
X4246000Y2235498D02*
Y2231499D01*
X4247999Y2229500D01*
X4249999Y2231499D01*
Y2235498D01*
X4255997Y2234498D02*
X4254997Y2235498D01*
X4252998D01*
X4251998Y2234498D01*
Y2230500D01*
X4252998Y2229500D01*
X4254997D01*
X4255997Y2230500D01*
X4261995Y2234498D02*
X4260995Y2235498D01*
X4258996D01*
X4257996Y2234498D01*
Y2230500D01*
X4258996Y2229500D01*
X4260995D01*
X4261995Y2230500D01*
X4858999Y2248998D02*
X4857999Y2249998D01*
X4856000D01*
X4855000Y2248998D01*
Y2245000D01*
X4856000Y2244000D01*
X4857999D01*
X4858999Y2245000D01*
Y2246999D01*
X4856999D01*
X4860998Y2244000D02*
Y2249998D01*
X4864997Y2244000D01*
Y2249998D01*
X4866996D02*
Y2244000D01*
X4869995D01*
X4870995Y2245000D01*
Y2248998D01*
X4869995Y2249998D01*
X4866996D01*
X4855000Y2370500D02*
Y2376498D01*
X4857999D01*
X4858999Y2375498D01*
Y2373499D01*
X4857999Y2372499D01*
X4855000D01*
X4860998Y2369500D02*
X4864997D01*
X4866996Y2376498D02*
Y2370500D01*
X4870995D01*
X4872994D02*
Y2374498D01*
X4874994Y2376498D01*
X4876993Y2374498D01*
Y2370500D01*
Y2373499D01*
X4872994D01*
X4878992Y2376498D02*
X4882991D01*
X4880992D01*
Y2370500D01*
X4888989Y2375498D02*
X4887989Y2376498D01*
X4885990D01*
X4884990Y2375498D01*
Y2371499D01*
X4885990Y2370500D01*
X4887989D01*
X4888989Y2371499D01*
X4890989Y2376498D02*
Y2370500D01*
Y2373499D01*
X4894987D01*
Y2376498D01*
Y2370500D01*
X4855000Y2356000D02*
Y2361998D01*
X4857999D01*
X4858999Y2360998D01*
Y2358999D01*
X4857999Y2357999D01*
X4855000D01*
X4860998Y2355000D02*
X4864997D01*
X4866996Y2361998D02*
Y2356000D01*
X4869995D01*
X4870995Y2356999D01*
Y2360998D01*
X4869995Y2361998D01*
X4866996D01*
X4872994Y2356000D02*
Y2359998D01*
X4874994Y2361998D01*
X4876993Y2359998D01*
Y2356000D01*
Y2358999D01*
X4872994D01*
X4878992Y2361998D02*
X4882991D01*
X4880992D01*
Y2356000D01*
X4884990D02*
Y2359998D01*
X4886990Y2361998D01*
X4888989Y2359998D01*
Y2356000D01*
Y2358999D01*
X4884990D01*
X4890989Y2355000D02*
X4894987D01*
X4896986Y2361998D02*
X4898986D01*
X4897986D01*
Y2356000D01*
X4896986D01*
X4898986D01*
X4901985D02*
Y2361998D01*
X4905983Y2356000D01*
Y2361998D01*
X4246000Y2370500D02*
Y2376498D01*
X4248999D01*
X4249999Y2375498D01*
Y2373499D01*
X4248999Y2372499D01*
X4246000D01*
X4251998Y2369500D02*
X4255997D01*
X4257996Y2376498D02*
Y2370500D01*
X4261995D01*
X4263994D02*
Y2374498D01*
X4265993Y2376498D01*
X4267993Y2374498D01*
Y2370500D01*
Y2373499D01*
X4263994D01*
X4269992Y2376498D02*
X4273991D01*
X4271992D01*
Y2370500D01*
X4279989Y2375498D02*
X4278989Y2376498D01*
X4276990D01*
X4275990Y2375498D01*
Y2371499D01*
X4276990Y2370500D01*
X4278989D01*
X4279989Y2371499D01*
X4281989Y2376498D02*
Y2370500D01*
Y2373499D01*
X4285987D01*
Y2376498D01*
Y2370500D01*
X4246000Y2179000D02*
Y2184998D01*
X4249999Y2179000D01*
Y2184998D01*
X4251998Y2178000D02*
X4255997D01*
X4257996Y2184998D02*
Y2179000D01*
X4261995D01*
X4263994D02*
Y2182998D01*
X4265993Y2184998D01*
X4267993Y2182998D01*
Y2179000D01*
Y2181999D01*
X4263994D01*
X4269992Y2184998D02*
X4273991D01*
X4271992D01*
Y2179000D01*
X4279989Y2183998D02*
X4278989Y2184998D01*
X4276990D01*
X4275990Y2183998D01*
Y2179999D01*
X4276990Y2179000D01*
X4278989D01*
X4279989Y2179999D01*
X4281989Y2184998D02*
Y2179000D01*
Y2181999D01*
X4285987D01*
Y2184998D01*
Y2179000D01*
X4237999Y2106389D02*
X4234000D01*
X4237999Y2110388D01*
Y2111387D01*
X4236999Y2112387D01*
X4235000D01*
X4234000Y2111387D01*
X4239998D02*
X4240998Y2112387D01*
X4242997D01*
X4243997Y2111387D01*
Y2107389D01*
X4242997Y2106389D01*
X4240998D01*
X4239998Y2107389D01*
Y2111387D01*
X4245996Y2106389D02*
X4247995D01*
X4246996D01*
Y2112387D01*
X4245996Y2111387D01*
X4250994Y2112387D02*
X4254993D01*
Y2111387D01*
X4250994Y2107389D01*
Y2106389D01*
X4256993Y2109388D02*
X4260991D01*
X4262991Y2111387D02*
X4263990Y2112387D01*
X4265990D01*
X4266989Y2111387D01*
Y2107389D01*
X4265990Y2106389D01*
X4263990D01*
X4262991Y2107389D01*
Y2111387D01*
X4268989Y2112387D02*
X4272987D01*
Y2111387D01*
X4268989Y2107389D01*
Y2106389D01*
X4274987Y2109388D02*
X4278986D01*
X4284983Y2106389D02*
X4280985D01*
X4284983Y2110388D01*
Y2111387D01*
X4283984Y2112387D01*
X4281984D01*
X4280985Y2111387D01*
X4290982Y2112387D02*
X4286983D01*
Y2109388D01*
X4288982Y2110388D01*
X4289982D01*
X4290982Y2109388D01*
Y2107389D01*
X4289982Y2106389D01*
X4287983D01*
X4286983Y2107389D01*
X4234000Y2096791D02*
Y2102789D01*
X4236999D01*
X4237999Y2101790D01*
Y2099790D01*
X4236999Y2098791D01*
X4234000D01*
X4239998Y2100790D02*
Y2096791D01*
Y2098791D01*
X4240998Y2099790D01*
X4241998Y2100790D01*
X4242997D01*
X4246996Y2096791D02*
X4248995D01*
X4249995Y2097791D01*
Y2099790D01*
X4248995Y2100790D01*
X4246996D01*
X4245996Y2099790D01*
Y2097791D01*
X4246996Y2096791D01*
X4255993Y2102789D02*
Y2096791D01*
X4252994D01*
X4251994Y2097791D01*
Y2099790D01*
X4252994Y2100790D01*
X4255993D01*
X4257992D02*
Y2097791D01*
X4258992Y2096791D01*
X4261991D01*
Y2100790D01*
X4267989D02*
X4264990D01*
X4263990Y2099790D01*
Y2097791D01*
X4264990Y2096791D01*
X4267989D01*
X4270988Y2101790D02*
Y2100790D01*
X4269988D01*
X4271988D01*
X4270988D01*
Y2097791D01*
X4271988Y2096791D01*
X4274987D02*
X4276986D01*
X4275986D01*
Y2100790D01*
X4274987D01*
X4280985Y2096791D02*
X4282984D01*
X4283984Y2097791D01*
Y2099790D01*
X4282984Y2100790D01*
X4280985D01*
X4279985Y2099790D01*
Y2097791D01*
X4280985Y2096791D01*
X4285983D02*
Y2100790D01*
X4288982D01*
X4289982Y2099790D01*
Y2096791D01*
X4291981Y2095792D02*
X4295980D01*
X4297979Y2100790D02*
X4299979Y2096791D01*
X4301978Y2100790D01*
X4306976Y2096791D02*
Y2102789D01*
X4303978Y2099790D01*
X4307976D01*
X4309975Y2096791D02*
Y2097791D01*
X4310975D01*
Y2096791D01*
X4309975D01*
X4314974D02*
Y2102789D01*
X4317973D01*
X4318972Y2101790D01*
Y2099790D01*
X4317973Y2098791D01*
X4314974D01*
X4324971Y2100790D02*
X4321972D01*
X4320972Y2099790D01*
Y2097791D01*
X4321972Y2096791D01*
X4324971D01*
X4326970Y2102789D02*
Y2096791D01*
X4329969D01*
X4330968Y2097791D01*
Y2098791D01*
Y2099790D01*
X4329969Y2100790D01*
X4326970D01*
X4332968Y2102789D02*
Y2096791D01*
X4335967D01*
X4336967Y2097791D01*
Y2101790D01*
X4335967Y2102789D01*
X4332968D01*
X4339966Y2096791D02*
X4341965D01*
X4342965Y2097791D01*
Y2099790D01*
X4341965Y2100790D01*
X4339966D01*
X4338966Y2099790D01*
Y2097791D01*
X4339966Y2096791D01*
X4348963Y2100790D02*
X4345964D01*
X4344964Y2099790D01*
Y2097791D01*
X4345964Y2096791D01*
X4348963D01*
X4234000Y2086194D02*
Y2092192D01*
X4235999Y2090193D01*
X4237999Y2092192D01*
Y2086194D01*
X4240998Y2090193D02*
X4242997D01*
X4243997Y2089193D01*
Y2086194D01*
X4240998D01*
X4239998Y2087194D01*
X4240998Y2088193D01*
X4243997D01*
X4247995Y2084195D02*
X4248995D01*
X4249995Y2085194D01*
Y2090193D01*
X4246996D01*
X4245996Y2089193D01*
Y2087194D01*
X4246996Y2086194D01*
X4249995D01*
X4251994D02*
Y2090193D01*
X4254993D01*
X4255993Y2089193D01*
Y2086194D01*
X4260991D02*
X4258992D01*
X4257992Y2087194D01*
Y2089193D01*
X4258992Y2090193D01*
X4260991D01*
X4261991Y2089193D01*
Y2088193D01*
X4257992D01*
X4264990Y2091192D02*
Y2090193D01*
X4263990D01*
X4265990D01*
X4264990D01*
Y2087194D01*
X4265990Y2086194D01*
X4274987D02*
Y2090193D01*
X4276986Y2092192D01*
X4278986Y2090193D01*
Y2086194D01*
Y2089193D01*
X4274987D01*
X4284983Y2090193D02*
X4281984D01*
X4280985Y2089193D01*
Y2087194D01*
X4281984Y2086194D01*
X4284983D01*
X4287983Y2091192D02*
Y2090193D01*
X4286983D01*
X4288982D01*
X4287983D01*
Y2087194D01*
X4288982Y2086194D01*
X4291981Y2090193D02*
Y2087194D01*
X4292981Y2086194D01*
X4295980D01*
Y2090193D01*
X4298979D02*
X4300978D01*
X4301978Y2089193D01*
Y2086194D01*
X4298979D01*
X4297979Y2087194D01*
X4298979Y2088193D01*
X4301978D01*
X4304977Y2091192D02*
Y2090193D01*
X4303978D01*
X4305977D01*
X4304977D01*
Y2087194D01*
X4305977Y2086194D01*
X4309975D02*
X4311975D01*
X4312975Y2087194D01*
Y2089193D01*
X4311975Y2090193D01*
X4309975D01*
X4308976Y2089193D01*
Y2087194D01*
X4309975Y2086194D01*
X4314974Y2090193D02*
Y2086194D01*
Y2088193D01*
X4315974Y2089193D01*
X4316973Y2090193D01*
X4317973D01*
X4234000Y2074597D02*
Y2080595D01*
X4236999D01*
X4237999Y2079595D01*
Y2077596D01*
X4236999Y2076596D01*
X4234000D01*
X4235999D02*
X4237999Y2074597D01*
X4239998Y2078596D02*
Y2075597D01*
X4240998Y2074597D01*
X4243997D01*
Y2073597D01*
X4242997Y2072598D01*
X4241998D01*
X4243997Y2074597D02*
Y2078596D01*
X4246996Y2074597D02*
X4248995D01*
X4249995Y2075597D01*
Y2077596D01*
X4248995Y2078596D01*
X4246996D01*
X4245996Y2077596D01*
Y2075597D01*
X4246996Y2074597D01*
X4261991Y2079595D02*
X4260991Y2080595D01*
X4258992D01*
X4257992Y2079595D01*
Y2078596D01*
X4258992Y2077596D01*
X4260991D01*
X4261991Y2076596D01*
Y2075597D01*
X4260991Y2074597D01*
X4258992D01*
X4257992Y2075597D01*
X4263990Y2078596D02*
Y2075597D01*
X4264990Y2074597D01*
X4267989D01*
Y2078596D01*
X4269988D02*
X4273987D01*
X4269988Y2074597D01*
X4273987D01*
X4275986Y2078596D02*
Y2075597D01*
X4276986Y2074597D01*
X4279985D01*
Y2078596D01*
X4281984Y2074597D02*
Y2080595D01*
Y2076596D02*
X4284983Y2078596D01*
X4281984Y2076596D02*
X4284983Y2074597D01*
X4287983D02*
X4289982D01*
X4288982D01*
Y2078596D01*
X4287983D01*
X4234000Y2068998D02*
Y2063000D01*
Y2064999D01*
X4237999Y2068998D01*
X4235000Y2065999D01*
X4237999Y2063000D01*
X4242997D02*
X4240998D01*
X4239998Y2064000D01*
Y2065999D01*
X4240998Y2066999D01*
X4242997D01*
X4243997Y2065999D01*
Y2064999D01*
X4239998D01*
X4245996Y2066999D02*
X4247995Y2063000D01*
X4249995Y2066999D01*
X4251994Y2063000D02*
X4253994D01*
X4252994D01*
Y2066999D01*
X4251994D01*
X4256993Y2063000D02*
Y2066999D01*
X4259991D01*
X4260991Y2065999D01*
Y2063000D01*
X4268989Y2068998D02*
Y2063000D01*
Y2064999D01*
X4272987Y2068998D01*
X4269988Y2065999D01*
X4272987Y2063000D01*
X4274987Y2066999D02*
Y2064000D01*
X4275986Y2063000D01*
X4278986D01*
Y2066999D01*
X4280985D02*
Y2064000D01*
X4281984Y2063000D01*
X4282984Y2064000D01*
X4283984Y2063000D01*
X4284983Y2064000D01*
Y2066999D01*
X4287983D02*
X4289982D01*
X4290982Y2065999D01*
Y2063000D01*
X4287983D01*
X4286983Y2064000D01*
X4287983Y2064999D01*
X4290982D01*
X4293981Y2067998D02*
Y2066999D01*
X4292981D01*
X4294980D01*
X4293981D01*
Y2064000D01*
X4294980Y2063000D01*
X4298979Y2066999D02*
X4300978D01*
X4301978Y2065999D01*
Y2063000D01*
X4298979D01*
X4297979Y2064000D01*
X4298979Y2064999D01*
X4301978D01*
X4246000Y2194000D02*
Y2199998D01*
X4249999Y2194000D01*
Y2199998D01*
X4251998Y2193000D02*
X4255997D01*
X4261995Y2198998D02*
X4260995Y2199998D01*
X4258996D01*
X4257996Y2198998D01*
Y2194999D01*
X4258996Y2194000D01*
X4260995D01*
X4261995Y2194999D01*
X4263994Y2199998D02*
Y2194000D01*
X4267993D01*
X4272991Y2199998D02*
X4270992D01*
X4269992Y2198998D01*
Y2194999D01*
X4270992Y2194000D01*
X4272991D01*
X4273991Y2194999D01*
Y2198998D01*
X4272991Y2199998D01*
X4279989Y2198998D02*
X4278989Y2199998D01*
X4276990D01*
X4275990Y2198998D01*
Y2194999D01*
X4276990Y2194000D01*
X4278989D01*
X4279989Y2194999D01*
X4281989Y2199998D02*
Y2194000D01*
Y2195999D01*
X4285987Y2199998D01*
X4282988Y2196999D01*
X4285987Y2194000D01*
X4855000Y2385500D02*
Y2391498D01*
X4857999D01*
X4858999Y2390498D01*
Y2388499D01*
X4857999Y2387499D01*
X4855000D01*
X4860998Y2384500D02*
X4864997D01*
X4870995Y2390498D02*
X4869995Y2391498D01*
X4867996D01*
X4866996Y2390498D01*
Y2386499D01*
X4867996Y2385500D01*
X4869995D01*
X4870995Y2386499D01*
X4872994Y2391498D02*
Y2385500D01*
X4876993D01*
X4881991Y2391498D02*
X4879992D01*
X4878992Y2390498D01*
Y2386499D01*
X4879992Y2385500D01*
X4881991D01*
X4882991Y2386499D01*
Y2390498D01*
X4881991Y2391498D01*
X4888989Y2390498D02*
X4887989Y2391498D01*
X4885990D01*
X4884990Y2390498D01*
Y2386499D01*
X4885990Y2385500D01*
X4887989D01*
X4888989Y2386499D01*
X4890989Y2391498D02*
Y2385500D01*
Y2387499D01*
X4894987Y2391498D01*
X4891988Y2388499D01*
X4894987Y2385500D01*
X4246000D02*
Y2391498D01*
X4248999D01*
X4249999Y2390498D01*
Y2388499D01*
X4248999Y2387499D01*
X4246000D01*
X4251998Y2384500D02*
X4255997D01*
X4261995Y2390498D02*
X4260995Y2391498D01*
X4258996D01*
X4257996Y2390498D01*
Y2386499D01*
X4258996Y2385500D01*
X4260995D01*
X4261995Y2386499D01*
X4263994Y2391498D02*
Y2385500D01*
X4267993D01*
X4272991Y2391498D02*
X4270992D01*
X4269992Y2390498D01*
Y2386499D01*
X4270992Y2385500D01*
X4272991D01*
X4273991Y2386499D01*
Y2390498D01*
X4272991Y2391498D01*
X4279989Y2390498D02*
X4278989Y2391498D01*
X4276990D01*
X4275990Y2390498D01*
Y2386499D01*
X4276990Y2385500D01*
X4278989D01*
X4279989Y2386499D01*
X4281989Y2391498D02*
Y2385500D01*
Y2387499D01*
X4285987Y2391498D01*
X4282988Y2388499D01*
X4285987Y2385500D01*
X4246000Y2423498D02*
Y2419499D01*
X4247999Y2417500D01*
X4249999Y2419499D01*
Y2423498D01*
X4255997Y2422498D02*
X4254997Y2423498D01*
X4252998D01*
X4251998Y2422498D01*
Y2418500D01*
X4252998Y2417500D01*
X4254997D01*
X4255997Y2418500D01*
X4261995Y2422498D02*
X4260995Y2423498D01*
X4258996D01*
X4257996Y2422498D01*
Y2418500D01*
X4258996Y2417500D01*
X4260995D01*
X4261995Y2418500D01*
X4263994Y2420499D02*
X4267993D01*
X4273991Y2423498D02*
X4269992D01*
Y2420499D01*
X4271992Y2421499D01*
X4272991D01*
X4273991Y2420499D01*
Y2418500D01*
X4272991Y2417500D01*
X4270992D01*
X4269992Y2418500D01*
X4275990Y2423498D02*
Y2419499D01*
X4277990Y2417500D01*
X4279989Y2419499D01*
Y2423498D01*
X4249999Y2436998D02*
X4248999Y2437998D01*
X4247000D01*
X4246000Y2436998D01*
Y2433000D01*
X4247000Y2432000D01*
X4248999D01*
X4249999Y2433000D01*
Y2434999D01*
X4247999D01*
X4251998Y2432000D02*
Y2437998D01*
X4255997Y2432000D01*
Y2437998D01*
X4257996D02*
Y2432000D01*
X4260995D01*
X4261995Y2433000D01*
Y2436998D01*
X4260995Y2437998D01*
X4257996D01*
X4246000Y2356000D02*
Y2361998D01*
X4248999D01*
X4249999Y2360998D01*
Y2358999D01*
X4248999Y2357999D01*
X4246000D01*
X4251998Y2355000D02*
X4255997D01*
X4257996Y2361998D02*
Y2356000D01*
X4260995D01*
X4261995Y2356999D01*
Y2360998D01*
X4260995Y2361998D01*
X4257996D01*
X4263994Y2356000D02*
Y2359998D01*
X4265993Y2361998D01*
X4267993Y2359998D01*
Y2356000D01*
Y2358999D01*
X4263994D01*
X4269992Y2361998D02*
X4273991D01*
X4271992D01*
Y2356000D01*
X4275990D02*
Y2359998D01*
X4277990Y2361998D01*
X4279989Y2359998D01*
Y2356000D01*
Y2358999D01*
X4275990D01*
X4281989Y2355000D02*
X4285987D01*
X4290985Y2361998D02*
X4288986D01*
X4287986Y2360998D01*
Y2356999D01*
X4288986Y2356000D01*
X4290985D01*
X4291985Y2356999D01*
Y2360998D01*
X4290985Y2361998D01*
X4293985D02*
Y2356999D01*
X4294984Y2356000D01*
X4296983D01*
X4297983Y2356999D01*
Y2361998D01*
X4299982D02*
X4303981D01*
X4301982D01*
Y2356000D01*
X4855000Y2163500D02*
Y2169498D01*
X4858999Y2163500D01*
Y2169498D01*
X4860998Y2162500D02*
X4864997D01*
X4866996Y2169498D02*
Y2163500D01*
X4869995D01*
X4870995Y2164499D01*
Y2168498D01*
X4869995Y2169498D01*
X4866996D01*
X4872994Y2163500D02*
Y2167498D01*
X4874994Y2169498D01*
X4876993Y2167498D01*
Y2163500D01*
Y2166499D01*
X4872994D01*
X4878992Y2169498D02*
X4882991D01*
X4880992D01*
Y2163500D01*
X4884990D02*
Y2167498D01*
X4886990Y2169498D01*
X4888989Y2167498D01*
Y2163500D01*
Y2166499D01*
X4884990D01*
X4855000Y2179000D02*
Y2184998D01*
X4858999Y2179000D01*
Y2184998D01*
X4860998Y2178000D02*
X4864997D01*
X4866996Y2184998D02*
Y2179000D01*
X4870995D01*
X4872994D02*
Y2182998D01*
X4874994Y2184998D01*
X4876993Y2182998D01*
Y2179000D01*
Y2181999D01*
X4872994D01*
X4878992Y2184998D02*
X4882991D01*
X4880992D01*
Y2179000D01*
X4888989Y2183998D02*
X4887989Y2184998D01*
X4885990D01*
X4884990Y2183998D01*
Y2179999D01*
X4885990Y2179000D01*
X4887989D01*
X4888989Y2179999D01*
X4890989Y2184998D02*
Y2179000D01*
Y2181999D01*
X4894987D01*
Y2184998D01*
Y2179000D01*
X4249999Y2248998D02*
X4248999Y2249998D01*
X4247000D01*
X4246000Y2248998D01*
Y2245000D01*
X4247000Y2244000D01*
X4248999D01*
X4249999Y2245000D01*
Y2246999D01*
X4247999D01*
X4251998Y2244000D02*
Y2249998D01*
X4255997Y2244000D01*
Y2249998D01*
X4257996D02*
Y2244000D01*
X4260995D01*
X4261995Y2245000D01*
Y2248998D01*
X4260995Y2249998D01*
X4257996D01*
X4855000Y2423498D02*
Y2419499D01*
X4856999Y2417500D01*
X4858999Y2419499D01*
Y2423498D01*
X4864997Y2422498D02*
X4863997Y2423498D01*
X4861998D01*
X4860998Y2422498D01*
Y2418500D01*
X4861998Y2417500D01*
X4863997D01*
X4864997Y2418500D01*
X4870995Y2422498D02*
X4869995Y2423498D01*
X4867996D01*
X4866996Y2422498D01*
Y2418500D01*
X4867996Y2417500D01*
X4869995D01*
X4870995Y2418500D01*
X4872994Y2420499D02*
X4876993D01*
X4882991Y2423498D02*
X4878992D01*
Y2420499D01*
X4880992Y2421499D01*
X4881991D01*
X4882991Y2420499D01*
Y2418500D01*
X4881991Y2417500D01*
X4879992D01*
X4878992Y2418500D01*
X4884990Y2423498D02*
Y2419499D01*
X4886990Y2417500D01*
X4888989Y2419499D01*
Y2423498D01*
X4858999Y2436998D02*
X4857999Y2437998D01*
X4856000D01*
X4855000Y2436998D01*
Y2433000D01*
X4856000Y2432000D01*
X4857999D01*
X4858999Y2433000D01*
Y2434999D01*
X4856999D01*
X4860998Y2432000D02*
Y2437998D01*
X4864997Y2432000D01*
Y2437998D01*
X4866996D02*
Y2432000D01*
X4869995D01*
X4870995Y2433000D01*
Y2436998D01*
X4869995Y2437998D01*
X4866996D01*
X4246000Y2163500D02*
Y2169498D01*
X4249999Y2163500D01*
Y2169498D01*
X4251998Y2162500D02*
X4255997D01*
X4257996Y2169498D02*
Y2163500D01*
X4260995D01*
X4261995Y2164499D01*
Y2168498D01*
X4260995Y2169498D01*
X4257996D01*
X4263994Y2163500D02*
Y2167498D01*
X4265993Y2169498D01*
X4267993Y2167498D01*
Y2163500D01*
Y2166499D01*
X4263994D01*
X4269992Y2169498D02*
X4273991D01*
X4271992D01*
Y2163500D01*
X4275990D02*
Y2167498D01*
X4277990Y2169498D01*
X4279989Y2167498D01*
Y2163500D01*
Y2166499D01*
X4275990D01*
X4231550Y4105548D02*
X4235549Y4101550D01*
X4231550D02*
X4235549Y4105548D01*
X4231550Y4103549D02*
X4235549D01*
X4233549Y4101550D02*
Y4105548D01*
M02*
